<svg width="91" height="91" viewBox="0 0 91 91" fill="none" xmlns="http://www.w3.org/2000/svg">
<path d="M57.0646 85.7661C56.052 85.7661 55.1144 85.2035 54.6269 84.341C54.1394 83.4409 54.1394 82.3908 54.6644 81.4908L58.6022 74.9278C59.3897 73.6152 61.1148 73.1652 62.4649 73.9527C63.815 74.7403 64.2276 76.4654 63.44 77.8155L62.4274 79.5031C72.7782 77.0655 80.5412 67.7648 80.5412 56.664C80.5412 55.1264 81.8163 53.8513 83.3539 53.8513C84.8915 53.8513 86.1666 55.1264 86.1666 56.664C86.1291 72.7152 73.0782 85.7661 57.0646 85.7661Z" fill="#494949"/>
<path d="M8.3112 37.0128C6.77359 37.0128 5.4985 35.7377 5.4985 34.2001C5.4985 18.1864 18.5494 5.1355 34.5631 5.1355C35.5756 5.1355 36.5132 5.69804 37.0007 6.5606C37.4883 7.46066 37.4883 8.51074 36.9632 9.4108L33.0255 15.9738C32.2379 17.2864 30.5128 17.7364 29.1627 16.9113C27.8501 16.1238 27.4001 14.3987 28.2251 13.0486L29.2377 11.3609C18.8494 13.7986 11.1239 23.0993 11.1239 34.2001C11.1239 35.7377 9.84881 37.0128 8.3112 37.0128Z" fill="#494949"/>
<path d="M62.3149 31.2375L48.2139 23.6245C46.7138 22.8369 44.9512 22.8369 43.4511 23.6245L29.3126 31.2375C28.3 31.8001 27.6625 32.8876 27.6625 34.0877C27.6625 35.3253 28.3 36.4129 29.3126 36.9754L43.4136 44.5885C44.1636 45.001 44.9887 45.1885 45.8138 45.1885C46.6388 45.1885 47.4639 45.001 48.2139 44.5885L62.3149 36.9754C63.3275 36.4129 63.965 35.3253 63.965 34.0877C63.965 32.8876 63.3275 31.8001 62.3149 31.2375Z" fill="#494949"/>
<path d="M41.0885 47.2137L27.9626 40.6507C26.95 40.1632 25.7874 40.2007 24.8124 40.8007C23.8748 41.4007 23.3123 42.4133 23.3123 43.5384V55.9518C23.3123 58.0894 24.5123 60.0396 26.425 60.9771L39.5509 67.5401C40.0009 67.7651 40.4885 67.8776 41.0135 67.8776C41.6136 67.8776 42.1761 67.7276 42.7011 67.3901C43.6762 66.79 44.2387 65.7775 44.2387 64.6524V52.239C44.2012 50.1014 43.0386 48.1887 41.0885 47.2137Z" fill="#494949"/>
<path d="M66.7779 40.8007C65.8028 40.2007 64.6402 40.1632 63.6277 40.6507L50.5017 47.2137C48.5891 48.1887 47.389 50.1014 47.389 52.239V64.6524C47.389 65.7775 47.9515 66.79 48.9266 67.3901C49.4517 67.7276 50.0142 67.8776 50.6142 67.8776C51.1018 67.8776 51.5893 67.7651 52.0768 67.5401L65.2028 60.9771C67.1154 60.0021 68.3155 58.0894 68.3155 55.9518V43.5384C68.3155 42.4133 67.7529 41.4007 66.7779 40.8007Z" fill="#494949"/>
</svg>
