<svg width="89" height="91" viewBox="0 0 89 91" fill="none" xmlns="http://www.w3.org/2000/svg">
<path d="M40.9362 74.7628V15.5086C40.9362 9.88321 38.5945 7.63306 32.777 7.63306H17.9955C12.178 7.63306 9.8364 9.88321 9.8364 15.5086V74.7628C9.8364 80.3882 12.178 82.6384 17.9955 82.6384H32.777C38.5945 82.6384 40.9362 80.3882 40.9362 74.7628Z" fill="#494949"/>
<path d="M79.3535 41.0104V15.5086C79.3535 9.88322 77.0119 7.63306 71.1944 7.63306H56.4129C50.5954 7.63306 48.2538 9.88322 48.2538 15.5086V41.0104C48.2538 46.6358 50.5954 48.886 56.4129 48.886H71.1944C77.0119 48.886 79.3535 46.6358 79.3535 41.0104Z" fill="#494949"/>
<path d="M79.3535 74.7629V64.2622C79.3535 58.6368 77.0119 56.3866 71.1944 56.3866H56.4129C50.5954 56.3866 48.2538 58.6368 48.2538 64.2622V74.7629C48.2538 80.3883 50.5954 82.6385 56.4129 82.6385H71.1944C77.0119 82.6385 79.3535 80.3883 79.3535 74.7629Z" fill="#494949"/>
</svg>
