<svg width="18" height="10" viewBox="0 0 18 10" fill="none" xmlns="http://www.w3.org/2000/svg">
<path d="M9.13821 0.194336C3.45041 0.194336 1.05148 4.56659 0.954746 4.76005C0.916015 4.81808 0.916016 4.87611 0.916016 4.93414V5.0309C0.916016 5.10822 0.935313 5.16639 0.974044 5.22441C1.0901 5.41793 3.66317 9.77078 9.13816 9.77078C14.826 9.77078 17.2249 5.39853 17.3216 5.20507C17.3604 5.14704 17.3604 5.08901 17.3604 5.03098V4.93422C17.3604 4.8569 17.3411 4.79873 17.3023 4.74071C17.2057 4.56649 14.6132 0.194336 9.13821 0.194336ZM9.13821 9.01623C4.64988 9.01623 2.21225 5.70795 1.7286 4.99221C2.17366 4.2377 4.41786 0.968186 9.13821 0.968186C13.6265 0.968186 16.0642 4.27647 16.5478 4.99221C16.1029 5.74671 13.8587 9.01623 9.13821 9.01623Z" fill="white"/>
<path d="M12.4274 4.99342C12.4274 6.80982 10.9548 8.28225 9.13844 8.28225C7.32217 8.28225 5.84961 6.80982 5.84961 4.99342C5.84961 3.17701 7.32217 1.70459 9.13844 1.70459C10.9548 1.70459 12.4274 3.17701 12.4274 4.99342Z" fill="white"/>
</svg>
