<svg width="25" height="24" viewBox="0 0 25 24" fill="none" xmlns="http://www.w3.org/2000/svg">
<path d="M16.9761 2H8.60614C4.96614 2 2.79614 4.17 2.79614 7.81V16.18C2.79614 19.82 4.96614 21.99 8.60614 21.99H16.9761C20.6161 21.99 22.7861 19.82 22.7861 16.18V7.81C22.7861 4.17 20.6161 2 16.9761 2Z" fill="#FF895B"/>
<path d="M14.7061 9.27995L14.7561 12.23L17.3861 12.19C17.5761 12.19 17.7161 12.36 17.6861 12.54L17.3361 14.45C17.3061 14.59 17.1861 14.69 17.0461 14.7L14.7961 14.74L14.9161 21.99L11.9161 22.04L11.7961 14.79L10.0961 14.82C9.9261 14.82 9.79611 14.69 9.79611 14.52L9.76611 12.62C9.76611 12.45 9.8961 12.32 10.0661 12.32L11.7661 12.29L11.7161 9.03996C11.6861 7.37996 13.0061 6.01995 14.6661 5.98995L17.3661 5.94995C17.5361 5.94995 17.6661 6.07995 17.6661 6.24995L17.7061 8.64996C17.7061 8.81996 17.5761 8.94995 17.4061 8.94995L15.0061 8.98995C14.8361 8.97995 14.7061 9.11995 14.7061 9.27995Z" fill="white"/>
</svg>
