<svg width="89" height="91" viewBox="0 0 89 91" fill="none" xmlns="http://www.w3.org/2000/svg">
<path d="M9.69044 71.8162L9.61727 71.8912C8.62939 69.6785 8.0074 67.1658 7.75128 64.3906C8.0074 67.1283 8.70257 69.6035 9.69044 71.8162Z" fill="white"/>
<path d="M33.1798 39.4511C37.9891 39.4511 41.8877 35.455 41.8877 30.5255C41.8877 25.596 37.9891 21.5999 33.1798 21.5999C28.3705 21.5999 24.4719 25.596 24.4719 30.5255C24.4719 35.455 28.3705 39.4511 33.1798 39.4511Z" fill="white"/>
<path d="M59.4865 8.02393H28.8258C15.5078 8.02393 7.56824 16.162 7.56824 29.813V61.2402C7.56824 65.328 8.26341 68.8907 9.61716 71.8909C12.7637 79.0164 19.4959 83.0292 28.8258 83.0292H59.4865C72.8046 83.0292 80.7441 74.8911 80.7441 61.2402V52.6521V29.813C80.7441 16.162 72.8046 8.02393 59.4865 8.02393ZM74.7803 47.4017C71.9264 44.889 67.3164 44.889 64.4625 47.4017L49.2419 60.7901C46.3881 63.3028 41.778 63.3028 38.9241 60.7901L37.6801 59.7401C35.0824 57.4149 30.9479 57.1899 28.0209 59.215L14.337 68.6282C13.5321 66.5281 13.0564 64.0904 13.0564 61.2402V29.813C13.0564 19.2372 18.508 13.6493 28.8258 13.6493H59.4865C69.8043 13.6493 75.2559 19.2372 75.2559 29.813V47.8142L74.7803 47.4017Z" fill="white"/>
</svg>
