<svg width="164" height="164" viewBox="0 0 164 164" fill="none" xmlns="http://www.w3.org/2000/svg">
<path d="M107.154 20.2866H56.4942C34.489 20.2866 21.3706 33.4051 21.3706 55.4102V106.01C21.3706 128.075 34.489 141.194 56.4942 141.194H107.094C129.099 141.194 142.217 128.075 142.217 106.07V55.4102C142.278 33.4051 129.159 20.2866 107.154 20.2866Z" fill="#FF895B"/>
<path d="M72.1941 66.5801C70.3079 66.5801 68.8258 68.1078 68.8258 69.9751C68.8258 71.8424 70.3415 73.3702 72.1941 73.3702C74.0467 73.3702 75.5624 71.8424 75.5624 69.9751C75.5624 68.1078 74.0467 66.5801 72.1941 66.5801Z" fill="white"/>
<path d="M113.658 58.2624C110.829 51.642 104.598 47.9414 95.9073 47.9414H67.6808C56.8685 47.9414 48.1108 56.7685 48.1108 67.6667V96.1172C48.1108 104.876 51.7823 111.157 58.3505 114.009C58.9905 114.281 59.7315 114.111 60.2031 113.636L113.288 60.1296C113.793 59.6204 113.961 58.8735 113.658 58.2624ZM76.8426 82.7067C75.529 83.9968 73.8111 84.608 72.0933 84.608C70.3754 84.608 68.6576 83.9629 67.3439 82.7067C63.9083 79.4475 60.1357 74.2531 61.5841 68.0741C62.8641 62.4722 67.7818 59.9599 72.0933 59.9599C76.4047 59.9599 81.3225 62.4722 82.6024 68.108C84.0171 74.2531 80.2446 79.4475 76.8426 82.7067Z" fill="white"/>
<path d="M106.956 110.852C107.697 111.599 107.595 112.821 106.686 113.33C103.722 114.994 100.118 115.843 95.9074 115.843H67.6809C66.7041 115.843 66.2999 114.688 66.9736 114.009L87.3182 93.5032C87.9919 92.8241 89.0361 92.8241 89.7097 93.5032L106.956 110.852Z" fill="white"/>
<path d="M115.477 67.6667V96.1173C115.477 100.361 114.635 104.028 112.985 106.981C112.48 107.898 111.267 107.966 110.526 107.253L93.2802 89.8704C92.6065 89.1914 92.6065 88.1389 93.2802 87.4599L113.625 66.9538C114.332 66.2747 115.477 66.6822 115.477 67.6667Z" fill="white"/>
</svg>
