<svg width="164" height="164" viewBox="0 0 164 164" fill="none" xmlns="http://www.w3.org/2000/svg">
<path d="M107.519 21.0566H56.859C34.8539 21.0566 21.7354 34.1751 21.7354 56.1802V106.78C21.7354 128.845 34.8539 141.964 56.859 141.964H107.459C129.464 141.964 142.582 128.845 142.582 106.84V56.1802C142.643 34.1751 129.524 21.0566 107.519 21.0566Z" fill="#FF895B"/>
<path d="M88.0668 81.5103C88.0606 80.4018 87.7847 79.3143 87.2664 78.3559C86.7481 77.3975 86.0056 76.6016 85.1127 76.0474V86.9733C86.0056 86.419 86.7481 85.6231 87.2664 84.6648C87.7847 83.7064 88.0606 82.6189 88.0668 81.5103Z" fill="white"/>
<path d="M123.517 87.3862V75.6345L113.621 77.1591C114.293 78.4955 114.645 79.991 114.645 81.5104C114.645 83.0298 114.293 84.5252 113.621 85.8617L123.517 87.3862Z" fill="white"/>
<path d="M105.792 84.6865C107.424 84.6865 108.746 83.2645 108.746 81.5104C108.746 79.7562 107.424 78.3342 105.792 78.3342C104.161 78.3342 102.838 79.7562 102.838 81.5104C102.838 83.2645 104.161 84.6865 105.792 84.6865Z" fill="white"/>
<path d="M76.2502 81.5103C76.2564 82.6189 76.5324 83.7064 77.0506 84.6648C77.5689 85.6231 78.3114 86.419 79.2043 86.9733V76.0474C78.3114 76.6016 77.5689 77.3975 77.0506 78.3559C76.5324 79.3143 76.2564 80.4018 76.2502 81.5103Z" fill="white"/>
<path d="M105.378 91.0388C103.028 91.0388 100.773 90.0349 99.1114 88.248C97.4494 86.461 96.5157 84.0374 96.5157 81.5104C96.5157 78.9833 97.4494 76.5597 99.1114 74.7728C100.773 72.9858 103.028 71.982 105.378 71.982L123.517 69.2187V59.2774C123.517 56.7503 122.583 54.3267 120.921 52.5398C119.259 50.7529 117.005 49.749 114.654 49.749H85.1127V69.2505C87.6159 69.9819 89.8258 71.5786 91.4013 73.7943C92.9768 76.0099 93.8304 78.7214 93.8304 81.5104C93.8304 84.2993 92.9768 87.0108 91.4013 89.2265C89.8258 91.4421 87.6159 93.0388 85.1127 93.7702V113.272H114.654C117.005 113.272 119.259 112.268 120.921 110.481C122.583 108.694 123.517 106.27 123.517 103.743V93.802L105.378 91.0388Z" fill="white"/>
<path d="M58.5253 84.6865C60.1568 84.6865 61.4794 83.2645 61.4794 81.5104C61.4794 79.7562 60.1568 78.3342 58.5253 78.3342C56.8937 78.3342 55.5711 79.7562 55.5711 81.5104C55.5711 83.2645 56.8937 84.6865 58.5253 84.6865Z" fill="white"/>
<path d="M79.2046 93.7702C76.7013 93.0388 74.4915 91.4421 72.916 89.2265C71.3405 87.0108 70.4869 84.2993 70.4869 81.5104C70.4869 78.7214 71.3405 76.0099 72.916 73.7943C74.4915 71.5786 76.7013 69.9819 79.2046 69.2505V49.749H49.6631C47.3126 49.749 45.0584 50.7529 43.3964 52.5398C41.7343 54.3267 40.8006 56.7503 40.8006 59.2774V69.2187L58.9391 71.982C61.2896 71.982 63.5438 72.9858 65.2058 74.7728C66.8678 76.5597 67.8015 78.9833 67.8015 81.5104C67.8015 84.0374 66.8678 86.461 65.2058 88.248C63.5438 90.0349 61.2896 91.0388 58.9391 91.0388L40.8006 93.802V103.743C40.8006 106.27 41.7343 108.694 43.3964 110.481C45.0584 112.268 47.3126 113.272 49.6631 113.272H79.2046V93.7702Z" fill="white"/>
<path d="M40.8007 75.6345V87.3545L50.6971 85.8299C50.0248 84.4934 49.6728 82.998 49.6728 81.4786C49.6728 79.9592 50.0248 78.4638 50.6971 77.1273L40.8007 75.6345Z" fill="white"/>
</svg>
