<svg width="164" height="164" viewBox="0 0 164 164" fill="none" xmlns="http://www.w3.org/2000/svg">
<path d="M106.965 20.8164H56.3051C34.3 20.8164 21.1816 33.9348 21.1816 55.94V106.54C21.1816 128.605 34.3 141.724 56.3051 141.724H106.905C128.91 141.724 142.028 128.605 142.028 106.6V55.94C142.089 33.9348 128.97 20.8164 106.965 20.8164Z" fill="#FF895B"/>
<path d="M63.203 67.1259V54.6112C63.203 53.0064 61.9022 51.7056 60.2975 51.7056C58.6928 51.7056 57.3919 53.0064 57.3919 54.6111V67.1259C57.3919 68.7306 58.6928 70.0315 60.2975 70.0315C61.9022 70.0315 63.203 68.7306 63.203 67.1259Z" fill="white"/>
<path d="M62.0799 47.7554H51.5806C49.9759 47.7554 48.675 49.0562 48.675 50.661C48.675 52.2657 49.9759 53.5665 51.5806 53.5665H62.0799C63.6847 53.5665 64.9855 52.2657 64.9855 50.661C64.9855 49.0562 63.6847 47.7554 62.0799 47.7554Z" fill="white"/>
<path d="M69.0143 47.7554H62.8431C61.2383 47.7554 59.9375 49.0562 59.9375 50.661C59.9375 52.2657 61.2383 53.5665 62.8431 53.5665H69.0143C70.619 53.5665 71.9199 52.2657 71.9199 50.661C71.9199 49.0562 70.619 47.7554 69.0143 47.7554Z" fill="white"/>
<path d="M114.535 95.2134C114.535 84.5067 105.871 75.8428 95.1645 75.8428L65.0909 76.2105C61.9097 76.2493 59.3512 78.8393 59.3512 82.0208C59.3512 85.2577 61.9963 87.8706 65.233 87.8311L95.1645 87.4651C99.4471 87.4651 102.913 90.9307 102.913 95.2134C102.913 96.2832 103.78 97.1505 104.85 97.1505H112.598C113.668 97.1505 114.535 96.2832 114.535 95.2134Z" fill="white"/>
<path d="M68.046 68.0945H52.5496V95.2134H68.046V68.0945Z" fill="white"/>
<path d="M60.2978 56.4722C63.5073 56.4722 66.109 53.8704 66.109 50.661C66.109 47.4516 63.5073 44.8499 60.2978 44.8499C57.0884 44.8499 54.4867 47.4516 54.4867 50.661C54.4867 53.8704 57.0884 56.4722 60.2978 56.4722Z" fill="white"/>
<path d="M108.724 118.458C107.893 118.458 107.102 118.289 106.382 117.983C103.395 116.714 102.365 112.988 104.227 110.329L108.724 103.904L113.221 110.329C115.083 112.988 114.053 116.714 111.066 117.983C110.346 118.289 109.555 118.458 108.724 118.458Z" fill="white"/>
<path d="M95.1647 75.8428H87.4164C84.207 75.8428 81.6052 78.4445 81.6052 81.6539C81.6052 84.8634 84.207 87.4651 87.4164 87.4651H95.1647C99.4473 87.4651 102.913 90.9307 102.913 95.2134C102.913 96.2832 103.78 97.1505 104.85 97.1505H112.598C113.668 97.1505 114.535 96.2832 114.535 95.2134C114.535 84.5067 105.871 75.8428 95.1647 75.8428Z" fill="white"/>
</svg>
