<svg width="164" height="164" viewBox="0 0 164 164" fill="none" xmlns="http://www.w3.org/2000/svg">
<path d="M108.008 21.0044H57.3474C35.3423 21.0044 22.2239 34.1228 22.2239 56.128V106.728C22.2239 128.793 35.3423 141.912 57.3474 141.912H107.947C129.952 141.912 143.071 128.793 143.071 106.788V56.128C143.131 34.1228 130.013 21.0044 108.008 21.0044Z" fill="#FF895B"/>
<path d="M61.65 57.8574C61.8795 57.7426 62.1496 57.7426 62.3791 57.8574L68.3894 60.8627C68.9901 61.1631 68.9901 62.0204 68.3894 62.3208L61.1286 65.9513C60.8991 66.0661 60.629 66.0661 60.3995 65.9513L54.3892 62.946C53.7884 62.6456 53.7884 61.7883 54.3892 61.4879L61.65 57.8574ZM72.2794 52.5427C72.5089 52.4279 72.779 52.4279 73.0085 52.5427L79.0188 55.548C79.6195 55.8484 79.6195 56.7057 79.0188 57.0061L73.0085 60.0114C72.779 60.1261 72.5089 60.1261 72.2794 60.0114L66.2691 57.0061C65.6683 56.7057 65.6683 55.8484 66.2691 55.548L72.2794 52.5427ZM99.6526 55.8606C100.253 56.161 100.253 57.0183 99.6527 57.3187L94.2676 60.0114C94.0381 60.1261 93.768 60.1261 93.5385 60.0114L87.5282 57.0061C86.9275 56.7057 86.9275 55.8484 87.5282 55.548L92.9133 52.8553C93.1427 52.7406 93.4129 52.7406 93.6423 52.8553L99.6526 55.8606ZM110.907 61.4879C111.508 61.7883 111.508 62.6456 110.907 62.946L105.522 65.6387C105.293 65.7534 105.023 65.7534 104.793 65.6387L98.1576 62.3208C97.5569 62.0204 97.5569 61.1631 98.1576 60.8627L103.543 58.17C103.772 58.0553 104.042 58.0553 104.272 58.17L110.907 61.4879ZM51.3851 65.5592C51.3851 64.9532 52.0228 64.5591 52.5648 64.8301L80.947 79.0212C81.2231 79.1593 81.3975 79.4415 81.3975 79.7503V81.3837C81.3975 81.9896 80.7599 82.3837 80.2179 82.1127L51.8357 67.9217C51.5596 67.7836 51.3851 67.5013 51.3851 67.1926V65.5592ZM94.8925 70.953C94.663 71.0678 94.3929 71.0678 94.1634 70.953L87.528 67.6356C86.9272 67.3352 86.9272 66.4779 87.5279 66.1775L93.5382 63.1722C93.7676 63.0575 94.0378 63.0575 94.2672 63.1722L100.903 66.4901C101.503 66.7905 101.503 67.6478 100.903 67.9482L94.8925 70.953ZM90.2734 71.8048C90.8741 72.1052 90.8741 72.9625 90.2734 73.2629L83.0126 76.8935C82.7831 77.0082 82.513 77.0082 82.2835 76.8935L75.648 73.5755C75.0472 73.2751 75.0472 72.4178 75.648 72.1174L82.9088 68.4869C83.1383 68.3721 83.4084 68.3722 83.6378 68.4869L90.2734 71.8048ZM71.7576 71.2662C71.5281 71.3809 71.258 71.3809 71.0285 71.2662L65.0182 68.2609C64.4174 67.9605 64.4174 67.1032 65.0182 66.8028L72.279 63.1722C72.5085 63.0575 72.7786 63.0575 73.0081 63.1722L79.0184 66.1775C79.6191 66.4779 79.6191 67.3352 79.0184 67.6356L71.7576 71.2662ZM83.8982 79.7508C83.8982 79.4421 84.0726 79.1598 84.3488 79.0218L112.731 64.8307C113.273 64.5597 113.911 64.9538 113.911 65.5597V67.1931C113.911 67.5019 113.736 67.7841 113.46 67.9222L85.0778 82.1133C84.5359 82.3843 83.8982 81.9902 83.8982 81.3842V79.7508ZM89.6478 60.8632C90.2485 61.1636 90.2485 62.0209 89.6478 62.3213L83.6375 65.3266C83.408 65.4413 83.1379 65.4413 82.9084 65.3266L76.8981 62.3213C76.2973 62.0209 76.2973 61.1636 76.8981 60.8632L82.9084 57.8579C83.1379 57.7432 83.408 57.7432 83.6375 57.8579L89.6478 60.8632ZM51.3844 71.8123C51.3844 71.2064 52.0221 70.8123 52.564 71.0832L79.6436 84.623C80.2443 84.9234 80.2443 85.7807 79.6436 86.0811L52.564 99.6209C52.0221 99.8919 51.3844 99.4978 51.3844 98.8918V71.8123ZM112.731 71.0833C113.273 70.8123 113.91 71.2064 113.91 71.8123V98.8918C113.91 99.4978 113.273 99.8919 112.731 99.6209L85.651 86.0811C85.0503 85.7807 85.0503 84.9234 85.651 84.623L112.731 71.0833ZM82.2828 47.5412C82.5122 47.4264 82.7824 47.4264 83.0118 47.5412L89.0221 50.5465C89.6229 50.8468 89.6229 51.7042 89.0221 52.0045L83.6371 54.6972C83.4076 54.812 83.1375 54.812 82.908 54.6972L76.8977 51.6919C76.297 51.3915 76.297 50.5342 76.8977 50.2338L82.2828 47.5412ZM83.0118 116.91C82.7823 117.025 82.5122 117.025 82.2828 116.91L54.3881 102.963C53.7874 102.663 53.7874 101.805 54.3881 101.505L82.2828 87.5577C82.5122 87.4429 82.7824 87.4429 83.0118 87.5577L110.906 101.505C111.507 101.805 111.507 102.663 110.906 102.963L83.0118 116.91Z" fill="white"/>
</svg>
