<svg width="164" height="164" viewBox="0 0 164 164" fill="none" xmlns="http://www.w3.org/2000/svg">
<path d="M107.235 20.9961H56.5753C34.5702 20.9961 21.4517 34.1145 21.4517 56.1197V106.719C21.4517 128.785 34.5702 141.903 56.5753 141.903H107.175C129.18 141.903 142.299 128.785 142.299 106.78V56.1197C142.359 34.1145 129.241 20.9961 107.235 20.9961Z" fill="#FF895B"/>
<path fill-rule="evenodd" clip-rule="evenodd" d="M107.174 74.6635C105.749 75.3672 104.166 75.7576 102.513 75.7576C96.5577 75.7576 91.5085 70.6896 91.5085 64.1578C91.5085 63.2627 91.8446 61.8453 92.6067 59.9523L107.174 74.6635ZM111.974 70.0918C110.837 69.9899 109.705 69.5023 108.764 68.5516L95.1381 54.7908C96.139 53.0042 97.2631 51.1852 98.4106 49.4342C99.7148 47.444 101.023 45.5813 102.169 44.0049H102.857C104.003 45.5813 105.311 47.444 106.615 49.4342C108.462 52.2516 110.247 55.2448 111.557 57.9961C112.933 60.8875 113.517 62.977 113.517 64.1578C113.517 66.3451 112.951 68.3682 111.974 70.0918ZM109.607 78.1636C107.49 79.3305 105.075 79.9912 102.513 79.9912C94.1201 79.9912 87.3163 72.9024 87.3163 64.1578C87.3163 62.1121 88.1481 59.515 89.4224 56.7365L87.37 54.6638C85.3236 52.5972 82.0057 52.5972 79.9592 54.6638L59.0932 75.7365C57.0468 77.8032 57.0468 81.1539 59.0932 83.2207L79.9592 104.293C82.0057 106.36 85.3236 106.36 87.37 104.293L108.236 83.2207C109.593 81.85 110.05 79.9146 109.607 78.1636ZM97.0057 44.0058C95.4558 46.2313 93.7802 48.7714 92.2651 51.354C90.8927 48.1085 93.1221 44.0762 97.0057 44.0058ZM117.636 65.7222C117.685 65.2076 117.71 64.6857 117.71 64.1578V64.8095C117.71 65.1246 117.684 65.4293 117.636 65.7222ZM108.02 44.0049H112.469C115.364 44.0049 117.71 46.3743 117.71 49.297V64.1578C117.71 58.9738 112.369 50.2498 108.02 44.0049ZM48.5386 93.056C48.5386 88.3412 54.1831 85.98 57.4842 89.3139L72.8448 104.827C76.146 108.16 73.808 113.861 69.1394 113.861H53.7789C50.8848 113.861 48.5386 111.491 48.5386 108.569V93.056ZM98.1898 113.861C93.5212 113.861 91.1832 108.16 94.4843 104.827L108.764 90.4055C112.065 87.0717 117.71 89.4328 117.71 94.1476V108.569C117.71 111.491 115.364 113.861 112.469 113.861H98.1898ZM70.2203 44.0049C74.8888 44.0049 77.2268 49.7052 73.9257 53.039L57.4842 69.6433C54.1831 72.9771 48.5386 70.6159 48.5386 65.9012V49.297C48.5386 46.3743 50.8848 44.0049 53.7789 44.0049H70.2203Z" fill="white"/>
<path fill-rule="evenodd" clip-rule="evenodd" d="M107.173 74.6637C105.749 75.3674 104.166 75.7578 102.513 75.7578C96.5576 75.7578 91.5083 70.6898 91.5083 64.1581C91.5083 63.2629 91.8444 61.8455 92.6064 59.9525L107.173 74.6637ZM89.4222 56.7367L85.1467 52.4188C84.328 51.5922 83.0009 51.5922 82.1823 52.4188L56.8698 77.9819C56.0512 78.8087 56.0512 80.1489 56.8698 80.9757L82.1823 106.539C83.0009 107.365 84.328 107.365 85.1467 106.539L110.459 80.9757C111.278 80.1489 111.278 78.8087 110.459 77.9819L110.261 77.7818C107.992 79.1855 105.343 79.9914 102.513 79.9914C94.1199 79.9914 87.3161 72.9025 87.3161 64.1581C87.3161 62.1123 88.1479 59.5152 89.4222 56.7367Z" fill="white"/>
<path fill-rule="evenodd" clip-rule="evenodd" d="M99.8677 40.0352C99.867 40.036 99.8664 40.0369 99.8658 40.0377C99.8664 40.0369 99.867 40.036 99.8677 40.0352ZM113.517 64.158C113.517 70.6897 108.468 75.7577 102.513 75.7577C96.5575 75.7577 91.5084 70.6897 91.5084 64.158C91.5084 62.9771 92.0932 60.8877 93.4691 57.9962C94.7784 55.245 96.5641 52.2517 98.4105 49.4344C99.8469 47.2423 101.288 45.2048 102.513 43.5342C103.737 45.2048 105.179 47.2423 106.615 49.4344C108.462 52.2517 110.247 55.245 111.557 57.9962C112.933 60.8877 113.517 62.9771 113.517 64.158Z" fill="white"/>
</svg>
