<svg width="164" height="164" viewBox="0 0 164 164" fill="none" xmlns="http://www.w3.org/2000/svg">
<path d="M107.6 20.8164H56.9399C34.9348 20.8164 21.8163 33.9348 21.8163 55.94V106.54C21.8163 128.605 34.9348 141.724 56.9399 141.724H107.54C129.545 141.724 142.663 128.605 142.663 106.6V55.94C142.724 33.9348 129.605 20.8164 107.6 20.8164Z" fill="#FF895B"/>
<path fill-rule="evenodd" clip-rule="evenodd" d="M49.355 48.4741C49.355 45.1203 52.0567 42.3918 55.3777 42.3918C58.6987 42.3918 61.4002 45.1203 61.4002 48.4741C61.4002 51.828 58.6987 54.5563 55.3777 54.5563C52.0567 54.5563 49.355 51.828 49.355 48.4741ZM57.0196 63.9561C57.0196 64.8723 56.2842 65.615 55.3771 65.615C54.47 65.615 53.7345 64.8723 53.7345 63.9561C53.7345 63.0401 54.47 62.2974 55.3771 62.2974C56.2842 62.2974 57.0196 63.0401 57.0196 63.9561ZM69.065 54.5563C64.8376 54.5563 61.3998 58.0281 61.3998 62.2974C61.3998 66.5668 64.8376 70.0385 69.065 70.0385C73.2925 70.0385 76.7301 66.5668 76.7301 62.2974C76.7301 58.0281 73.2925 54.5563 69.065 54.5563ZM65.4794 73.3561V81.1715C66.3995 80.8982 67.3732 80.7516 68.3809 80.7516C69.7883 80.7516 71.1295 81.0376 72.3506 81.5552V73.3561H65.4794ZM105.165 80.7516H81.0535C80.3943 80.7516 79.4889 80.8164 78.5002 81.0971H76.7304V73.3818H95.9884V69.3955H94.0879C93.0375 69.3955 92.1874 68.5329 92.1874 67.4667C92.1874 66.4006 93.0375 65.5379 94.0879 65.5379H95.9884V50.1072C95.9884 47.9805 94.2828 46.2495 92.1874 46.2495C90.0922 46.2495 88.3866 47.9805 88.3866 50.1072V52.036C88.3866 53.1022 87.5366 53.9649 86.4861 53.9649C85.4357 53.9649 84.5857 53.1022 84.5857 52.036V50.1072C84.5857 45.8521 87.995 42.3918 92.1874 42.3918C96.38 42.3918 99.7893 45.8521 99.7893 50.1072V73.3818H103.59C105.689 73.3818 107.391 75.1089 107.391 77.2395C107.391 78.7999 106.478 80.144 105.165 80.7516ZM96.7179 108.636C96.4526 108.541 96.2091 108.386 96.0065 108.18L92.106 104.207C90.8167 104.635 89.4586 104.895 88.0475 104.895H61.0342C59.6642 104.895 58.3441 104.65 57.0885 104.244V96.6117C57.7678 96.9055 58.5144 97.0681 59.2977 97.0681H59.9723C61.8291 99.74 64.903 101.487 68.3809 101.487C69.8409 101.487 71.2298 101.179 72.4873 100.624V101.487H96.7526C96.4007 101.804 96.0333 102.101 95.6519 102.376L98.125 104.895H101.122C102.166 104.895 103.011 105.755 103.011 106.819C103.011 107.659 102.485 108.373 101.749 108.636H96.7179ZM78.6181 85.5206H102.671L101.019 93.937C100.987 94.0985 100.952 94.2591 100.915 94.4186H78.1159C78.4602 93.3822 78.6468 92.2727 78.6468 91.1191C78.6468 89.4564 78.2592 87.8852 77.5704 86.4926C77.8778 86.0694 78.2373 85.754 78.6181 85.5206ZM72.3506 86.3626V91.2712C72.3506 92.3714 71.4935 93.2617 70.4344 93.2617H65.4794V85.6306C66.344 85.1635 67.3318 84.8986 68.3809 84.8986C69.8934 84.8986 71.2786 85.4491 72.3506 86.3626ZM58.3128 93.1541C57.7181 92.9418 57.256 92.4344 57.0885 91.7998V75.5678H61.373V83.5429C59.3682 85.435 58.1151 88.1293 58.1151 91.1191C58.1151 91.8156 58.1831 92.4961 58.3128 93.1541ZM52.9821 73.3561V81.0972H45.7048C43.4872 81.0972 41.6897 79.3641 41.6897 77.2266C41.6897 75.089 43.4872 73.3561 45.7048 73.3561H52.9821ZM52.9821 85.5206H46.4112L48.0632 93.937C48.706 97.2095 50.5213 100.095 52.9821 102.038V85.5206ZM52.9821 102.832V108.269C52.6392 108.574 52.1983 108.744 51.7391 108.744H47.9599C46.9154 108.744 46.0702 107.883 46.0702 106.819C46.0702 105.755 46.9154 104.895 47.9599 104.895H50.9567L52.9821 102.832Z" fill="white"/>
<path d="M115.25 84.8987H81.0535C79.3827 84.8987 76.5936 85.4941 76.5936 89.5358V95.7184H119.71V89.5358C119.71 85.5068 116.921 84.8987 115.25 84.8987Z" fill="white"/>
<path d="M67.8402 98.5657H61.3731V75.5679H57.0886V120.148H61.3731V108.636H118.505V120.135H122.79V98.5657H67.8402Z" fill="white"/>
<path d="M68.3811 97.3397C71.7829 97.3397 74.5406 94.5547 74.5406 91.1192C74.5406 87.6837 71.7829 84.8987 68.3811 84.8987C64.9793 84.8987 62.2216 87.6837 62.2216 91.1192C62.2216 94.5547 64.9793 97.3397 68.3811 97.3397Z" fill="white"/>
</svg>
