<svg width="164" height="164" viewBox="0 0 164 164" fill="none" xmlns="http://www.w3.org/2000/svg">
<path d="M106.841 21.0571H56.1806C34.1754 21.0571 21.057 34.1756 21.057 56.1807V106.78C21.057 128.846 34.1754 141.964 56.1806 141.964H106.78C128.785 141.964 141.904 128.846 141.904 106.841V56.1807C141.964 34.1756 128.846 21.0571 106.841 21.0571Z" fill="#FF895B"/>
<path d="M106.841 21.0571H56.1806C34.1754 21.0571 21.057 34.1756 21.057 56.1807V106.78C21.057 128.846 34.1754 141.964 56.1806 141.964H106.78C128.785 141.964 141.904 128.846 141.904 106.841V56.1807C141.964 34.1756 128.846 21.0571 106.841 21.0571Z" fill="#FF895B"/>
<path d="M119.192 46.0826C118.741 45.0688 117.953 44.2239 116.882 43.7733C116.375 43.6043 115.869 43.4917 115.305 43.4917H92.7754C90.4661 43.4917 88.5511 45.4067 88.5511 47.716C88.5511 50.0254 90.4661 51.9404 92.7754 51.9404H105.111L51.9401 105.111V92.7757C51.9401 90.4664 50.0251 88.5514 47.7157 88.5514C45.4064 88.5514 43.4914 90.4664 43.4914 92.7757V115.306C43.4914 115.869 43.604 116.376 43.8293 116.939C44.2799 117.953 45.0685 118.798 46.1386 119.248C46.5892 119.417 47.1525 119.53 47.7157 119.53H70.2456C72.5549 119.53 74.4699 117.615 74.4699 115.306C74.4699 112.996 72.5549 111.081 70.2456 111.081H57.9105L111.081 57.9108V70.2459C111.081 72.5552 112.996 74.4702 115.305 74.4702C117.615 74.4702 119.53 72.5552 119.53 70.2459V47.716C119.53 47.1528 119.417 46.6459 119.192 46.0826Z" fill="white"/>
</svg>
