<svg width="164" height="164" viewBox="0 0 164 164" fill="none" xmlns="http://www.w3.org/2000/svg">
<path d="M107.154 21.1531H56.4942C34.489 21.1531 21.3706 34.2715 21.3706 56.2766V106.876C21.3706 128.942 34.489 142.06 56.4942 142.06H107.094C129.099 142.06 142.217 128.942 142.217 106.937V56.2766C142.278 34.2715 129.159 21.1531 107.154 21.1531Z" fill="#FF895B"/>
<path d="M108.524 77.4467C108.95 78.5533 109.29 79.6594 109.631 80.6809C110.227 82.4685 112.695 82.4685 113.29 80.6809C113.63 79.6598 114.056 78.5533 114.397 77.4467C115.588 74.2125 117.205 71.1486 119.333 68.5103C120.78 66.7228 121.716 64.4253 121.716 61.9569C121.716 56.0844 116.865 51.4035 110.907 51.6586C105.631 51.9139 101.29 56.3397 101.12 61.6162C101.035 64.1695 101.886 66.4676 103.333 68.3393C105.631 71.1485 107.333 74.2125 108.524 77.4467H108.524ZM111.503 56.7657C114.397 56.7657 116.78 59.1487 116.78 62.0422C116.78 64.9357 114.397 67.3187 111.503 67.3187C108.61 67.3187 106.227 64.9357 106.227 62.0422C106.226 59.0631 108.609 56.7657 111.503 56.7657Z" fill="white"/>
<path d="M64.0132 64.4252C67.4172 63.0633 68.9494 59.1487 67.5877 55.8295C66.2258 52.4255 62.3112 50.8933 58.992 52.255C55.6728 53.6169 54.0558 57.5315 55.4175 60.8507C56.8643 64.2547 60.694 65.7869 64.0132 64.4252Z" fill="white"/>
<path d="M54.0557 86.9787L52.524 92.3406L46.5667 100.766C45.6305 102.128 45.6305 104.001 46.822 105.192C47.5029 105.873 48.3536 106.213 49.2898 106.213C50.3109 106.213 51.4174 105.703 52.0135 104.766L58.3965 95.7453C58.6518 95.4051 58.8222 95.0643 58.9071 94.7242L60.0137 90.8089L62.6518 92.7662L65.0348 103.575C65.375 105.192 66.8224 106.213 68.354 106.213C69.1198 106.213 69.9712 105.958 70.6521 105.277C71.5883 104.426 71.8435 103.149 71.5883 101.958L68.9501 90.0431C68.7797 89.1918 68.2692 88.5114 67.5882 88.0003L61.971 83.9154L63.4178 75.7448L65.1198 76.8513C65.4599 77.1066 65.8856 77.277 66.3961 77.277L72.3535 78.0428L77.63 104.766C77.8003 105.447 78.3109 105.873 78.9918 105.873H79.2471C80.0129 105.703 80.5235 105.022 80.3537 104.256L75.1621 77.9577C76.1832 77.5321 76.9497 76.511 76.9497 75.234C76.9497 73.7024 75.6733 72.4255 74.1411 72.255L67.7581 71.4891C67.7581 71.4891 64.5239 69.2765 61.6304 67.4041C57.46 64.7654 53.7151 66.3824 52.6092 69.7871C51.8434 72.0852 51.2473 76.5103 50.7368 80.5959C50.4815 83.2335 51.7579 85.702 54.056 86.9783L54.0557 86.9787Z" fill="white"/>
<path d="M48.6939 81.4467L50.7366 67.9998C50.907 67.1484 50.1406 66.3826 49.2899 66.553L44.0134 67.4043C43.247 67.5741 42.6509 68.1702 42.5661 68.9359L41.3746 78.1275C41.2897 78.8085 41.6299 79.4894 42.2259 79.9151L46.6516 82.4684C47.5023 82.8935 48.5234 82.383 48.6939 81.4467L48.6939 81.4467Z" fill="white"/>
<path d="M113.12 93.4469H94.8221C91.6733 93.4469 89.1199 90.8935 89.1199 87.7447C89.1199 84.5959 91.6733 82.0425 94.8221 82.0425H103.503C104.439 82.0425 105.205 81.2767 105.205 80.3405C105.205 79.4043 104.439 78.6385 103.503 78.6385L94.8221 78.6379C89.8009 78.6379 85.7153 82.7229 85.7153 87.7447C85.7153 92.7659 89.8003 96.8515 94.8221 96.8515H113.12C116.269 96.8515 118.822 99.4048 118.822 102.554C118.822 105.702 116.269 108.256 113.12 108.256L44.2685 108.255C43.3322 108.255 42.5665 109.021 42.5665 109.957C42.5665 110.893 43.3323 111.659 44.2685 111.659H113.12C118.141 111.659 122.227 107.574 122.227 102.552C122.227 97.5319 118.142 93.4469 113.12 93.4469V93.4469Z" fill="white"/>
</svg>
