<svg width="164" height="164" viewBox="0 0 164 164" fill="none" xmlns="http://www.w3.org/2000/svg">
<path d="M107.425 21.0566H56.7644C34.7593 21.0566 21.6408 34.1751 21.6408 56.1802V106.78C21.6408 128.845 34.7593 141.964 56.7644 141.964H107.364C129.369 141.964 142.488 128.845 142.488 106.84V56.1802C142.548 34.1751 129.43 21.0566 107.425 21.0566Z" fill="#FF895B"/>
<path d="M57.5027 71.365C58.641 84.0401 69.2221 94.0036 82.0644 94.0036C94.9066 94.0036 105.488 84.0401 106.626 71.365H57.5027Z" fill="white"/>
<path d="M99.0589 117.169L94.9495 95.5045C93.5891 96.1843 92.1699 96.7616 90.7006 97.2227L91.8556 103.311H72.2714L73.4257 97.2221C71.9561 96.7608 70.537 96.1834 69.1767 95.5037L65.0696 117.169C64.8362 118.4 65.6349 119.589 66.8536 119.824C66.9963 119.852 67.1384 119.865 67.2785 119.865C68.3348 119.865 69.2765 119.109 69.4826 118.023L71.4112 107.849H92.7164L94.6461 118.023C94.8522 119.109 95.7937 119.865 96.85 119.865C96.9903 119.865 97.1325 119.852 97.2752 119.824C98.4937 119.588 99.2923 118.4 99.0589 117.169Z" fill="white"/>
<path d="M73.4399 54.8718C73.9668 54.3247 75.2407 52.8242 75.6902 50.7134C76.0614 48.9702 75.9665 46.3573 73.4065 43.8088C72.5231 42.9292 71.1005 42.9394 70.2295 43.8319C69.3585 44.7241 69.3688 46.1607 70.2523 47.0404C71.4534 48.2361 71.4241 49.1646 71.2975 49.7594C71.0818 50.772 70.361 51.5602 70.2188 51.7079C69.6919 52.2552 68.418 53.7555 67.9686 55.8663C67.5974 57.6096 67.6924 60.2226 70.2521 62.7709C70.6899 63.2065 71.2596 63.4238 71.8293 63.4238C72.4097 63.4238 72.9897 63.1982 73.4292 62.7478C74.3003 61.8555 74.2899 60.419 73.4065 59.5393C72.2053 58.3436 72.2348 57.4149 72.3613 56.8201C72.577 55.8079 73.2976 55.0198 73.4399 54.8718Z" fill="white"/>
<path d="M83.6747 54.8718C84.2017 54.3247 85.4756 52.8242 85.9251 50.7134C86.2963 48.9702 86.2013 46.3573 83.6414 43.8088C82.7579 42.9292 81.3355 42.9394 80.4644 43.8319C79.5934 44.7241 79.6036 46.1607 80.4872 47.0404C81.6884 48.2361 81.6591 49.1646 81.5324 49.7594C81.3168 50.772 80.5961 51.5602 80.4539 51.7079C79.9269 52.2552 78.653 53.7555 78.2036 55.8663C77.8324 57.6096 77.9273 60.2226 80.4872 62.7709C80.925 63.2065 81.4947 63.4238 82.0643 63.4238C82.6446 63.4238 83.2248 63.1982 83.6641 62.7478C84.5352 61.8555 84.525 60.419 83.6414 59.5393C82.4401 58.3436 82.4697 57.4149 82.5962 56.8201C82.8119 55.8079 83.5325 55.0198 83.6747 54.8718Z" fill="white"/>
<path d="M93.9098 54.8718C94.4368 54.3247 95.7107 52.8242 96.1603 50.7134C96.5314 48.9702 96.4365 46.3573 93.8765 43.8088C92.9932 42.9292 91.5705 42.9394 90.6995 43.8319C89.8285 44.7241 89.8387 46.1607 90.7223 47.0404C91.9234 48.2361 91.894 49.1646 91.7675 49.7594C91.5518 50.772 90.8311 51.5602 90.6888 51.7079C90.1618 52.2552 88.8879 53.7555 88.4386 55.8663C88.0674 57.6096 88.1624 60.2226 90.7222 62.7709C91.16 63.2065 91.7297 63.4238 92.2994 63.4238C92.8796 63.4238 93.4598 63.1982 93.8992 62.7478C94.7703 61.8555 94.7599 60.419 93.8763 59.5393C92.6752 58.3436 92.7047 57.4149 92.8312 56.8201C93.0471 55.8079 93.7676 55.0198 93.9098 54.8718Z" fill="white"/>
</svg>
