<svg width="164" height="164" viewBox="0 0 164 164" fill="none" xmlns="http://www.w3.org/2000/svg">
<path d="M107.33 20.1919H56.6699C34.6647 20.1919 21.5463 33.3103 21.5463 55.3155V105.915C21.5463 127.981 34.6647 141.099 56.6699 141.099H107.27C129.275 141.099 142.393 127.981 142.393 105.976V55.3155C142.454 33.3103 129.335 20.1919 107.33 20.1919Z" fill="#FF895B"/>
<path d="M98.426 50.0615H65.5138C55.6401 50.0615 49.0577 56.6962 49.0577 66.6482V86.5523C49.0577 96.5043 55.6401 103.139 65.5138 103.139V110.205C65.5138 112.859 68.443 114.451 70.6152 112.958L85.2611 103.139H98.426C108.3 103.139 114.882 96.5043 114.882 86.5523V66.6482C114.882 56.6962 108.3 50.0615 98.426 50.0615Z" fill="white"/>
</svg>
