<svg width="164" height="164" viewBox="0 0 164 164" fill="none" xmlns="http://www.w3.org/2000/svg">
<path d="M107.322 21.8835H56.6621C34.657 21.8835 21.5386 35.002 21.5386 57.0071V107.607C21.5386 129.672 34.657 142.791 56.6621 142.791H107.262C129.267 142.791 142.385 129.672 142.385 107.667V57.0071C142.446 35.002 129.327 21.8835 107.322 21.8835Z" fill="#FF895B"/>
<path d="M89.1244 103.79H71.4973C70.8128 105.718 69.5481 107.388 67.8768 108.569C66.2056 109.75 64.21 110.385 62.1635 110.388C59.8714 110.386 57.6504 109.59 55.8789 108.135C54.1378 106.702 52.9367 104.719 52.4732 102.512L45.0198 101.02C44.273 100.869 43.6008 100.464 43.1174 99.874C42.6345 99.2845 42.3693 98.5461 42.3676 97.7834V64.1988C42.3733 62.4494 43.068 60.7728 44.3013 59.532C45.5417 58.2991 47.2182 57.6044 48.9677 57.5987H62.1649C62.1649 56.5138 63.6015 55.672 64.4583 55.2664C65.6032 54.7091 66.8454 54.3795 68.1158 54.2964H97.8112C98.1324 54.2527 98.4559 54.3534 98.6954 54.5713C98.9296 54.862 98.8209 55.3618 98.6822 55.9946V55.9999C98.5505 56.5209 98.4762 57.0543 98.4603 57.5916H111.659C114.286 57.5841 116.806 58.6283 118.658 60.4913C120.52 62.3437 121.564 64.8638 121.557 67.4905V100.489C121.556 101.364 121.208 102.203 120.59 102.821C119.972 103.44 119.133 103.788 118.258 103.79H107.793C107.108 105.718 105.843 107.387 104.172 108.569C102.501 109.75 100.505 110.385 98.4583 110.388C96.4119 110.386 94.4159 109.75 92.7446 108.569C91.0734 107.388 89.8086 105.718 89.1237 103.79L89.1244 103.79ZM91.7696 100.489C91.7714 102.25 92.4722 103.939 93.718 105.185C94.9632 106.431 96.6522 107.131 98.414 107.134C100.175 107.131 101.864 106.431 103.11 105.185C104.356 103.939 105.057 102.251 105.058 100.489C105.057 98.7273 104.356 97.0384 103.11 95.7926C101.864 94.5469 100.175 93.8465 98.414 93.8447C96.6522 93.8465 94.9632 94.5469 93.718 95.7926C92.4722 97.0384 91.7714 98.7272 91.7696 100.489ZM55.5198 100.489C55.5216 102.25 56.2224 103.939 57.4682 105.185C58.7134 106.431 60.4024 107.131 62.1642 107.134C63.926 107.131 65.615 106.431 66.8603 105.185C68.106 103.939 68.8068 102.251 68.8086 100.489C68.8068 98.7273 68.106 97.0384 66.8603 95.7926C65.615 94.5469 63.926 93.8465 62.1642 93.8447C60.4024 93.8465 58.7134 94.5469 57.4682 95.7926C56.2224 97.0384 55.5216 98.7272 55.5198 100.489ZM95.16 84.2285C100.187 84.2285 103.764 84.6704 106.759 85.6722C109.853 86.7337 112.66 88.4986 114.957 90.8278V69.144C114.957 67.8312 114.436 66.5717 113.507 65.6429C112.579 64.7145 111.319 64.1931 110.006 64.1931H95.157L95.16 84.2285ZM75.3631 84.2285H91.859V64.1997H75.3631V84.2285ZM64.4076 84.2285H72.0634V64.1997H64.4076V84.2285ZM94.2477 100.489C94.2482 99.384 94.6874 98.3238 95.4691 97.5426C96.2509 96.7613 97.3105 96.3221 98.4157 96.3221C99.5209 96.3225 100.58 96.7617 101.362 97.543C102.143 98.3243 102.582 99.3839 102.583 100.489C102.582 101.594 102.144 102.654 101.362 103.436C100.581 104.217 99.5209 104.656 98.4157 104.657C97.3105 104.657 96.2504 104.217 95.4687 103.436C94.6874 102.654 94.2482 101.594 94.2477 100.489ZM57.9979 100.489C57.9984 99.384 58.4376 98.3238 59.2193 97.5426C60.0011 96.7613 61.0607 96.3221 62.1659 96.3221C63.2711 96.3225 64.3303 96.7617 65.112 97.543C65.8933 98.3243 66.3325 99.3839 66.333 100.489C66.3325 101.594 65.8937 102.654 65.112 103.436C64.3308 104.217 63.2711 104.656 62.1659 104.657C61.0607 104.657 60.0006 104.217 59.2189 103.436C58.4376 102.654 57.9984 101.594 57.9979 100.489Z" fill="white"/>
</svg>
