<svg width="164" height="164" viewBox="0 0 164 164" fill="none" xmlns="http://www.w3.org/2000/svg">
<path d="M107.519 21.2446H56.8588C34.8537 21.2446 21.7352 34.3631 21.7352 56.3682V106.968C21.7352 129.033 34.8537 142.152 56.8588 142.152H107.458C129.464 142.152 142.582 129.033 142.582 107.028V56.3682C142.643 34.3631 129.524 21.2446 107.519 21.2446Z" fill="#FF895B"/>
<path d="M59.5723 70.1412C60.8198 70.1412 61.8309 69.1199 61.8309 67.8602C61.8309 66.6004 60.8198 65.5791 59.5723 65.5791C58.3249 65.5791 57.3137 66.6004 57.3137 67.8602C57.3137 69.1199 58.3249 70.1412 59.5723 70.1412Z" fill="white"/>
<path d="M59.5723 42.769C55.8359 42.769 52.7964 45.8387 52.7964 49.6121C52.7964 53.3855 55.8359 56.4551 59.5723 56.4551C63.3087 56.4551 66.3483 53.3855 66.3483 49.6121C66.3483 45.8387 63.3087 42.769 59.5723 42.769Z" fill="white"/>
<path d="M75.3828 56.4551C70.4001 56.4551 66.3483 60.5471 66.3483 65.5791C66.3483 70.6112 70.4001 74.7032 75.3828 74.7032C80.3656 74.7032 84.4174 70.6112 84.4174 65.5791C84.4174 60.5471 80.3656 56.4551 75.3828 56.4551Z" fill="white"/>
<path d="M61.6805 79.4172V99.9464C61.6805 101.207 62.6908 102.227 63.9392 102.227H77.491C78.7395 102.227 79.7497 101.207 79.7497 99.9464V79.4172H61.6805Z" fill="white"/>
<path d="M116.189 79.4172H111.672V51.893C111.672 46.861 107.62 42.769 102.637 42.769C97.6543 42.769 93.6024 46.861 93.6024 51.893V54.1741C93.6024 55.4349 94.6126 56.4551 95.8611 56.4551C97.1095 56.4551 98.1197 55.4349 98.1197 54.1741V51.893C98.1197 49.3782 100.147 47.331 102.637 47.331C105.127 47.331 107.154 49.3782 107.154 51.893V70.1412H104.896C103.647 70.1412 102.637 71.1614 102.637 72.4222C102.637 73.6829 103.647 74.7032 104.896 74.7032H107.154V79.4172H84.2667V88.5413H116.189C118.684 88.5413 120.706 86.4986 120.706 83.9793C120.706 81.4597 118.684 79.4172 116.189 79.4172Z" fill="white"/>
<path d="M48.1286 79.4172C45.6338 79.4172 43.6113 81.4597 43.6113 83.9793C43.6113 86.4986 45.6338 88.5413 48.1286 88.5413H57.1632V79.4172H48.1286Z" fill="white"/>
<path d="M113.93 116.065H110.348L107.392 113.08C110.604 110.783 112.993 107.188 113.807 103.078L115.781 93.1033H84.2666V99.9463C84.2666 103.72 81.2271 106.789 77.4906 106.789H63.9388C60.2023 106.789 57.1629 103.72 57.1629 99.9463V93.1033H48.5357L50.5104 103.078C51.3245 107.188 53.7126 110.783 56.9248 113.08L53.969 116.065H50.3869C49.1385 116.065 48.1282 117.086 48.1282 118.346C48.1282 119.607 49.1385 120.627 50.3869 120.627H54.9042C55.5041 120.627 56.0777 120.387 56.5011 119.959L61.1634 115.251C62.7044 115.758 64.3277 116.065 66.0143 116.065H98.3028C99.9893 116.065 101.613 115.758 103.154 115.251L107.816 119.959C108.239 120.387 108.813 120.627 109.413 120.627H113.93C115.179 120.627 116.189 119.607 116.189 118.346C116.189 117.086 115.179 116.065 113.93 116.065Z" fill="white"/>
</svg>
