<svg width="165" height="164" viewBox="0 0 165 164" fill="none" xmlns="http://www.w3.org/2000/svg">
<path d="M107.86 19.9529H57.1997C35.1945 19.9529 22.0761 33.0713 22.0761 55.0765V105.676C22.0761 127.742 35.1945 140.86 57.1997 140.86H107.799C129.804 140.86 142.923 127.742 142.923 105.737V55.0765C142.983 33.0713 129.865 19.9529 107.86 19.9529Z" fill="#FF895B"/>
<path d="M114.05 51.9079L112.155 50.0105C105.154 43.0064 95.4934 39.6267 85.6466 40.7259C75.8021 41.8309 67.1314 47.2698 61.8517 55.651L58.6279 60.7723C51.9363 71.3978 52.0408 84.4872 58.3236 94.7915C58.3261 94.7972 58.3319 94.8029 58.335 94.8086C58.5905 95.229 58.8606 95.641 59.1357 96.05L43.3014 111.884C42.1171 113.068 41.4635 114.645 41.4635 116.321C41.4635 117.996 42.1139 119.573 43.2983 120.76C44.5225 121.984 46.1272 122.595 47.7349 122.595C49.3427 122.595 50.9473 121.984 52.1716 120.76L67.9979 104.934C68.4296 105.226 68.881 105.482 69.3242 105.749C69.3609 105.769 69.3926 105.795 69.4319 105.812C74.4988 108.863 80.2167 110.456 85.9931 110.456C91.938 110.456 97.9279 108.805 103.29 105.428L108.408 102.204C116.789 96.9272 122.229 88.2532 123.33 78.4116C124.435 68.5704 121.05 58.9115 114.049 51.9068L114.05 51.9079ZM73.179 87.8682L64.7007 96.3432C64.0046 95.5368 63.3656 94.6987 62.7754 93.8353L69.2028 85.3774C70.5944 86.0393 71.9347 86.8628 73.1792 87.8684L73.179 87.8682ZM74.2352 103.575L80.0863 99.0934C80.5206 101.277 80.5295 103.467 80.0521 105.529C78.0582 105.094 76.1067 104.443 74.2352 103.575H74.2352ZM70.2189 101.28C69.3554 100.689 68.5205 100.05 67.714 99.3545L76.1923 90.8795C77.1889 92.112 78.0042 93.4383 78.6604 94.8159L70.2189 101.28ZM60.4802 89.8163C59.611 87.9473 58.9637 85.999 58.5289 84.0109C60.5799 83.5367 62.7524 83.5392 64.9252 83.9684L60.4802 89.8163ZM49.1617 117.744C48.3781 118.528 47.1 118.526 46.3158 117.744C45.9353 117.364 45.7249 116.856 45.7249 116.319C45.7249 115.782 45.9354 115.276 46.3158 114.896L61.7103 99.5018L64.5563 102.35L49.1617 117.744ZM119.1 77.9426C118.143 86.4885 113.42 94.0183 106.14 98.6031L101.025 101.827C95.8589 105.079 90.0218 106.462 84.3131 106.116C85.086 102.483 84.7221 98.6373 83.3818 94.985C83.3704 94.9393 83.3507 94.8969 83.3362 94.8512C82.1772 91.7523 80.3342 88.7986 77.8002 86.2653C75.2497 83.7174 72.2757 81.8687 69.1603 80.7099C69.1121 80.6959 69.0697 80.6756 69.0208 80.6642C65.3824 79.3405 61.5594 78.983 57.9464 79.7526C57.5996 74.0436 58.9861 68.2072 62.2378 63.044L65.4616 57.9234C70.0459 50.644 77.5783 45.921 86.1241 44.9636C87.1892 44.8444 88.2486 44.7848 89.3055 44.7848C96.7271 44.7848 103.819 47.6985 109.145 53.024L111.04 54.9214C117.118 61.0043 120.057 69.3945 119.1 77.9433L119.1 77.9426Z" fill="white"/>
</svg>
