<svg width="164" height="164" viewBox="0 0 164 164" fill="none" xmlns="http://www.w3.org/2000/svg">
<path d="M107.14 21.0566H56.48C34.4749 21.0566 21.3565 34.1751 21.3565 56.1802V106.78C21.3565 128.845 34.4749 141.964 56.48 141.964H107.08C129.085 141.964 142.203 128.845 142.203 106.84V56.1802C142.264 34.1751 129.145 21.0566 107.14 21.0566Z" fill="#FF895B"/>
<path d="M65.5582 67.6483C65.5582 66.2563 66.6755 65.1279 68.0539 65.1279H98.5564C99.9348 65.1279 101.052 66.2563 101.052 67.6483V98.4528C101.052 99.8448 99.9348 100.973 98.5564 100.973H68.0539C66.6755 100.973 65.5582 99.8448 65.5582 98.4528V67.6483Z" fill="white"/>
<path d="M67.7768 43.0749C67.7768 42.0309 66.9388 41.1846 65.905 41.1846C64.8713 41.1846 64.0333 42.0309 64.0333 43.0749V119.946C64.0333 120.99 64.8713 121.837 65.905 121.837C66.9388 121.837 67.7768 120.99 67.7768 119.946V43.0749Z" fill="white"/>
<path d="M101.496 43.0749C101.496 42.0309 100.658 41.1846 99.6241 41.1846C98.5903 41.1846 97.7523 42.0309 97.7523 43.0749V119.946C97.7523 120.99 98.5903 121.837 99.6241 121.837C100.658 121.837 101.496 120.99 101.496 119.946V43.0749Z" fill="white"/>
<path d="M119.839 67.3684C120.873 67.3684 121.711 66.5221 121.711 65.4782C121.711 64.4342 120.873 63.5879 119.839 63.5879L43.7212 63.5879C42.6875 63.5879 41.8495 64.4342 41.8495 65.4782C41.8495 66.5221 42.6875 67.3684 43.7212 67.3684H119.839Z" fill="white"/>
<path d="M119.839 101.421C120.873 101.421 121.711 100.575 121.711 99.5311C121.711 98.4872 120.873 97.6409 119.839 97.6409H43.7212C42.6875 97.6409 41.8495 98.4872 41.8495 99.5311C41.8495 100.575 42.6875 101.421 43.7212 101.421H119.839Z" fill="white"/>
</svg>
