<svg width="164" height="164" viewBox="0 0 164 164" fill="none" xmlns="http://www.w3.org/2000/svg">
<path d="M106.871 20.8582H56.2104C34.2053 20.8582 21.0869 33.9766 21.0869 55.9817V106.581C21.0869 128.647 34.2053 141.765 56.2104 141.765H106.81C128.815 141.765 141.934 128.647 141.934 106.642V55.9817C141.994 33.9766 128.876 20.8582 106.871 20.8582Z" fill="#FF895B"/>
<path d="M114.638 105.423C113.534 103.367 111.193 102.22 108.049 102.22C105.674 102.22 103.633 103.198 102.429 104.884C101.225 106.569 100.957 108.828 101.693 111.087C103.132 115.47 105.64 116.448 107.012 116.616C107.213 116.65 107.413 116.65 107.647 116.65C109.119 116.65 111.394 116.01 113.601 112.672C115.374 110.076 115.709 107.48 114.638 105.423Z" fill="white"/>
<path fill-rule="evenodd" clip-rule="evenodd" d="M108.048 78.6538C108.048 95.4306 94.5553 109.031 77.9107 109.031C61.266 109.031 47.7729 95.4306 47.7729 78.6538C47.7729 61.8771 61.266 48.2769 77.9107 48.2769C94.5553 48.2769 108.048 61.8771 108.048 78.6538ZM81.2221 77.676L84.5671 78.856C86.7413 79.5977 89.5845 81.1823 89.5845 86.1384C89.5845 90.3865 86.2729 93.8254 82.2256 93.8254H81.2221V94.6682C81.2221 96.0505 80.0849 97.1968 78.7134 97.1968C77.342 97.1968 76.2047 96.0505 76.2047 94.6682V93.8254H75.9372C71.455 93.8254 67.8424 90.0493 67.8424 85.3967C67.8424 84.0144 68.9797 82.8681 70.3511 82.8681C71.7225 82.8681 72.8598 84.0144 72.8598 85.3967C72.8598 87.251 74.2313 88.7681 75.9372 88.7681H76.2047V81.2835L72.8598 80.1035C70.6856 79.328 67.8424 77.7434 67.8424 72.8211C67.8424 68.573 71.154 65.1341 75.2013 65.1341H76.2047V64.2912C76.2047 62.9089 77.342 61.7626 78.7134 61.7626C80.0849 61.7626 81.2221 62.9089 81.2221 64.2912V65.1341H81.4897C85.9719 65.1341 89.5845 68.9102 89.5845 73.5628C89.5845 74.9451 88.4472 76.0914 87.0758 76.0914C85.7043 76.0914 84.5671 74.9451 84.5671 73.5628C84.5671 71.7085 83.1956 70.1913 81.4897 70.1913H81.2221V77.676ZM72.8598 72.7873C72.8598 74.6417 73.3615 74.8777 74.4988 75.2823L76.2047 75.8554V70.1576H75.2013C73.9302 70.1576 72.8598 71.3376 72.8598 72.7873ZM81.2221 88.7344H82.2256C83.4966 88.7344 84.5671 87.5544 84.5671 86.1384C84.5671 84.2841 84.0654 84.0481 82.9281 83.6435L81.2221 83.0366V88.7344Z" fill="white"/>
</svg>
