<svg width="164" height="164" viewBox="0 0 164 164" fill="none" xmlns="http://www.w3.org/2000/svg">
<path d="M107.14 21.2002H56.48C34.4749 21.2002 21.3565 34.3186 21.3565 56.3238V106.923C21.3565 128.989 34.4749 142.107 56.48 142.107H107.08C129.085 142.107 142.203 128.989 142.203 106.984V56.3238C142.264 34.3186 129.145 21.2002 107.14 21.2002Z" fill="#FF895B"/>
<path d="M91.8643 106.1C89.4935 107.688 86.4407 107.688 84.0699 106.1C78.9223 102.646 72.2645 102.646 67.1169 106.1C64.7461 107.688 61.6933 107.688 59.3225 106.1C54.1749 102.646 47.5172 102.646 42.3696 106.1C40.4697 107.377 39.9663 109.963 41.2329 111.862C42.4995 113.778 45.0489 114.285 46.9488 113.008C49.3196 111.42 52.3724 111.42 54.7433 113.008C59.8908 116.462 66.5486 116.462 71.6962 113.008C74.067 111.42 77.1198 111.42 79.4906 113.008C82.0563 114.743 85.0117 115.595 87.9671 115.595C90.9225 115.595 93.8616 114.727 96.4435 113.008C98.8143 111.42 101.867 111.42 104.238 113.008C106.138 114.285 108.704 113.761 109.954 111.862C111.22 109.947 110.701 107.377 108.817 106.1C103.67 102.629 97.0119 102.629 91.8643 106.1Z" fill="white"/>
<path d="M121.191 87.2085C116.043 83.7544 109.386 83.7544 104.238 87.2085C101.867 88.7964 98.8143 88.7964 96.4435 87.2085C91.2959 83.7544 84.6382 83.7544 79.4906 87.2085C77.1198 88.7964 74.0669 88.7964 71.6961 87.2085C66.5486 83.7544 59.8908 83.7544 54.7432 87.2085C52.8433 88.4854 52.3399 91.0719 53.6065 92.9708C54.8569 94.8862 57.4226 95.3936 59.3225 94.1168C61.6933 92.5288 64.7461 92.5288 67.1169 94.1168C72.2645 97.5709 78.9222 97.5709 84.0698 94.1168C86.4406 92.5288 89.4935 92.5288 91.8643 94.1168C94.4299 95.852 97.3853 96.7033 100.341 96.7033C103.296 96.7033 106.235 95.8356 108.817 94.1168C111.188 92.5288 114.241 92.5288 116.612 94.1168C118.512 95.3936 121.061 94.8698 122.328 92.9708C123.594 91.0555 123.091 88.469 121.191 87.2085Z" fill="white"/>
<path d="M99.2673 65.7204C103.823 65.7204 107.516 61.9971 107.516 57.4043C107.516 52.8114 103.823 49.0881 99.2673 49.0881C94.7114 49.0881 91.0182 52.8114 91.0182 57.4043C91.0182 61.9971 94.7114 65.7204 99.2673 65.7204Z" fill="white"/>
<path d="M60.3419 56.9592H72.066L80.0229 65.2753L66.6424 78.7644C66.139 79.2719 66.4638 80.0904 67.162 80.1559C70.5721 80.4833 73.8685 81.5474 76.8401 83.3318C77.0837 83.4791 77.376 83.4791 77.6196 83.3318C80.8997 81.3837 84.5696 80.3033 88.3532 80.0904C88.548 80.0741 88.7267 80.0086 88.8566 79.8613L96.3425 72.3145C96.9758 71.6761 96.992 70.6284 96.3587 69.9736L76.7914 49.92C76.012 49.1014 74.9402 48.6431 73.8198 48.6431H60.3419C59.4325 48.6431 58.6856 49.3797 58.6856 50.3128V55.3058C58.7018 56.2225 59.4325 56.9592 60.3419 56.9592Z" fill="white"/>
</svg>
