<svg width="164" height="164" viewBox="0 0 164 164" fill="none" xmlns="http://www.w3.org/2000/svg">
<path d="M109.964 21.0044H59.3041C37.299 21.0044 24.1805 34.1228 24.1805 56.128V106.728C24.1805 128.793 37.299 141.912 59.3041 141.912H109.904C131.909 141.912 145.027 128.793 145.027 106.788V56.128C145.088 34.1228 131.969 21.0044 109.964 21.0044Z" fill="#FF895B"/>
<path d="M70.5151 98.5901C71.5813 98.3043 72.7068 98.7683 73.2618 99.7225L74.7592 102.297C76.0151 104.455 79.3182 103.545 79.3182 101.047C79.3182 99.7024 78.2261 98.6238 76.897 98.4203C68.9256 97.2001 62.836 90.2934 62.836 81.9792C62.836 73.6646 68.9693 66.7577 76.949 65.538C78.2782 65.3348 79.3703 64.2614 79.3703 62.9168V62.2702C79.3703 59.7435 76.0055 58.8763 74.7843 61.0882L73.4363 63.5296C72.8929 64.5137 71.7486 65.0006 70.6627 64.7096L63.6043 62.8184C61.786 62.3312 60.1222 63.9949 60.6094 65.8132L62.4983 72.8634C62.7847 73.9325 62.3174 75.0606 61.3589 75.614L54.3625 79.6533C52.7323 80.5945 52.7322 82.9475 54.3624 83.8887L61.4116 87.9585C62.37 88.5119 62.8373 89.64 62.5509 90.709L60.7562 97.4081C60.2691 99.2265 61.933 100.89 63.7513 100.403L70.5151 98.5901Z" fill="white"/>
<path d="M79.3702 96.1647V67.7937C71.5935 67.85 65.2824 74.1892 65.2824 81.9793C65.2825 89.7693 71.5937 96.1085 79.3702 96.1647Z" fill="white"/>
<path d="M87.9334 113.876C87.9334 114.889 88.7555 115.711 89.7684 115.711H106.895C107.908 115.711 108.73 114.889 108.73 113.876V112.041H87.9334V113.876Z" fill="white"/>
<path d="M95.2731 53.3218H101.39H105.624C105.97 53.3218 106.283 53.0791 106.283 52.7322V52.687C106.283 51.0111 104.8 49.6519 102.97 49.6519H102.205C101.755 49.6519 101.39 49.287 101.39 48.8368V48.0204C101.39 47.5703 101.025 47.2053 100.575 47.2053H96.0882C95.6381 47.2053 95.2731 47.5703 95.2731 48.0204V48.8368C95.2731 49.287 94.9082 49.6519 94.458 49.6519H93.5776C91.7487 49.6519 90.3799 51.0111 90.3799 52.687V52.7323C90.3799 53.0774 90.6884 53.3219 91.0335 53.3219L95.2731 53.3218Z" fill="white"/>
<path d="M110.187 55.7686H109.953H102.97H93.5776H86.4764C84.9057 55.7686 83.2591 56.374 82.4089 57.502C82.048 57.979 81.8167 58.5406 81.8167 59.2048V65.5269V66.7624V67.9992V95.9617V97.1985V98.4341V104.937C81.8167 105.149 81.8571 105.363 81.8988 105.576C82.294 107.608 84.4531 109.594 86.4765 109.594H88.046H108.617H110.187C112.423 109.594 113.623 107.171 113.623 104.935V59.2048C113.623 56.9685 112.423 55.7686 110.187 55.7686ZM100.427 77.788H105.309L103.795 79.7319L96.8489 88.6522L95.9864 89.7593L94.1784 92.08L97.1865 81.458H96.0855H94.8623H93.639H90.1306L93.0201 77.7477L93.9072 76.6088L94.7867 75.4784L97.1526 72.4397L101.26 67.1648L98.5578 76.7091L98.2532 77.788H100.427Z" fill="white"/>
</svg>
