<svg width="164" height="164" viewBox="0 0 164 164" fill="none" xmlns="http://www.w3.org/2000/svg">
<path d="M107.841 21.1531H57.1811C35.176 21.1531 22.0575 34.2715 22.0575 56.2766V106.876C22.0575 128.942 35.176 142.06 57.1811 142.06H107.781C129.786 142.06 142.904 128.942 142.904 106.937V56.2766C142.965 34.2715 129.846 21.1531 107.841 21.1531Z" fill="#FF895B"/>
<path d="M108.875 62.5105H56.0876C55.2174 62.5105 54.5119 63.223 54.5119 64.1018V68.8758C54.5119 69.7547 55.2174 70.4672 56.0876 70.4672H108.875C109.745 70.4672 110.451 69.7547 110.451 68.8758V64.1018C110.451 63.223 109.745 62.5105 108.875 62.5105Z" fill="white"/>
<path d="M77.3601 45.0059H60.027C59.1568 45.0059 58.4513 45.7183 58.4513 46.5972C58.4513 47.4761 59.1568 48.1885 60.027 48.1885H77.3601C78.2304 48.1885 78.9359 47.4761 78.9359 46.5972C78.9359 45.7183 78.2304 45.0059 77.3601 45.0059Z" fill="white"/>
<path fill-rule="evenodd" clip-rule="evenodd" d="M77.3601 48.9841H60.027V61.7148H65.5421V53.7581C65.5421 53.3187 65.8948 52.9625 66.3299 52.9625H71.845C72.2801 52.9625 72.6329 53.3187 72.6329 53.7581V61.7148H77.3601V48.9841Z" fill="white"/>
<path fill-rule="evenodd" clip-rule="evenodd" d="M57.6633 72.0586C57.6633 71.6192 58.016 71.2629 58.4511 71.2629H106.511C106.946 71.2629 107.299 71.6192 107.299 72.0586V117.412C107.299 117.851 106.946 118.207 106.511 118.207H58.4511C58.016 118.207 57.6633 117.851 57.6633 117.412V72.0586ZM63.1783 78.424C63.1783 77.9845 63.5311 77.6283 63.9662 77.6283H71.057C71.4922 77.6283 71.8449 77.9845 71.8449 78.424V91.1547C71.8449 91.5941 71.4922 91.9503 71.057 91.9503H63.9662C63.5311 91.9503 63.1783 91.5941 63.1783 91.1547V78.424ZM63.9662 97.52C63.5311 97.52 63.1783 97.8762 63.1783 98.3157V110.251C63.1783 110.69 63.5311 111.046 63.9662 111.046H71.057C71.4922 111.046 71.8449 110.69 71.8449 110.251V98.3157C71.8449 97.8762 71.4922 97.52 71.057 97.52H63.9662ZM78.1478 78.424C78.1478 77.9845 78.5006 77.6283 78.9357 77.6283H86.0265C86.4616 77.6283 86.8144 77.9845 86.8144 78.424V91.1547C86.8144 91.5941 86.4616 91.9503 86.0265 91.9503H78.9357C78.5006 91.9503 78.1478 91.5941 78.1478 91.1547V78.424ZM78.9357 97.52C78.5006 97.52 78.1478 97.8762 78.1478 98.3157V110.251C78.1478 110.69 78.5006 111.046 78.9357 111.046H86.0265C86.4616 111.046 86.8144 110.69 86.8144 110.251V98.3157C86.8144 97.8762 86.4616 97.52 86.0265 97.52H78.9357ZM93.1173 78.424C93.1173 77.9845 93.47 77.6283 93.9052 77.6283H100.996C101.431 77.6283 101.784 77.9845 101.784 78.424V91.1547C101.784 91.5941 101.431 91.9503 100.996 91.9503H93.9052C93.47 91.9503 93.1173 91.5941 93.1173 91.1547V78.424ZM93.9052 97.52C93.47 97.52 93.1173 97.8762 93.1173 98.3157V110.251C93.1173 110.69 93.47 111.046 93.9052 111.046H100.996C101.431 111.046 101.784 110.69 101.784 110.251V98.3157C101.784 97.8762 101.431 97.52 100.996 97.52H93.9052Z" fill="white"/>
</svg>
