<svg width="164" height="164" viewBox="0 0 164 164" fill="none" xmlns="http://www.w3.org/2000/svg">
<path d="M106.871 21.6284H56.2105C34.2054 21.6284 21.087 34.7469 21.087 56.752V107.352C21.087 129.417 34.2054 142.536 56.2105 142.536H106.81C128.815 142.536 141.934 129.417 141.934 107.412V56.752C141.994 34.7469 128.876 21.6284 106.871 21.6284Z" fill="#FF895B"/>
<path d="M110.461 52.1865C110.461 50.8196 109.354 49.7124 107.987 49.7124H54.5591C53.1922 49.7124 52.085 50.8196 52.085 52.1865V62.2488H110.461V52.1865H110.461ZM58.4386 58.9905C56.6448 58.9905 55.1912 57.5369 55.1912 55.743C55.1912 53.9492 56.6448 52.4956 58.4386 52.4956C60.2325 52.4956 61.686 53.9492 61.686 55.743C61.686 57.5369 60.2322 58.9905 58.4386 58.9905ZM83.18 58.9905C81.3862 58.9905 79.9326 57.5369 79.9326 55.743C79.9326 53.9492 81.3862 52.4956 83.18 52.4956C84.9738 52.4956 86.4274 53.9492 86.4274 55.743C86.4274 57.5369 84.9736 58.9905 83.18 58.9905ZM93.0765 58.9905C91.2826 58.9905 89.8291 57.5369 89.8291 55.743C89.8291 53.9492 91.2826 52.4956 93.0765 52.4956C94.8703 52.4956 96.3239 53.9492 96.3239 55.743C96.3239 57.5369 94.8703 58.9905 93.0765 58.9905ZM102.973 58.9905C101.179 58.9905 99.7257 57.5369 99.7257 55.743C99.7257 53.9492 101.179 52.4956 102.973 52.4956C104.767 52.4956 106.221 53.9492 106.221 55.743C106.221 57.5369 104.767 58.9905 102.973 58.9905Z" fill="white"/>
<path d="M52.0851 65.96H48.5222V114.452H114.499V65.96H110.461H52.0851ZM81.1092 110.122C69.915 110.122 60.8409 101.048 60.8409 89.8539C60.8409 79.2298 69.0179 70.5309 79.4193 69.6711C79.9772 69.6254 80.5388 69.5858 81.1092 69.5858C81.6796 69.5858 82.2398 69.6254 82.7991 69.6711C93.2005 70.5322 101.378 79.2312 101.378 89.8539C101.377 101.048 92.3035 110.122 81.1092 110.122Z" fill="white"/>
<path d="M82.3463 74.5342V105.174C90.8078 105.174 97.6661 98.3144 97.6661 89.8542C97.6661 81.3941 90.8078 74.5342 82.3463 74.5342Z" fill="white"/>
</svg>
