<svg width="164" height="164" viewBox="0 0 164 164" fill="none" xmlns="http://www.w3.org/2000/svg">
<path d="M106.965 19.9529H56.3051C34.3 19.9529 21.1816 33.0713 21.1816 55.0765V105.676C21.1816 127.742 34.3 140.86 56.3051 140.86H106.905C128.91 140.86 142.028 127.742 142.028 105.737V55.0765C142.089 33.0713 128.97 19.9529 106.965 19.9529Z" fill="#FF895B"/>
<path d="M97.8662 50.199H65.3443C55.5878 50.199 49.0834 56.755 49.0834 66.589V86.257C49.0834 96.091 55.5878 102.647 65.3443 102.647V109.629C65.3443 112.251 68.2388 113.825 70.3852 112.35L84.8575 102.647H97.8662C107.623 102.647 114.127 96.091 114.127 86.257V66.589C114.127 56.755 107.623 50.199 97.8662 50.199ZM81.6053 90.0922C80.2394 90.0922 79.1661 88.9777 79.1661 87.6337C79.1661 86.2897 80.2394 85.1752 81.6053 85.1752C82.9712 85.1752 84.0444 86.2897 84.0444 87.6337C84.0444 88.9777 82.9712 90.0922 81.6053 90.0922ZM85.703 76.4885C84.4347 77.3408 84.0444 77.8981 84.0444 78.8159V79.5043C84.0444 80.8483 82.9387 81.9628 81.6053 81.9628C80.2719 81.9628 79.1661 80.8483 79.1661 79.5043V78.8159C79.1661 75.0134 81.9305 73.145 82.9712 72.4238C84.1745 71.6043 84.5648 71.047 84.5648 70.1948C84.5648 68.5558 83.2314 67.2118 81.6053 67.2118C79.9792 67.2118 78.6458 68.5558 78.6458 70.1948C78.6458 71.5387 77.5401 72.6533 76.2067 72.6533C74.8733 72.6533 73.7675 71.5387 73.7675 70.1948C73.7675 65.835 77.2799 62.2948 81.6053 62.2948C85.9307 62.2948 89.4431 65.835 89.4431 70.1948C89.4431 73.9317 86.7112 75.8001 85.703 76.4885Z" fill="white"/>
</svg>
