<svg width="164" height="164" viewBox="0 0 164 164" fill="none" xmlns="http://www.w3.org/2000/svg">
<path d="M107.268 21.6284H56.608C34.6029 21.6284 21.4844 34.7469 21.4844 56.752V107.352C21.4844 129.417 34.6029 142.536 56.608 142.536H107.208C129.213 142.536 142.331 129.417 142.331 107.412V56.752C142.392 34.7469 129.273 21.6284 107.268 21.6284Z" fill="#FF895B"/>
<path d="M94.9804 70.4621H68.8353C67.6325 70.4621 66.6565 69.4869 66.6565 68.2833V50.8534C66.6565 49.6498 67.6325 48.6746 68.8353 48.6746H94.9804C96.1832 48.6746 97.1591 49.6498 97.1591 50.8534V68.2833C97.1591 69.4869 96.1832 70.4621 94.9804 70.4621ZM71.0141 66.1046H92.8017V53.032H71.0141V66.1046Z" fill="white"/>
<path d="M94.9804 48.6746H81.9079V53.032H92.8016V66.1046H81.9079V70.462H94.9804C96.1832 70.462 97.1592 69.4868 97.1592 68.2832V50.8534C97.1592 49.6498 96.1832 48.6746 94.9804 48.6746Z" fill="white"/>
<path d="M81.9078 70.4623C80.705 70.4623 79.729 69.4871 79.729 68.2835V59.5684C79.729 58.3649 80.705 57.3896 81.9078 57.3896C83.1106 57.3896 84.0866 58.3649 84.0866 59.5684V68.2835C84.0866 69.4871 83.1106 70.4623 81.9078 70.4623Z" fill="white"/>
<path d="M84.0867 68.2835V59.5684C84.0867 58.3649 83.1107 57.3896 81.9079 57.3896V70.4622C83.1107 70.4623 84.0867 69.4871 84.0867 68.2835Z" fill="white"/>
<path d="M86.2654 61.7472H77.5503C76.3475 61.7472 75.3715 60.772 75.3715 59.5684C75.3715 58.3649 76.3475 57.3896 77.5503 57.3896H86.2654C87.4682 57.3896 88.4442 58.3649 88.4442 59.5684C88.4442 60.772 87.4682 61.7472 86.2654 61.7472Z" fill="white"/>
<path d="M86.2654 57.3899H81.9079V61.7474H86.2654C87.4682 61.7474 88.4442 60.7721 88.4442 59.5686C88.4442 58.365 87.4682 57.3899 86.2654 57.3899Z" fill="white"/>
<path d="M102.22 108.25H61.5956L57.9417 104.596V76.9985C57.9417 70.9914 62.8283 66.1047 68.8354 66.1047H94.9804C100.988 66.1047 105.874 70.9914 105.874 76.9985V104.596L102.22 108.25Z" fill="white"/>
<path d="M94.9804 66.1047H81.9079V108.25H102.22L105.874 104.596V76.9985C105.874 70.9914 100.988 66.1047 94.9804 66.1047Z" fill="white"/>
<path d="M68.8354 115.49H94.9804C100.988 115.49 105.874 110.603 105.874 104.596H57.9417C57.9417 110.603 62.8283 115.49 68.8354 115.49Z" fill="white"/>
<path d="M81.9079 115.49H94.9804C100.988 115.49 105.874 110.603 105.874 104.596H81.9079V115.49Z" fill="white"/>
<path d="M81.908 99.5121C76.7023 99.5121 72.4667 95.2766 72.4667 90.0708C72.4667 88.1971 73.0156 86.3848 74.0539 84.831L80.0966 75.7876C80.9051 74.5776 82.9108 74.5776 83.7193 75.7876L89.762 84.8304C90.8002 86.385 91.3491 88.1971 91.3491 90.0709C91.3492 95.2766 87.1137 99.5121 81.908 99.5121Z" fill="#FF895B"/>
<path d="M91.3491 90.0709C91.3491 88.1972 90.8002 86.385 89.7618 84.8304L83.7191 75.7876C83.3148 75.1826 82.6113 74.8801 81.9077 74.8801V99.5121C87.1135 99.5122 91.3491 95.2767 91.3491 90.0709Z" fill="#FF895B"/>
<path d="M99.338 53.032H64.478C63.2752 53.032 62.2992 52.0568 62.2992 50.8532C62.2992 49.6496 63.2752 48.6746 64.478 48.6746H99.338C100.541 48.6746 101.517 49.6498 101.517 50.8534C101.517 52.0569 100.541 53.032 99.338 53.032Z" fill="white"/>
<path d="M99.3379 48.6746H81.9079V53.032H99.3379C100.541 53.032 101.517 52.0568 101.517 50.8532C101.517 49.6496 100.541 48.6746 99.3379 48.6746Z" fill="white"/>
<path d="M94.9804 70.4621H68.8353C67.6325 70.4621 66.6565 69.4869 66.6565 68.2833V50.8534C66.6565 49.6498 67.6325 48.6746 68.8353 48.6746H94.9804C96.1832 48.6746 97.1591 49.6498 97.1591 50.8534V68.2833C97.1591 69.4869 96.1832 70.4621 94.9804 70.4621ZM71.0141 66.1046H92.8017V53.032H71.0141V66.1046Z" fill="white"/>
<path d="M94.9804 48.6746H81.9079V53.032H92.8016V66.1046H81.9079V70.462H94.9804C96.1832 70.462 97.1592 69.4868 97.1592 68.2832V50.8534C97.1592 49.6498 96.1832 48.6746 94.9804 48.6746Z" fill="white"/>
<path d="M81.9078 70.4623C80.705 70.4623 79.729 69.4871 79.729 68.2835V59.5684C79.729 58.3649 80.705 57.3896 81.9078 57.3896C83.1106 57.3896 84.0866 58.3649 84.0866 59.5684V68.2835C84.0866 69.4871 83.1106 70.4623 81.9078 70.4623Z" fill="white"/>
<path d="M84.0867 68.2835V59.5684C84.0867 58.3649 83.1107 57.3896 81.9079 57.3896V70.4622C83.1107 70.4623 84.0867 69.4871 84.0867 68.2835Z" fill="white"/>
<path d="M86.2654 61.7472H77.5503C76.3475 61.7472 75.3715 60.772 75.3715 59.5684C75.3715 58.3649 76.3475 57.3896 77.5503 57.3896H86.2654C87.4682 57.3896 88.4442 58.3649 88.4442 59.5684C88.4442 60.772 87.4682 61.7472 86.2654 61.7472Z" fill="white"/>
<path d="M86.2654 57.3899H81.9079V61.7474H86.2654C87.4682 61.7474 88.4442 60.7721 88.4442 59.5686C88.4442 58.365 87.4682 57.3899 86.2654 57.3899Z" fill="white"/>
<path d="M102.22 108.25H61.5956L57.9417 104.596V76.9985C57.9417 70.9914 62.8283 66.1047 68.8354 66.1047H94.9804C100.988 66.1047 105.874 70.9914 105.874 76.9985V104.596L102.22 108.25Z" fill="white"/>
<path d="M94.9804 66.1047H81.9079V108.25H102.22L105.874 104.596V76.9985C105.874 70.9914 100.988 66.1047 94.9804 66.1047Z" fill="white"/>
<path d="M68.8354 115.49H94.9804C100.988 115.49 105.874 110.603 105.874 104.596H57.9417C57.9417 110.603 62.8283 115.49 68.8354 115.49Z" fill="white"/>
<path d="M81.9079 115.49H94.9804C100.988 115.49 105.874 110.603 105.874 104.596H81.9079V115.49Z" fill="white"/>
<path d="M81.908 99.5121C76.7023 99.5121 72.4667 95.2766 72.4667 90.0708C72.4667 88.1971 73.0156 86.3848 74.0539 84.831L80.0966 75.7876C80.9051 74.5776 82.9108 74.5776 83.7193 75.7876L89.762 84.8304C90.8002 86.385 91.3491 88.1971 91.3491 90.0709C91.3492 95.2766 87.1137 99.5121 81.908 99.5121Z" fill="#FF895B"/>
<path d="M91.3491 90.0709C91.3491 88.1972 90.8002 86.385 89.7618 84.8304L83.7191 75.7876C83.3148 75.1826 82.6113 74.8801 81.9077 74.8801V99.5121C87.1135 99.5122 91.3491 95.2767 91.3491 90.0709Z" fill="#FF895B"/>
<path d="M99.338 53.032H64.478C63.2752 53.032 62.2992 52.0568 62.2992 50.8532C62.2992 49.6496 63.2752 48.6746 64.478 48.6746H99.338C100.541 48.6746 101.517 49.6498 101.517 50.8534C101.517 52.0569 100.541 53.032 99.338 53.032Z" fill="white"/>
<path d="M99.3379 48.6746H81.9079V53.032H99.3379C100.541 53.032 101.517 52.0568 101.517 50.8532C101.517 49.6496 100.541 48.6746 99.3379 48.6746Z" fill="white"/>
</svg>
