<svg width="164" height="164" viewBox="0 0 164 164" fill="none" xmlns="http://www.w3.org/2000/svg">
<path d="M107.424 21.2446H56.7642C34.7591 21.2446 21.6406 34.3631 21.6406 56.3682V106.968C21.6406 129.033 34.7591 142.152 56.7642 142.152H107.364C129.369 142.152 142.487 129.033 142.487 107.028V56.3682C142.548 34.3631 129.429 21.2446 107.424 21.2446Z" fill="#FF895B"/>
<path d="M117.589 87.9299H85.1631C83.2444 87.9299 81.689 89.5008 81.689 91.4385V117.168C81.689 119.106 83.2444 120.677 85.1631 120.677H117.589C119.507 120.677 121.063 119.106 121.063 117.168V91.4385C121.063 89.5008 119.507 87.9299 117.589 87.9299Z" fill="white"/>
<path fill-rule="evenodd" clip-rule="evenodd" d="M78.5085 44.6573C78.5085 44.0114 77.99 43.4878 77.3504 43.4878H47.2148C44.9232 43.4878 43.0654 45.3379 43.0654 47.6201V62.0832V76.3663C43.0654 77.0122 43.5839 77.5358 44.2235 77.5358H62.0836C63.0385 77.5358 63.8126 78.3175 63.8126 79.2818C63.8126 80.2462 63.0385 81.0279 62.0836 81.0279H44.2235C43.5839 81.0279 43.0654 81.5515 43.0654 82.1974V101.34C43.0654 103.622 44.9232 105.473 47.2148 105.473H74.1861C76.4778 105.473 78.3356 103.622 78.3356 101.34V84.8983C78.3356 84.8501 78.3744 84.8109 78.4221 84.8109C78.4698 84.8109 78.5085 84.7719 78.5085 84.7237V81.7085C78.5085 81.3024 78.0462 81.0279 77.6441 81.0279H73.3218C72.3668 81.0279 71.5928 80.2462 71.5928 79.2818C71.5928 78.3175 72.3668 77.5358 73.3218 77.5358H77.6441C78.0462 77.5358 78.5085 77.2613 78.5085 76.8551V65.3134C78.5085 64.3491 79.2826 63.5674 80.2374 63.5674C81.1923 63.5674 81.9663 64.3491 81.9663 65.3134V83.6414C81.9663 84.2873 82.4849 84.8109 83.1244 84.8109H111.531C113.823 84.8109 115.681 82.9609 115.681 80.6787V47.6201C115.681 45.3379 113.823 43.4878 111.531 43.4878H83.1244C82.4849 43.4878 81.9663 44.0114 81.9663 44.6573V46.9799C81.9663 47.9443 81.1923 48.726 80.2374 48.726C79.2826 48.726 78.5085 47.9443 78.5085 46.9799V44.6573Z" fill="white"/>
</svg>
