<svg width="164" height="164" viewBox="0 0 164 164" fill="none" xmlns="http://www.w3.org/2000/svg">
<path d="M108.553 21.0044H57.8925C35.8874 21.0044 22.769 34.1228 22.769 56.128V106.728C22.769 128.793 35.8874 141.912 57.8925 141.912H108.492C130.497 141.912 143.616 128.793 143.616 106.788V56.128C143.676 34.1228 130.558 21.0044 108.553 21.0044Z" fill="#FF895B"/>
<path d="M110.479 98.2263C110.059 93.755 108.827 88.9856 99.8371 88.9856H64.1026C55.113 88.9856 53.9088 93.755 53.4607 98.2263L51.8924 114.729C51.6964 116.789 52.3965 118.848 53.8528 120.393C55.3371 121.965 57.4374 122.859 59.6778 122.859H64.9428C69.4796 122.859 70.3478 120.339 70.9079 118.686L71.468 117.06C72.1121 115.19 72.2801 114.729 74.8006 114.729H89.1392C91.6596 114.729 91.7436 115 92.4718 117.06L93.0319 118.686C93.592 120.339 94.4601 122.859 98.997 122.859H104.262C106.474 122.859 108.603 121.965 110.087 120.393C111.543 118.848 112.243 116.789 112.047 114.729L110.479 98.2263Z" fill="white"/>
<path d="M106.289 79.8694H103.587C103.56 79.8694 103.56 79.8694 103.533 79.8694L102.506 75.155C101.534 70.5968 99.5071 66.4033 91.4546 66.4033H83.9967H79.9434H72.4855C64.433 66.4033 62.4064 70.5968 61.4336 75.155L60.4068 79.8694C60.3798 79.8694 60.3798 79.8694 60.3528 79.8694H57.6506C56.5427 79.8694 55.624 80.755 55.624 81.8229C55.624 82.8908 56.5427 83.7764 57.6506 83.7764H59.5691L58.4342 88.9857C59.8934 88.1782 61.92 87.6833 64.7303 87.6833H99.2098C102.02 87.6833 104.047 88.1782 105.506 88.9857L104.371 83.7764H106.289C107.397 83.7764 108.316 82.8908 108.316 81.8229C108.316 80.755 107.397 79.8694 106.289 79.8694Z" fill="white"/>
<path d="M72.5607 104.04H65.0332C64.0045 104.04 63.1514 103.187 63.1514 102.158C63.1514 101.13 64.0045 100.277 65.0332 100.277H72.5607C73.5894 100.277 74.4425 101.13 74.4425 102.158C74.4425 103.187 73.5894 104.04 72.5607 104.04Z" fill="#FF895B"/>
<path d="M98.9067 104.04H91.3793C90.3505 104.04 89.4974 103.187 89.4974 102.158C89.4974 101.13 90.3505 100.277 91.3793 100.277H98.9067C99.9355 100.277 100.789 101.13 100.789 102.158C100.789 103.187 99.9355 104.04 98.9067 104.04Z" fill="#FF895B"/>
<path d="M48.0964 73.9306L81.9699 43.8208L117.725 73.9306" stroke="white" stroke-width="7.07387" stroke-linecap="round" stroke-linejoin="round"/>
</svg>
