<svg width="164" height="164" viewBox="0 0 164 164" fill="none" xmlns="http://www.w3.org/2000/svg">
<path d="M106.965 20.2866H56.3051C34.3 20.2866 21.1816 33.4051 21.1816 55.4102V106.01C21.1816 128.075 34.3 141.194 56.3051 141.194H106.905C128.91 141.194 142.028 128.075 142.028 106.07V55.4102C142.089 33.4051 128.97 20.2866 106.965 20.2866Z" fill="#FF895B"/>
<path d="M53.7898 91.5237C44.3325 91.5237 36.6725 99.2444 36.6725 108.777C36.6725 112.012 37.5712 115.074 39.1546 117.662C42.1073 122.665 47.542 126.03 53.7898 126.03C60.0375 126.03 65.4722 122.665 68.425 117.662C70.0083 115.074 70.907 112.012 70.907 108.777C70.907 99.2444 63.247 91.5237 53.7898 91.5237ZM62.22 107.353L53.1051 115.851C52.506 116.411 51.6929 116.713 50.9226 116.713C50.1096 116.713 49.2965 116.411 48.6546 115.764L44.4181 111.494C43.1771 110.243 43.1771 108.173 44.4181 106.922C45.6591 105.671 47.7131 105.671 48.9541 106.922L51.0082 108.992L57.8551 102.609C59.1389 101.401 61.1929 101.487 62.3912 102.781C63.5894 104.075 63.5038 106.146 62.22 107.353Z" fill="white"/>
<path d="M105.984 54.9886C105.701 54.9819 105.42 54.9794 105.141 54.9794H63.1743L76.7132 41.291C76.7144 41.2898 76.7156 41.2886 76.7168 41.2874C81.7816 36.2235 89.9833 36.2224 95.0494 41.2844L102.531 48.9117L102.541 48.9216L102.551 48.9313C104.313 50.6794 105.454 52.767 105.984 54.9886Z" fill="white" stroke="#FF895B" stroke-width="4.07553"/>
<path d="M126.538 78.5837V100.15C126.538 113.09 117.979 121.716 105.141 121.716H65.0443C66.3709 120.595 67.5263 119.215 68.425 117.662C70.0083 115.074 70.907 112.011 70.907 108.777C70.907 99.2442 63.247 91.5235 53.7898 91.5235C48.6546 91.5235 44.0757 93.8094 40.9518 97.3894V78.5837C40.9518 66.8516 47.9699 58.6564 58.8821 57.2761C59.9947 57.1036 61.1502 57.0173 62.3484 57.0173H105.141C106.254 57.0173 107.324 57.0604 108.351 57.2329C119.391 58.5269 126.538 66.7653 126.538 78.5837Z" fill="white"/>
<path d="M126.538 80.7402H113.7C108.993 80.7402 105.141 84.6222 105.141 89.3668C105.141 94.1114 108.993 97.9933 113.7 97.9933H126.538" fill="#FF895B"/>
</svg>
