<svg width="164" height="164" viewBox="0 0 164 164" fill="none" xmlns="http://www.w3.org/2000/svg">
<path d="M107.235 20.2866H56.5752C34.57 20.2866 21.4516 33.4051 21.4516 55.4102V106.01C21.4516 128.075 34.57 141.194 56.5752 141.194H107.175C129.18 141.194 142.298 128.075 142.298 106.07V55.4102C142.359 33.4051 129.24 20.2866 107.235 20.2866Z" fill="#FF895B"/>
<path d="M48.3678 94.9773L67.753 114.516C75.7125 122.539 88.636 122.539 96.6383 114.516L115.424 95.5812C123.384 87.5585 123.384 74.5324 115.424 66.4666L95.9964 46.9707C91.9311 42.8731 86.3252 40.6733 80.5909 40.9752L59.1944 42.0104C50.6358 42.3986 43.8317 49.2567 43.4038 57.8401L42.3767 79.4064C42.12 85.2293 44.3024 90.8797 48.3678 94.9773Z" fill="white"/>
<path d="M71.1763 82.3823C77.9829 82.3823 83.5007 76.8206 83.5007 69.96C83.5007 63.0995 77.9829 57.5378 71.1763 57.5378C64.3697 57.5378 58.8519 63.0995 58.8519 69.96C58.8519 76.8206 64.3697 82.3823 71.1763 82.3823Z" fill="#FF895B"/>
</svg>
