<svg width="164" height="164" viewBox="0 0 164 164" fill="none" xmlns="http://www.w3.org/2000/svg">
<path d="M106.871 19.9053H56.2104C34.2053 19.9053 21.0869 33.0237 21.0869 55.0288V105.629C21.0869 127.694 34.2053 140.813 56.2104 140.813H106.81C128.815 140.813 141.934 127.694 141.934 105.689V55.0288C141.994 33.0237 128.876 19.9053 106.871 19.9053Z" fill="#FF895B"/>
<path d="M70.8116 82.0009C77.6181 82.0009 83.136 76.4393 83.136 69.5787C83.136 62.7181 77.6181 57.1565 70.8116 57.1565C64.005 57.1565 58.4872 62.7181 58.4872 69.5787C58.4872 76.4393 64.005 82.0009 70.8116 82.0009Z" fill="#FF895B"/>
<path d="M80.4609 92.9417C86.3706 92.9417 91.1613 88.1129 91.1613 82.1564C91.1613 76.1998 86.3706 71.3711 80.4609 71.3711C74.5513 71.3711 69.7606 76.1998 69.7606 82.1564C69.7606 88.1129 74.5513 92.9417 80.4609 92.9417Z" fill="white"/>
<path fill-rule="evenodd" clip-rule="evenodd" d="M114.345 44.408C114.345 43.6809 113.911 43.0255 113.244 42.7472C112.578 42.469 111.811 42.6228 111.301 43.1369L102.384 52.1246C102.049 52.4617 101.862 52.9189 101.862 53.3957V59.8413L84.55 77.2903C83.8535 77.9923 83.8535 79.1304 84.55 79.8324C85.2465 80.5344 86.3756 80.5344 87.0721 79.8324L104.384 62.3834H110.779C111.252 62.3834 111.705 62.194 112.04 61.8569L120.957 52.8692C121.467 52.3551 121.619 51.5819 121.343 50.9102C121.067 50.2385 120.417 49.8006 119.696 49.8006H114.345V44.408Z" fill="white"/>
<path fill-rule="evenodd" clip-rule="evenodd" d="M102.163 69.7057C104.241 73.3773 105.428 77.6272 105.428 82.1567C105.428 96.0553 94.25 107.322 80.4608 107.322C66.6716 107.322 55.4933 96.0553 55.4933 82.1567C55.4933 68.258 66.6716 56.991 80.4608 56.991C85.8793 56.991 90.8946 58.7308 94.987 61.6863L98.2947 58.3523V53.3958C98.2947 52.6583 98.4446 51.9364 98.7273 51.2715C93.3845 48.0543 87.1369 46.2056 80.4608 46.2056C60.762 46.2056 44.793 62.3013 44.793 82.1565C44.793 102.012 60.762 118.107 80.4608 118.107C100.16 118.107 116.129 102.012 116.129 82.1565C116.129 76.2577 114.719 70.6906 112.221 65.7789C111.756 65.9103 111.271 65.9787 110.778 65.9787H105.861L102.163 69.7057ZM100.137 66.6636L104.384 62.3836L110.254 62.3836C107.988 58.922 105.145 55.8787 101.861 53.3931C101.861 53.394 101.861 53.3949 101.861 53.3958V59.8414L97.7423 63.9934C98.6018 64.8244 99.4024 65.7168 100.137 66.6636Z" fill="white"/>
</svg>
