<svg width="164" height="164" viewBox="0 0 164 164" fill="none" xmlns="http://www.w3.org/2000/svg">
<path d="M107.06 20.2866H56.3998C34.3947 20.2866 21.2763 33.4051 21.2763 55.4102V106.01C21.2763 128.075 34.3947 141.194 56.3998 141.194H107C129.005 141.194 142.123 128.075 142.123 106.07V55.4102C142.184 33.4051 129.065 20.2866 107.06 20.2866Z" fill="#FF895B"/>
<path d="M118.906 106.366C117.88 104.454 115.703 103.389 112.781 103.389C110.574 103.389 108.677 104.297 107.558 105.864C106.439 107.431 106.19 109.531 106.874 111.63C108.211 115.704 110.542 116.613 111.817 116.769C112.004 116.801 112.19 116.801 112.408 116.801C113.776 116.801 115.89 116.205 117.942 113.103C119.59 110.69 119.9 108.277 118.906 106.366Z" fill="white"/>
<path fill-rule="evenodd" clip-rule="evenodd" d="M64.3152 46.9834H86.5417C93.6414 46.9834 97.1734 50.4815 97.1734 57.4432V58.2064C94.2931 57.0312 91.1448 56.3841 87.8464 56.3841C78.6527 56.3841 70.6241 61.412 66.3194 68.8886C65.1043 69.1311 64.1725 70.1894 64.1725 71.4341C64.1725 71.8979 64.3019 72.3359 64.5272 72.7154C63.5233 75.4362 62.9747 78.3801 62.9747 81.4532C62.9747 89.6504 66.8779 96.9286 72.9133 101.503V112.79H57.275C55.2718 112.79 53.6478 111.153 53.6478 109.134V57.4432C53.6478 50.4815 57.2155 46.9834 64.3152 46.9834ZM78.2648 101.154V99.8018C78.2648 98.3471 77.0517 97.2041 75.589 97.2041C74.8155 97.2041 74.1118 97.5334 73.6204 98.0538C70.3428 95.1977 67.9199 91.3721 66.7904 87.0192C66.8096 87.0196 66.8289 87.0198 66.8482 87.0198H71.8356C74.1254 93.7121 80.4289 98.5196 87.8464 98.5196C91.2929 98.5196 94.4988 97.4817 97.1734 95.6992V101.278C94.3465 102.631 91.1842 103.389 87.8464 103.389C84.408 103.389 81.1558 102.585 78.2648 101.154ZM78.2648 104.595V112.79H93.5463C95.5495 112.79 97.1734 111.153 97.1734 109.134V104.7C94.2931 105.875 91.1448 106.522 87.8464 106.522C84.4506 106.522 81.2137 105.836 78.2648 104.595ZM97.1734 61.6287C94.3465 60.2751 91.1842 59.5178 87.8464 59.5178C80.4867 59.5178 73.9803 63.2 70.0416 68.8364H76.4443C79.4532 66.0723 83.4545 64.3869 87.8464 64.3869C91.2929 64.3869 94.4988 65.4248 97.1734 67.2073V61.6287ZM97.1734 71.17C94.7149 68.9034 91.4409 67.5205 87.8464 67.5205C85.7469 67.5205 83.7567 67.9923 81.9746 68.8364H84.5082C85.9709 68.8364 87.1839 70.014 87.1839 71.4341C87.1839 72.8541 85.9709 74.0317 84.5082 74.0317H76.1456C74.8013 76.1804 74.0234 78.7253 74.0234 81.4532C74.0234 81.5774 74.025 81.7012 74.0282 81.8246H84.5082C85.9709 81.8246 87.1839 83.0021 87.1839 84.4222C87.1839 85.8422 85.9709 87.0198 84.5082 87.0198H75.1708C77.3024 91.9441 82.1756 95.386 87.8464 95.386C91.4409 95.386 94.7149 94.0031 97.1734 91.7364V71.17ZM70.9184 81.8246C70.9158 81.7011 70.9145 81.5773 70.9145 81.4532C70.9145 78.7934 71.5181 76.2757 72.595 74.0317H67.3608C66.5341 76.3496 66.0836 78.8484 66.0836 81.4532C66.0836 81.6137 66.0854 81.7738 66.0888 81.9334C66.3301 81.8627 66.5851 81.8246 66.8482 81.8246H70.9184Z" fill="#FFF7F3"/>
<path fill-rule="evenodd" clip-rule="evenodd" d="M87.8465 98.5194C97.1978 98.5194 104.779 90.8786 104.779 81.4531C104.779 72.0276 97.1978 64.3867 87.8465 64.3867C78.4953 64.3867 70.9146 72.0276 70.9146 81.4531C70.9146 90.8786 78.4953 98.5194 87.8465 98.5194ZM109.609 81.4531C109.609 93.5677 99.8658 103.389 87.8465 103.389C75.8273 103.389 66.0838 93.5677 66.0838 81.4531C66.0838 69.3384 75.8273 59.5176 87.8465 59.5176C99.8658 59.5176 109.609 69.3384 109.609 81.4531Z" fill="white"/>
</svg>
