<svg width="164" height="164" viewBox="0 0 164 164" fill="none" xmlns="http://www.w3.org/2000/svg">
<path d="M107.221 19.9529H56.561C34.5559 19.9529 21.4374 33.0713 21.4374 55.0765V105.676C21.4374 127.742 34.5559 140.86 56.561 140.86H107.161C129.166 140.86 142.284 127.742 142.284 105.737V55.0765C142.345 33.0713 129.226 19.9529 107.221 19.9529Z" fill="#FF895B"/>
<path d="M120.007 73.0304H95.4698L84.3136 62.4624V59.5542H98.9016C99.5841 59.5542 100.137 59.001 100.137 58.3185L100.137 45.2186C100.137 44.5362 99.5834 43.9829 98.9009 43.9829H80.6685C79.9712 43.9829 79.4059 44.5483 79.4059 45.2455V62.4625L68.2496 73.0305H43.7146C42.7615 73.0305 41.9881 73.8031 41.9881 74.7569V83.5401C41.9881 84.4931 42.7608 85.2658 43.7146 85.2658H61.6317C62.1701 85.2658 62.6891 85.0592 63.0801 84.689L80.663 68.0334C81.3347 67.3967 82.388 67.3967 83.0596 68.0334L100.643 84.689C101.034 85.0592 101.552 85.2658 102.091 85.2658H120.008C120.961 85.2658 121.734 84.4931 121.734 83.5401V74.7569C121.734 73.8032 120.961 73.0305 120.008 73.0305L120.007 73.0304Z" fill="white"/>
<path d="M97.0322 116.828C98.173 116.828 99.0984 115.904 99.0984 114.762L99.0978 90.8836C99.0978 90.3149 98.8635 89.7718 98.4496 89.3814L83.2048 74.9925C82.4503 74.2805 81.2718 74.2805 80.5173 74.9925L65.2725 89.3814C64.8592 89.7718 64.6243 90.3149 64.6243 90.8836L64.625 114.764C64.625 115.905 65.5498 116.83 66.6912 116.83H74.7616L74.7609 107.557C74.7609 106.842 75.3404 106.264 76.0545 106.264H87.6676C88.3817 106.264 88.9612 106.842 88.9612 107.557V116.829L97.0322 116.828ZM81.8613 96.2062C78.4207 96.2062 75.6318 93.4171 75.6318 89.9767C75.6318 86.5362 78.4209 83.7471 81.8613 83.7471C85.3018 83.7471 88.0909 86.5362 88.0909 89.9767C88.0909 93.4179 85.3018 96.2062 81.8613 96.2062Z" fill="white"/>
<path d="M83.2241 86.8594H81.7502C81.4796 86.8594 81.2602 87.0788 81.2602 87.3493V89.6457H79.0507C78.7801 89.6457 78.5607 89.8651 78.5607 90.1357V91.6097C78.5607 91.8802 78.7801 92.0996 79.0507 92.0996H82.8109C83.3096 92.0996 83.7134 91.6958 83.7134 91.1971V87.35C83.7141 87.0788 83.4947 86.8594 83.2241 86.8594V86.8594Z" fill="white"/>
<path d="M120.454 89.9783H105.441C104.735 89.9783 104.163 90.5503 104.163 91.2564V110.269C104.163 110.975 104.735 111.547 105.441 111.547H120.454C121.16 111.547 121.732 110.975 121.732 110.269V91.2564C121.732 90.551 121.16 89.9789 120.454 89.9789V89.9783ZM115.631 103.219C115.631 103.838 115.129 104.341 114.509 104.341H111.385C110.766 104.341 110.263 103.839 110.263 103.219V98.3057C110.263 97.6865 110.765 97.1838 111.385 97.1838H114.509C115.129 97.1838 115.631 97.6859 115.631 98.3057V103.219Z" fill="white"/>
<path d="M43.2656 111.547H58.279C58.985 111.547 59.5564 110.975 59.5564 110.269V91.2564C59.5564 90.5503 58.9844 89.9783 58.279 89.9783L43.2656 89.9789C42.5596 89.9789 41.9881 90.551 41.9881 91.257V110.27C41.9875 110.975 42.5596 111.547 43.2656 111.547V111.547ZM48.0885 98.3054C48.0885 97.6862 48.5906 97.1835 49.2105 97.1835H52.3347C52.9546 97.1835 53.4567 97.6855 53.4567 98.3054V103.219C53.4567 103.838 52.9546 104.341 52.3347 104.341L49.2098 104.341C48.5899 104.341 48.0878 103.839 48.0878 103.219L48.0885 98.3054Z" fill="white"/>
</svg>
