<svg width="164" height="164" viewBox="0 0 164 164" fill="none" xmlns="http://www.w3.org/2000/svg">
<path d="M107.684 20.9961H57.0242C35.0191 20.9961 21.9006 34.1145 21.9006 56.1197V106.719C21.9006 128.785 35.0191 141.903 57.0242 141.903H107.624C129.629 141.903 142.747 128.785 142.747 106.78V56.1197C142.808 34.1145 129.689 20.9961 107.684 20.9961Z" fill="#FF895B"/>
<path d="M105.973 65.1475H58.6752C57.0435 65.1475 55.7191 66.3647 55.7191 67.8645V114.055C55.7191 115.555 57.0435 116.772 58.6752 116.772H105.973C107.605 116.772 108.929 115.555 108.929 114.055V67.8645C108.929 66.3647 107.605 65.1475 105.973 65.1475ZM85.2803 108.621C85.2803 110.121 83.956 111.338 82.3242 111.338C80.6924 111.338 79.3681 110.121 79.3681 108.621V73.2987C79.3681 71.7989 80.6924 70.5816 82.3242 70.5816C83.956 70.5816 85.2803 71.7989 85.2803 73.2987V108.621Z" fill="white"/>
<path d="M70.4998 62.4304H94.1488C95.7806 62.4304 97.1049 61.2132 97.1049 59.7133C97.1049 52.2223 90.4743 46.1279 82.3243 46.1279C74.1743 46.1279 67.5437 52.2223 67.5437 59.7133C67.5437 61.2132 68.868 62.4304 70.4998 62.4304ZM82.3243 51.5621C86.1776 51.5621 89.4663 53.8336 90.6857 56.9962H85.2804C85.2804 55.4964 83.9561 54.2792 82.3243 54.2792C80.6925 54.2792 79.3682 55.4964 79.3682 56.9962H73.9629C75.1823 53.8336 78.471 51.5621 82.3243 51.5621Z" fill="white"/>
</svg>
