<svg width="164" height="164" viewBox="0 0 164 164" fill="none" xmlns="http://www.w3.org/2000/svg">
<path d="M107.841 21.2446H57.1811C35.176 21.2446 22.0575 34.3631 22.0575 56.3682V106.968C22.0575 129.033 35.176 142.152 57.1811 142.152H107.781C129.786 142.152 142.904 129.033 142.904 107.028V56.3682C142.965 34.3631 129.846 21.2446 107.841 21.2446Z" fill="#FF895B"/>
<path d="M112.255 86.6587C116.035 83.2177 118.409 78.2565 118.409 72.7414C118.409 62.3504 109.986 53.9272 99.5949 53.9272C91.8584 53.9272 85.2129 58.5983 82.3231 65.2734C85.8683 69.2733 88.0243 74.531 88.0243 80.2838C88.0243 85.1084 86.4722 89.786 83.6697 93.6345C86.3173 95.9705 88.5009 98.7939 90.0957 101.927H122.956C121.59 95.5037 117.644 90.0356 112.255 86.6587Z" fill="white"/>
<path d="M42.0058 109.469H88.7278C87.3622 103.046 83.416 97.5781 78.0261 94.2012C81.8068 90.7602 84.1806 85.799 84.1806 80.2837C84.1806 69.8929 75.7574 61.4695 65.3665 61.4695C54.9766 61.4695 46.553 69.8929 46.553 80.2837C46.553 85.799 48.9263 90.7602 52.7073 94.2012C47.3174 97.5781 43.3713 103.046 42.0058 109.469Z" fill="white"/>
</svg>
