<svg width="25" height="24" viewBox="0 0 25 24" fill="none" xmlns="http://www.w3.org/2000/svg">
<path d="M16.9761 2H8.60614C4.96614 2 2.79614 4.17 2.79614 7.81V16.18C2.79614 19.82 4.96614 21.99 8.60614 21.99H16.9761C20.6161 21.99 22.7861 19.82 22.7861 16.18V7.81C22.7861 4.17 20.6161 2 16.9761 2Z" fill="#FF895B"/>
<path d="M9.26491 17C8.88264 17 8.56073 16.9021 8.29918 16.7063C8.04769 16.5007 7.92194 16.1972 7.92194 15.7957V10.7437C7.92194 10.3422 8.04769 10.0436 8.29918 9.8478C8.56073 9.64219 8.88264 9.53939 9.26491 9.53939C9.64718 9.53939 9.96406 9.64219 10.2156 9.8478C10.4771 10.0436 10.6079 10.3422 10.6079 10.7437V15.7957C10.6079 16.1972 10.4771 16.5007 10.2156 16.7063C9.96406 16.9021 9.64718 17 9.26491 17ZM9.26491 8.51135C8.81223 8.51135 8.45007 8.39875 8.17846 8.17356C7.91691 7.93858 7.78613 7.63017 7.78613 7.24833C7.78613 6.86649 7.91691 6.56297 8.17846 6.33778C8.45007 6.11259 8.81223 6 9.26491 6C9.70754 6 10.0647 6.11259 10.3363 6.33778C10.6079 6.56297 10.7437 6.86649 10.7437 7.24833C10.7437 7.63017 10.6079 7.93858 10.3363 8.17356C10.0747 8.39875 9.7176 8.51135 9.26491 8.51135Z" fill="white"/>
<path d="M17.1605 9.51001C18.0458 9.51001 18.7047 9.76947 19.1373 10.2884C19.5698 10.7975 19.7861 11.5759 19.7861 12.6235V15.7957C19.7861 16.1678 19.6654 16.4615 19.424 16.6769C19.1825 16.8923 18.8556 17 18.4432 17C18.0307 17 17.7038 16.8923 17.4623 16.6769C17.2209 16.4615 17.1002 16.1678 17.1002 15.7957V12.741C17.1002 12.3102 17.0197 11.9969 16.8588 11.8011C16.7079 11.6053 16.4765 11.5073 16.1646 11.5073C15.7622 11.5073 15.4403 11.6346 15.1989 11.8892C14.9675 12.134 14.8518 12.4668 14.8518 12.8879V15.7957C14.8518 16.1678 14.7311 16.4615 14.4897 16.6769C14.2483 16.8923 13.9213 17 13.5089 17C13.0964 17 12.7695 16.8923 12.528 16.6769C12.2866 16.4615 12.1659 16.1678 12.1659 15.7957V10.7143C12.1659 10.3716 12.2916 10.0926 12.5431 9.87717C12.7946 9.65198 13.1216 9.53939 13.524 9.53939C13.9062 9.53939 14.208 9.64219 14.4293 9.8478C14.6607 10.0534 14.7764 10.3227 14.7764 10.6555C15.0379 10.2835 15.3749 9.99955 15.7874 9.80374C16.1998 9.60792 16.6576 9.51001 17.1605 9.51001Z" fill="white"/>
</svg>
