<svg width="91" height="91" viewBox="0 0 91 91" fill="none" xmlns="http://www.w3.org/2000/svg">
<path d="M77.5821 31.7125C73.6443 14.3862 58.5307 6.58569 45.2548 6.58569C45.2548 6.58569 45.2548 6.58569 45.2173 6.58569C31.9788 6.58569 16.8278 14.3487 12.89 31.675C8.50219 51.0263 20.353 67.415 31.0788 77.7282C35.0541 81.5535 40.1544 83.4661 45.2548 83.4661C50.3551 83.4661 55.4555 81.5535 59.3933 77.7282C70.119 67.415 81.9699 51.0638 77.5821 31.7125ZM45.2548 50.5013C38.7293 50.5013 33.4415 45.2134 33.4415 38.688C33.4415 32.1625 38.7293 26.8746 45.2548 26.8746C51.7802 26.8746 57.0681 32.1625 57.0681 38.688C57.0681 45.2134 51.7802 50.5013 45.2548 50.5013Z" fill="#494949"/>
</svg>
