<svg width="740" height="148" viewBox="0 0 740 148" fill="none" xmlns="http://www.w3.org/2000/svg">
<rect x="328.562" y="13.2939" width="126.184" height="130.742" rx="1" fill="white"/>
<path fill-rule="evenodd" clip-rule="evenodd" d="M328.562 16.9257C328.562 14.9199 330.2 13.2939 332.22 13.2939H451.089C453.109 13.2939 454.747 14.9199 454.747 16.9257V140.404C454.747 142.41 453.109 144.036 451.089 144.036H441.208C440.154 144.036 439.152 143.585 438.457 142.798L411.757 112.562C411.063 111.775 410.061 111.324 409.007 111.324H397.82C397.82 111.324 397.82 111.324 397.82 111.324C397.82 111.324 397.82 111.324 397.82 111.324H378.894C377.84 111.324 376.838 111.775 376.144 112.562L349.444 142.798C348.749 143.585 347.747 144.036 346.694 144.036H332.22C330.2 144.036 328.562 142.41 328.562 140.404V16.9257Z" fill="#FF895B"/>
<path d="M404.273 36.1389C404.273 35.1684 403.489 34.3816 402.521 34.3816H384.995C384.027 34.3816 383.243 35.1684 383.243 36.1389V95.8865C383.243 96.8571 384.027 97.6438 384.995 97.6438H402.521C403.489 97.6438 404.273 96.8571 404.273 95.8865V36.1389Z" fill="white"/>
<path d="M379.035 36.1923C379.035 34.4556 376.697 33.7186 375.595 35.108L358.39 56.7949C357.445 57.9863 358.344 59.6865 359.92 59.6865H377.124C378.18 59.6865 379.035 58.8774 379.035 57.8792V36.1923Z" fill="white"/>
<ellipse cx="416.892" cy="42.8164" rx="4.20615" ry="4.21748" fill="white"/>
<path d="M96.0735 42.6238C104.293 42.6238 110.635 45.1167 115.1 50.1024C119.565 54.9864 121.798 63.2791 121.798 74.9803V107.947C121.798 112.119 120.479 115.273 117.84 117.41C115.303 119.445 112.107 120.463 108.251 120.463C104.395 120.463 101.147 119.445 98.5089 117.41C95.972 115.273 94.7036 112.119 94.7036 107.947V74.3698C94.7036 70.2998 93.9932 67.4508 92.5725 65.8228C91.1519 64.1948 89.0716 63.3808 86.3317 63.3808C82.7801 63.3808 79.9387 64.6527 77.8077 67.1964C75.6767 69.7402 74.6112 73.2506 74.6112 77.7276V107.947C74.6112 112.119 73.3427 115.273 70.8058 117.41C68.2689 119.445 65.0216 120.463 61.064 120.463C57.2079 120.463 53.9607 119.445 51.3223 117.41C48.7853 115.273 47.5169 112.119 47.5169 107.947V74.3698C47.5169 70.2998 46.8065 67.4508 45.3859 65.8228C43.9652 64.1948 41.8849 63.3808 39.1451 63.3808C35.5934 63.3808 32.752 64.6527 30.621 67.1964C28.5915 69.7402 27.5767 73.2506 27.5767 77.7276V107.947C27.5767 112.119 26.2575 115.273 23.6191 117.41C21.0822 119.445 17.8857 120.463 14.0296 120.463C10.1734 120.463 6.92619 119.445 4.2878 117.41C1.75088 115.273 0.482422 112.119 0.482422 107.947V55.139C0.482422 51.1708 1.80162 48.1692 4.44001 46.1342C7.17989 43.9974 10.4271 42.929 14.1818 42.929C17.7335 42.929 20.6763 43.8957 23.0103 45.8289C25.4457 47.6604 26.7142 50.3568 26.8156 53.918C31.788 46.3885 39.3988 42.6238 49.6479 42.6238C60.5059 42.6238 67.7615 47.0499 71.4146 55.9022C73.9516 51.8322 77.3511 48.627 81.6131 46.2868C85.8751 43.8448 90.6952 42.6238 96.0735 42.6238Z" fill="#4B166B"/>
<path d="M197.976 95.4321C200.31 95.4321 202.187 96.3479 203.608 98.1794C205.13 100.011 205.891 102.402 205.891 105.353C205.891 109.423 203.912 112.526 199.954 114.663C196.504 116.393 192.394 117.868 187.625 119.089C182.957 120.208 178.644 120.768 174.687 120.768C166.366 120.768 159.11 119.191 152.92 116.037C146.73 112.882 141.96 108.354 138.612 102.453C135.263 96.5514 133.589 89.6324 133.589 81.6958C133.589 74.1663 135.161 67.4508 138.307 61.5493C141.555 55.546 146.019 50.9164 151.702 47.6604C157.486 44.3027 163.981 42.6238 171.186 42.6238C178.188 42.6238 184.327 44.15 189.604 47.2025C194.881 50.255 198.94 54.5794 201.781 60.1757C204.724 65.7719 206.195 72.3348 206.195 79.8643C206.195 82.2046 205.637 84.0361 204.521 85.3588C203.506 86.5798 201.984 87.1903 199.954 87.1903H159.77C160.48 92.0743 162.053 95.5847 164.488 97.7215C166.924 99.8582 170.526 100.927 175.296 100.927C177.832 100.927 180.166 100.672 182.297 100.163C184.428 99.553 186.813 98.739 189.452 97.7215C190.974 97.111 192.445 96.6022 193.866 96.1952C195.388 95.6865 196.758 95.4321 197.976 95.4321ZM171.947 60.9388C168.395 60.9388 165.554 62.1089 163.423 64.4492C161.292 66.6877 160.023 69.9946 159.617 74.3698H183.515C182.906 65.4158 179.05 60.9388 171.947 60.9388Z" fill="#4B166B"/>
<path d="M280.5 42.929C284.66 42.929 287.958 44.0483 290.394 46.2868C292.829 48.5253 294.047 51.5778 294.047 55.4443V108.253C294.047 111.814 292.779 114.765 290.242 117.105C287.705 119.343 284.407 120.463 280.348 120.463C276.695 120.463 273.701 119.496 271.367 117.563C269.033 115.528 267.815 112.831 267.714 109.474C265.38 113.137 262.386 115.935 258.733 117.868C255.181 119.801 251.072 120.768 246.404 120.768C236.763 120.768 229.609 118.122 224.941 112.831C220.273 107.439 217.94 99.2986 217.94 88.4113V55.4443C217.94 51.5778 219.157 48.5253 221.593 46.2868C224.028 44.0483 227.326 42.929 231.487 42.929C235.647 42.929 238.945 44.0483 241.381 46.2868C243.816 48.5253 245.034 51.5778 245.034 55.4443V89.0218C245.034 96.3479 248.18 100.011 254.471 100.011C258.124 100.011 261.118 98.6881 263.452 96.0426C265.786 93.3971 266.953 89.9376 266.953 85.6641V55.4443C266.953 51.5778 268.171 48.5253 270.606 46.2868C273.041 44.0483 276.339 42.929 280.5 42.929Z" fill="#4B166B"/>
<path d="M526.097 42.6221C537.665 42.6221 546.189 45.4202 551.669 51.0165C557.25 56.511 560.041 64.9053 560.041 76.1996V108.098C560.041 111.965 558.874 115.017 556.54 117.256C554.308 119.393 551.162 120.461 547.103 120.461C543.551 120.461 540.608 119.443 538.274 117.408C536.042 115.373 534.824 112.626 534.621 109.167C533.2 112.83 530.816 115.679 527.467 117.714C524.118 119.749 520.11 120.766 515.442 120.766C510.267 120.766 505.599 119.749 501.438 117.714C497.278 115.577 493.98 112.677 491.544 109.014C489.21 105.249 488.043 101.027 488.043 96.3461C488.043 90.9534 489.413 86.6799 492.153 83.5256C494.994 80.2696 499.459 77.9294 505.548 76.5049C511.637 75.0804 519.856 74.3681 530.207 74.3681H534.317V72.5366C534.317 68.9754 533.505 66.4316 531.881 64.9053C530.258 63.2773 527.518 62.4633 523.662 62.4633C519.501 62.4633 513.412 63.8878 505.396 66.7369C503.062 67.5509 501.083 67.9579 499.459 67.9579C496.922 67.9579 494.893 67.0421 493.371 65.2106C491.849 63.3791 491.088 60.988 491.088 58.0372C491.088 55.7987 491.544 53.9672 492.457 52.5427C493.371 51.1182 494.842 49.8463 496.872 48.7271C500.423 46.8956 504.888 45.4202 510.267 44.3009C515.645 43.1817 520.922 42.6221 526.097 42.6221ZM521.835 102.604C525.488 102.604 528.482 101.332 530.816 98.7881C533.15 96.1426 534.317 92.7849 534.317 88.7149V86.8834H531.881C525.387 86.8834 520.769 87.4939 518.03 88.7149C515.29 89.8341 513.92 91.7674 513.92 94.5146C513.92 96.8549 514.63 98.7882 516.051 100.314C517.573 101.841 519.501 102.604 521.835 102.604Z" fill="#4B166B"/>
<path d="M624.848 42.6221C631.241 42.6221 636.923 44.3009 641.896 47.6587C646.97 50.9147 650.877 55.5443 653.616 61.5476C656.458 67.5509 657.878 74.419 657.878 82.152C657.878 89.885 656.458 96.7023 653.616 102.604C650.877 108.404 647.02 112.881 642.048 116.035C637.076 119.189 631.342 120.766 624.848 120.766C620.078 120.766 615.664 119.8 611.605 117.866C607.647 115.933 604.552 113.338 602.32 110.082V136.029C602.32 139.59 601.102 142.439 598.667 144.576C596.231 146.712 593.035 147.781 589.077 147.781C584.917 147.781 581.568 146.611 579.031 144.27C576.494 142.032 575.226 139.132 575.226 135.571V55.4426C575.226 51.6778 576.393 48.6762 578.727 46.4377C581.162 44.0974 584.409 42.9273 588.468 42.9273C592.324 42.9273 595.419 43.9448 597.753 45.9798C600.189 48.0148 601.559 50.7112 601.863 54.069C603.994 50.5077 607.089 47.7096 611.148 45.6746C615.309 43.6396 619.875 42.6221 624.848 42.6221ZM616.628 100.467C621.296 100.467 624.848 98.8899 627.283 95.7356C629.82 92.5814 631.089 88.0535 631.089 82.152C631.089 75.9452 629.82 71.2139 627.283 67.9579C624.746 64.6001 621.144 62.9212 616.476 62.9212C611.808 62.9212 608.206 64.5492 605.669 67.8052C603.132 71.0612 601.863 75.7417 601.863 81.8467C601.863 87.85 603.132 92.4796 605.669 95.7356C608.206 98.8899 611.859 100.467 616.628 100.467Z" fill="#4B166B"/>
<path d="M731.246 95.4304C733.58 95.4304 735.457 96.3461 736.878 98.1776C738.4 100.009 739.161 102.4 739.161 105.351C739.161 109.421 737.183 112.524 733.225 114.661C729.775 116.391 725.665 117.866 720.895 119.087C716.228 120.207 711.915 120.766 707.957 120.766C699.636 120.766 692.381 119.189 686.19 116.035C680 112.881 675.231 108.353 671.882 102.451C668.533 96.5496 666.859 89.6306 666.859 81.6941C666.859 74.1646 668.432 67.4491 671.578 61.5476C674.825 55.5443 679.29 50.9147 684.973 47.6587C690.757 44.3009 697.251 42.6221 704.456 42.6221C711.458 42.6221 717.598 44.1483 722.874 47.2008C728.151 50.2533 732.21 54.5777 735.052 60.174C737.994 65.7702 739.466 72.3331 739.466 79.8626C739.466 82.2029 738.908 84.0344 737.791 85.3571C736.777 86.5781 735.254 87.1886 733.225 87.1886H693.04C693.75 92.0726 695.323 95.583 697.759 97.7198C700.194 99.8565 703.797 100.925 708.566 100.925C711.103 100.925 713.437 100.671 715.568 100.162C717.699 99.5513 720.084 98.7373 722.722 97.7198C724.244 97.1093 725.716 96.6005 727.136 96.1935C728.658 95.6848 730.028 95.4304 731.246 95.4304ZM705.217 60.9371C701.666 60.9371 698.824 62.1072 696.693 64.4475C694.562 66.686 693.294 69.9929 692.888 74.3681H716.786C716.177 65.4141 712.321 60.9371 705.217 60.9371Z" fill="#4B166B"/>
<path d="M681.974 25.2709C678.629 28.6249 680.998 34.3598 685.729 34.3598L727.348 34.3598C732.079 34.3598 734.448 28.6249 731.103 25.2709L710.293 4.40508C708.219 2.32588 704.857 2.32588 702.784 4.40508L681.974 25.2709Z" fill="#FF895B"/>
</svg>
