<svg width="91" height="91" viewBox="0 0 91 91" fill="none" xmlns="http://www.w3.org/2000/svg">
<path d="M34.3465 28.5371C32.2463 28.5371 30.5962 30.2247 30.5962 32.2874C30.5962 34.35 32.2838 36.0376 34.3465 36.0376C36.4091 36.0376 38.0967 34.35 38.0967 32.2874C38.0967 30.2247 36.4091 28.5371 34.3465 28.5371Z" fill="#484848"/>
<path d="M80.5124 19.349C77.3622 12.036 70.4242 7.94824 60.7485 7.94824H29.3213C17.283 7.94824 7.53227 17.6989 7.53227 29.7373V61.1645C7.53227 70.8402 11.6201 77.7782 18.9331 80.9284C19.6456 81.2284 20.4707 81.0409 20.9957 80.5159L80.0999 21.4117C80.6624 20.8492 80.8499 20.0241 80.5124 19.349ZM39.522 46.351C38.0594 47.7761 36.1468 48.4511 34.2342 48.4511C32.3215 48.4511 30.4089 47.7386 28.9463 46.351C25.121 42.7507 20.9207 37.0128 22.5333 30.1873C23.9584 23.9994 29.4338 21.2242 34.2342 21.2242C39.0345 21.2242 44.5099 23.9994 45.935 30.2248C47.5101 37.0128 43.3098 42.7507 39.522 46.351Z" fill="#484848"/>
<path d="M73.0494 77.4406C73.8745 78.2657 73.762 79.6158 72.7494 80.1783C69.4492 82.016 65.4364 82.9535 60.7486 82.9535H29.3214C28.2338 82.9535 27.7838 81.6784 28.5338 80.9284L51.1854 58.2768C51.9355 57.5267 53.098 57.5267 53.8481 58.2768L73.0494 77.4406Z" fill="#484848"/>
<path d="M82.5377 29.7374V61.1646C82.5377 65.8524 81.6001 69.9027 79.7625 73.1655C79.2 74.178 77.8499 74.253 77.0248 73.4655L57.8235 54.2641C57.0734 53.5141 57.0734 52.3515 57.8235 51.6014L80.4751 28.9498C81.2626 28.1998 82.5377 28.6498 82.5377 29.7374Z" fill="#484848"/>
</svg>
