<svg width="37" height="27" viewBox="0 0 37 27" fill="none" xmlns="http://www.w3.org/2000/svg">
<path fill-rule="evenodd" clip-rule="evenodd" d="M3.16968 0.455566H33.9239C35.1372 0.455566 36.121 1.43584 36.121 2.6453C36.121 3.85476 35.1372 4.83541 33.9239 4.83541H3.16968C1.9564 4.83541 0.972656 3.85476 0.972656 2.6453C0.972656 1.43584 1.9564 0.455566 3.16968 0.455566ZM3.16968 11.4052H33.9239C35.1372 11.4052 36.121 12.3855 36.121 13.5949C36.121 14.8044 35.1372 15.7846 33.9239 15.7846H3.16968C1.9564 15.7846 0.972656 14.8044 0.972656 13.5949C0.972656 12.3855 1.9564 11.4052 3.16968 11.4052ZM3.16968 22.3538H33.9239C35.1372 22.3538 36.121 23.3345 36.121 24.544C36.121 25.7534 35.1372 26.7337 33.9239 26.7337H3.16968C1.9564 26.7337 0.972656 25.7534 0.972656 24.544C0.972656 23.3345 1.9564 22.3538 3.16968 22.3538Z" fill="black"/>
</svg>
