<svg width="164" height="164" viewBox="0 0 164 164" fill="none" xmlns="http://www.w3.org/2000/svg">
<path d="M109.055 21.2363H58.3944C36.3893 21.2363 23.2708 34.3548 23.2708 56.3599V106.96C23.2708 129.025 36.3893 142.144 58.3944 142.144H108.994C130.999 142.144 144.118 129.025 144.118 107.02V56.3599C144.178 34.3548 131.06 21.2363 109.055 21.2363Z" fill="#FF895B"/>
<path d="M94.0212 67.4543L72.2393 83.8016V107.999C72.2393 112.14 77.2426 114.21 80.1757 111.277L102.518 88.9344C106.098 85.3544 106.098 79.5315 102.518 75.9515L94.0212 67.4543Z" fill="white"/>
<path d="M72.2393 56.9299V83.8015L94.0212 67.4542L80.1757 53.6086C77.2426 50.7188 72.2393 52.7891 72.2393 56.9299Z" fill="white"/>
</svg>
