<svg width="164" height="164" viewBox="0 0 164 164" fill="none" xmlns="http://www.w3.org/2000/svg">
<path d="M108.69 21.0044H58.03C36.0249 21.0044 22.9065 34.1228 22.9065 56.128V106.728C22.9065 128.793 36.0249 141.912 58.03 141.912H108.63C130.635 141.912 143.753 128.793 143.753 106.788V56.128C143.814 34.1228 130.695 21.0044 108.69 21.0044Z" fill="#FF895B"/>
<path d="M72.4315 97.2292L94.2135 80.882L94.2135 56.6846C94.2135 52.5438 89.2101 50.4734 86.2771 53.4065L63.9343 75.7492C60.3543 79.3292 60.3543 85.1521 63.9343 88.7321L72.4315 97.2292Z" fill="white"/>
<path d="M94.2135 107.754L94.2135 80.8821L72.4315 97.2294L86.2771 111.075C89.2101 113.965 94.2135 111.894 94.2135 107.754Z" fill="white"/>
</svg>
