<svg width="91" height="91" viewBox="0 0 91 91" fill="none" xmlns="http://www.w3.org/2000/svg">
<path d="M55.6136 8.02393H35.1371V24.3751H55.6136V8.02393Z" fill="#494949"/>
<path d="M61.2385 8.02393V24.3751H82.39C80.4773 14.0619 72.8643 8.06143 61.2385 8.02393Z" fill="#494949"/>
<path d="M7.8725 30.0006V61.2403C7.8725 74.8913 16.0106 83.0294 29.6615 83.0294H61.0888C74.7397 83.0294 82.8778 74.8913 82.8778 61.2403V30.0006H7.8725ZM54.5258 61.2028L46.7252 65.7031C45.0751 66.6407 43.4625 67.1282 41.9624 67.1282C40.8373 67.1282 39.8248 66.8657 38.8872 66.3407C36.712 65.1031 35.5119 62.5529 35.5119 59.2527V50.252C35.5119 46.9518 36.712 44.4016 38.8872 43.164C41.0623 41.8889 43.8375 42.114 46.7252 43.8016L54.5258 48.3019C57.4135 49.952 58.9886 52.2772 58.9886 54.7899C58.9886 57.3025 57.376 59.5152 54.5258 61.2028Z" fill="#494949"/>
<path d="M29.5115 8.02393C17.8857 8.06143 10.2727 14.0619 8.36005 24.3751H29.5115V8.02393Z" fill="#494949"/>
</svg>
