<svg width="164" height="164" viewBox="0 0 164 164" fill="none" xmlns="http://www.w3.org/2000/svg">
<path d="M107.695 21.2446H57.0347C35.0296 21.2446 21.9112 34.3631 21.9112 56.3682V106.968C21.9112 129.033 35.0296 142.152 57.0347 142.152H107.634C129.64 142.152 142.758 129.033 142.758 107.028V56.3682C142.818 34.3631 129.7 21.2446 107.695 21.2446Z" fill="#FF895B"/>
<path d="M105.857 58.7196L88.8297 95.4072C87.3377 99.1812 84.7046 101.375 81.8082 101.375C79.4384 101.375 77.4197 100.147 76.2787 98.2158C75.05 95.9338 75.1377 93.1252 76.6298 90.7554L98.9232 55.0333C100.064 53.2779 102.346 52.6635 104.189 53.629C106.033 54.5945 106.735 56.7887 105.857 58.7196Z" fill="white"/>
<path d="M111.825 69.3397C110.509 67.9354 108.315 67.8476 106.822 69.1642C105.418 70.4807 105.33 72.675 106.647 74.167C112.44 80.4864 115.687 88.7367 115.687 97.4259C115.687 99.3568 117.267 100.937 119.198 100.937C121.129 100.937 122.709 99.3568 122.709 97.4259C122.709 86.9813 118.847 76.9756 111.825 69.3397Z" fill="white"/>
<path d="M85.1435 63.5468C87.0744 63.7223 88.742 62.318 88.9176 60.3871C89.0931 58.4562 87.6888 56.7886 85.7579 56.613C84.6169 56.5253 83.4759 56.4375 82.3349 56.4375C60.0415 56.4375 41.961 74.869 41.961 97.5135C41.961 99.4444 43.5409 101.024 45.4718 101.024C47.4027 101.024 48.9826 99.4444 48.9826 97.5135C48.9826 78.7309 63.9033 63.459 82.3349 63.459C83.3004 63.3713 84.2658 63.459 85.1435 63.5468Z" fill="white"/>
</svg>
