<svg width="164" height="164" viewBox="0 0 164 164" fill="none" xmlns="http://www.w3.org/2000/svg">
<path d="M107.695 20.1919H57.0347C35.0296 20.1919 21.9112 33.3103 21.9112 55.3155V105.915C21.9112 127.981 35.0296 141.099 57.0347 141.099H107.634C129.64 141.099 142.758 127.981 142.758 105.976V55.3155C142.818 33.3103 129.7 20.1919 107.695 20.1919Z" fill="#FF895B"/>
<path d="M82.3343 90.8123C87.5217 90.8123 91.7269 86.6071 91.7269 81.4197C91.7269 76.2323 87.5217 72.0271 82.3343 72.0271C77.1469 72.0271 72.9417 76.2323 72.9417 81.4197C72.9417 86.6071 77.1469 90.8123 82.3343 90.8123Z" fill="white"/>
<path d="M78.6869 48.0407C78.2988 46.1001 76.3582 44.8581 74.4176 45.3238C72.7098 45.7119 71.0021 46.1777 69.372 46.7987C67.509 47.4973 66.5775 49.5932 67.2761 51.3786C67.8195 52.8534 69.2167 53.7073 70.614 53.7073C71.0021 53.7073 71.4678 53.6297 71.856 53.4744C73.1756 53.0087 74.5728 52.5429 75.8924 52.3101C77.8331 51.9219 79.0751 49.9813 78.6869 48.0407Z" fill="white"/>
<path d="M68.1299 107.579C66.8879 106.88 65.6459 106.104 64.5592 105.25C63.0067 104.086 60.7556 104.396 59.5136 105.949C58.3492 107.501 58.6597 109.752 60.2122 110.994C61.6094 112.003 63.0843 113.012 64.6368 113.866C65.1802 114.177 65.8012 114.332 66.3446 114.332C67.5866 114.332 68.8286 113.633 69.5272 112.469C70.4587 110.761 69.8377 108.588 68.1299 107.579Z" fill="white"/>
<path d="M61.221 55.3377C59.8238 53.9405 57.5726 53.9405 56.1754 55.3377C54.9334 56.5797 53.769 57.8993 52.7599 59.2966C51.5955 60.8491 51.906 63.1002 53.4585 64.3422C54.0795 64.808 54.8558 65.0408 55.632 65.0408C56.7188 65.0408 57.8055 64.5751 58.5041 63.566C59.358 62.4792 60.2895 61.3925 61.2986 60.3833C62.6183 58.9861 62.6183 56.735 61.221 55.3377Z" fill="white"/>
<path d="M49.0342 82.6612C50.8972 82.6612 52.4496 81.1863 52.6049 79.3233C52.6825 77.9261 52.9154 76.5288 53.2259 75.1316C53.614 73.191 52.372 71.328 50.509 70.8622C48.4908 70.4741 46.6278 71.7161 46.2397 73.6567C45.8515 75.3645 45.6187 77.1498 45.4634 78.8576C45.3082 80.7982 46.783 82.5059 48.8013 82.6612C48.8789 82.6612 48.9565 82.6612 49.0342 82.6612Z" fill="white"/>
<path d="M54.4673 91.8989C53.7687 90.0359 51.6728 89.1044 49.8874 89.803C48.0244 90.5016 47.093 92.5975 47.7916 94.3829C48.4126 96.013 49.1112 97.6431 49.9651 99.1956C50.5861 100.36 51.8281 101.059 53.0701 101.059C53.6911 101.059 54.2344 100.903 54.7778 100.593C56.4856 99.6613 57.1842 97.4879 56.1751 95.7025C55.5541 94.5381 54.9331 93.2185 54.4673 91.8989Z" fill="white"/>
<path d="M118.43 73.579C118.042 71.6384 116.101 70.3964 114.161 70.8622C112.22 71.2503 110.978 73.1909 111.444 75.1315C111.754 76.5288 111.91 77.926 112.065 79.3233C112.22 81.1862 113.773 82.6611 115.636 82.6611C115.713 82.6611 115.791 82.6611 115.869 82.6611C117.809 82.5059 119.362 80.7981 119.206 78.8575C119.051 77.0721 118.818 75.2868 118.43 73.579Z" fill="white"/>
<path d="M114.86 89.7249C112.997 89.0263 110.979 89.9577 110.28 91.8207C109.815 93.1404 109.194 94.46 108.495 95.702C107.563 97.4097 108.184 99.5832 109.892 100.592C110.436 100.903 111.057 101.058 111.6 101.058C112.842 101.058 114.084 100.359 114.783 99.1951C115.636 97.6426 116.335 96.0125 116.956 94.3824C117.655 92.5194 116.723 90.4235 114.86 89.7249Z" fill="white"/>
<path d="M111.211 64.2643C112.763 63.0999 113.151 60.8488 111.909 59.2187C110.9 57.8215 109.736 56.5018 108.416 55.1822C107.019 53.785 104.768 53.785 103.371 55.1822C101.973 56.5795 101.973 58.9082 103.371 60.3054C104.38 61.3146 105.311 62.4013 106.165 63.4881C106.864 64.4196 107.951 64.8853 109.037 64.8853C109.814 65.0406 110.59 64.8077 111.211 64.2643Z" fill="white"/>
<path d="M100.189 105.25C99.0243 106.104 97.8599 106.88 96.6179 107.579C94.9102 108.51 94.2115 110.684 95.2207 112.469C95.8416 113.633 97.0836 114.332 98.4033 114.332C98.9466 114.332 99.5676 114.177 100.111 113.866C101.664 113.012 103.138 112.081 104.536 110.994C106.088 109.83 106.399 107.579 105.234 105.949C103.992 104.396 101.819 104.086 100.189 105.25Z" fill="white"/>
<path d="M84.5084 111.149C83.1112 111.227 81.6363 111.227 80.239 111.149C78.2984 110.994 76.5907 112.469 76.4354 114.487C76.2802 116.428 77.7551 118.136 79.7733 118.291C80.6272 118.368 81.481 118.368 82.3349 118.368C83.1888 118.368 84.1203 118.368 84.9742 118.291C86.9148 118.136 88.4673 116.428 88.312 114.487C88.1568 112.469 86.449 110.994 84.5084 111.149Z" fill="white"/>
<path d="M97.317 51.3788C98.0156 49.5158 97.0841 47.4975 95.2211 46.7989C93.5134 46.1779 91.8056 45.6345 90.0979 45.324C88.1572 44.9359 86.2942 46.1779 85.8285 48.0409C85.4404 49.9815 86.6824 51.9221 88.623 52.3103C90.0202 52.6208 91.4175 53.0089 92.7371 53.4746C93.1252 53.6299 93.591 53.7075 93.9791 53.7075C95.3763 53.7075 96.7736 52.8536 97.317 51.3788Z" fill="white"/>
</svg>
