<svg width="164" height="164" viewBox="0 0 164 164" fill="none" xmlns="http://www.w3.org/2000/svg">
<path d="M107.582 19.9529H56.9223C34.9172 19.9529 21.7988 33.0713 21.7988 55.0765V105.676C21.7988 127.742 34.9172 140.86 56.9223 140.86H107.522C129.527 140.86 142.646 127.742 142.646 105.737V55.0765C142.706 33.0713 129.588 19.9529 107.582 19.9529Z" fill="#FF895B"/>
<path d="M116.373 47.4071H62.0815C62.0815 46.0132 61.5281 44.6768 60.5429 43.6915C59.5576 42.7062 58.2211 42.1528 56.8278 42.1528H55.076C53.6827 42.1528 52.3463 42.7062 51.361 43.6915C50.3757 44.6767 49.8223 46.0133 49.8223 47.4071V100.254C48.7986 100.616 47.9123 101.286 47.2855 102.172C46.6582 103.058 46.3204 104.116 46.3192 105.202V106.953C46.3223 107.619 46.4499 108.278 46.6961 108.897C45.5838 109.199 44.6015 109.857 43.901 110.772C43.1998 111.687 42.8186 112.806 42.8168 113.958V115.71C42.8168 117.103 43.3702 118.44 44.3554 119.425C45.3407 120.41 46.6772 120.964 48.0711 120.964H63.8332C65.2271 120.964 66.5635 120.41 67.5488 119.425C68.5341 118.44 69.0875 117.103 69.0875 115.71V113.958C69.0857 112.806 68.7045 111.687 68.0033 110.772C67.3027 109.857 66.3204 109.199 65.2082 108.897C65.4543 108.278 65.582 107.619 65.5851 106.953V105.202C65.5838 104.116 65.246 103.058 64.6187 102.172C63.992 101.286 63.1057 100.616 62.0819 100.254V59.6665H70.8387V63.1689C69.4454 63.1689 68.1089 63.7229 67.1236 64.7082C66.1384 65.6935 65.585 67.03 65.585 68.4232V91.1907C65.585 92.584 66.1384 93.9205 67.1236 94.9057C68.1089 95.891 69.4454 96.4444 70.8387 96.4444H112.871C114.264 96.4444 115.601 95.891 116.586 94.9057C117.571 93.9205 118.125 92.584 118.125 91.1907V68.4232C118.124 67.1827 117.684 65.9825 116.882 65.035C116.081 64.0876 114.97 63.4549 113.747 63.2477V59.6665H116.374H116.373C117.767 59.6665 119.104 59.1131 120.089 58.1279C121.074 57.1426 121.628 55.8061 121.628 54.4122V52.661C121.628 51.2677 121.074 49.9313 120.089 48.946C119.104 47.9607 117.767 47.4073 116.373 47.4073L116.373 47.4071ZM53.3248 47.4071C53.3248 46.4396 54.1091 45.6553 55.076 45.6553H56.8278C57.292 45.6553 57.7373 45.8398 58.0659 46.1684C58.3946 46.497 58.579 46.9423 58.579 47.4072V99.9475H53.3247L53.3248 47.4071ZM49.8224 105.201C49.8224 104.235 50.6061 103.45 51.5736 103.45H60.3303C60.7945 103.45 61.2404 103.635 61.5685 103.963C61.8971 104.291 62.0815 104.737 62.0815 105.202V106.953C62.0815 107.418 61.8971 107.863 61.5685 108.191C61.2404 108.52 60.7945 108.705 60.3303 108.705H51.5736C50.6061 108.705 49.8224 107.92 49.8224 106.953V105.201ZM63.8335 112.207H63.8329C64.2977 112.207 64.743 112.391 65.0716 112.72C65.4002 113.048 65.5847 113.494 65.5847 113.958V115.709C65.5847 116.174 65.4002 116.62 65.0716 116.948C64.743 117.277 64.2977 117.461 63.8329 117.461H48.0708C47.1032 117.461 46.319 116.677 46.319 115.709V113.958C46.319 112.991 47.1032 112.207 48.0708 112.207L63.8335 112.207ZM114.622 68.4234V91.1909C114.622 91.6551 114.438 92.1004 114.109 92.429C113.781 92.7577 113.335 92.9421 112.871 92.9421H70.839C69.872 92.9421 69.0878 92.1578 69.0878 91.1909V68.4235C69.0878 67.4559 69.8721 66.6723 70.839 66.6723H112.871C113.335 66.6723 113.781 66.8567 114.109 67.1854C114.438 67.5134 114.622 67.9593 114.622 68.4235V68.4234ZM74.3415 63.1691V59.6667H110.244V63.1691H74.3415ZM118.125 54.4124C118.125 54.8772 117.941 55.3225 117.612 55.6511C117.283 55.9797 116.838 56.1642 116.373 56.1642H62.0816V50.9098H116.373C116.838 50.9098 117.283 51.0943 117.612 51.4229C117.941 51.7509 118.125 52.1968 118.125 52.6611V54.4124Z" fill="white"/>
<path d="M96.2298 70.1753H87.4731C86.5056 70.1753 85.7213 70.9596 85.7213 71.9265V76.3049C85.7213 77.6255 86.147 78.9106 86.9362 79.9692C87.7248 81.0278 88.8347 81.8035 90.0996 82.1811V85.9376H87.473C86.5055 85.9376 85.7212 86.7219 85.7212 87.6888C85.7212 88.6563 86.5055 89.4399 87.473 89.4399H96.2297C97.1967 89.4399 97.9809 88.6563 97.9809 87.6888C97.9809 86.7218 97.1966 85.9376 96.2297 85.9376H93.6026V82.1811C94.8676 81.8036 95.9775 81.0279 96.7659 79.9692C97.5551 78.9107 97.9809 77.6256 97.9809 76.3049V71.9265C97.9809 71.4623 97.7964 71.017 97.4678 70.6884C97.1392 70.3597 96.6939 70.1753 96.2296 70.1753L96.2298 70.1753ZM94.4786 76.3049H94.478C94.478 77.2437 93.9778 78.1111 93.1648 78.5802C92.3518 79.0493 91.3506 79.0493 90.5376 78.5802C89.7252 78.1111 89.2243 77.2437 89.2243 76.3049V73.6783H94.4787L94.4786 76.3049Z" fill="white"/>
</svg>
