<svg width="164" height="164" viewBox="0 0 164 164" fill="none" xmlns="http://www.w3.org/2000/svg">
<path d="M107.519 21.1531H56.8588C34.8537 21.1531 21.7352 34.2715 21.7352 56.2766V106.876C21.7352 128.942 34.8537 142.06 56.8588 142.06H107.458C129.464 142.06 142.582 128.942 142.582 106.937V56.2766C142.643 34.2715 129.524 21.1531 107.519 21.1531Z" fill="#FF895B"/>
<path d="M51.4039 93.4563H61.9894V75.5746C61.9894 71.1401 58.4132 67.564 53.9788 67.564C49.5443 67.564 46.1112 71.1401 46.1112 75.5746C46.1112 79.0077 48.4 82.0117 51.4039 83.1561V93.4563Z" fill="white"/>
<path d="M110.339 67.564C105.905 67.564 102.329 71.1401 102.329 75.5746V93.5985H112.914V83.013C116.061 81.8686 118.207 79.0077 118.207 75.4315C118.207 71.1401 114.631 67.564 110.339 67.564Z" fill="white"/>
<path d="M66.7091 83.4414C65.9939 83.4414 65.4217 83.5845 64.8495 83.8705V93.5977H99.4668V83.8705C98.8946 83.5845 98.3224 83.4414 97.6072 83.4414H66.7091Z" fill="white"/>
<path d="M51.404 100.178C51.404 101.037 51.9762 101.609 52.8345 101.609H56.1245L57.2689 107.903C57.412 108.618 57.9841 109.047 58.6994 109.047H60.559C61.4173 109.047 61.9895 108.475 61.9895 107.617V101.609H102.186V107.617C102.186 108.475 102.759 109.047 103.617 109.047H105.477C106.192 109.047 106.764 108.618 106.907 107.903L108.051 101.609H111.484C112.343 101.609 112.915 101.037 112.915 100.178V96.4592H51.4048L51.404 100.178Z" fill="white"/>
<path d="M64.8488 75.5745V80.8672C65.421 80.7242 65.9932 80.5811 66.7084 80.5811H97.6065C98.1787 80.5811 98.894 80.5811 99.4662 80.8672V75.5745C99.4662 69.7096 104.33 64.846 110.195 64.7029V63.5585C110.195 58.4089 106.046 54.2605 100.897 54.2605H63.2761C58.1264 54.2605 53.9781 58.4089 53.9781 63.5585V64.7029C59.9861 64.7029 64.8496 69.5665 64.8496 75.5745H64.8488Z" fill="white"/>
</svg>
