<svg width="164" height="164" viewBox="0 0 164 164" fill="none" xmlns="http://www.w3.org/2000/svg">
<path d="M109.386 21.0044H58.7257C36.7206 21.0044 23.6021 34.1228 23.6021 56.128V106.728C23.6021 128.793 36.7206 141.912 58.7257 141.912H109.325C131.331 141.912 144.449 128.793 144.449 106.788V56.128C144.509 34.1228 131.391 21.0044 109.386 21.0044Z" fill="#FF895B"/>
<path d="M50.565 42.0049H117.487C119.153 42.0049 120.505 43.3574 120.505 45.0233V56.6794C120.505 58.3454 119.152 59.6981 117.487 59.6981H50.565C48.8991 59.6981 47.5466 58.3453 47.5466 56.6794V45.0233C47.5466 43.3573 48.8991 42.0049 50.565 42.0049V42.0049Z" fill="white"/>
<path fill-rule="evenodd" clip-rule="evenodd" d="M70.273 80.7438C70.273 77.8649 72.61 75.5271 75.4891 75.5271C78.368 75.5271 80.7058 77.8649 80.7058 80.7438C80.7058 83.6229 78.368 85.9608 75.4891 85.9608C72.61 85.9608 70.273 83.6229 70.273 80.7438ZM80.9973 97.5241C80.9973 94.645 83.3352 92.3071 86.2143 92.3071C89.0931 92.3071 91.4303 94.645 91.4303 97.5241C91.4303 100.403 89.0932 102.741 86.2143 102.741C83.3352 102.741 80.9973 100.403 80.9973 97.5241ZM54.0826 62.8701L66.9681 90.1985L80.8673 119.674C82.6102 123.371 85.4404 123.371 87.1833 119.674L101.082 90.1985L113.968 62.8701H54.0826ZM88.4027 74.3962C88.4027 71.5171 90.7398 69.18 93.6189 69.18C96.498 69.18 98.8359 71.5171 98.8359 74.3962C98.8359 77.275 96.498 79.6129 93.6189 79.6129C90.7398 79.6129 88.4027 77.275 88.4027 74.3962Z" fill="white"/>
</svg>
