<svg width="164" height="164" viewBox="0 0 164 164" fill="none" xmlns="http://www.w3.org/2000/svg">
<path d="M103.161 21.0566H52.501C30.4959 21.0566 17.3774 34.1751 17.3774 56.1802V106.78C17.3774 128.845 30.4959 141.964 52.501 141.964H103.101C125.106 141.964 138.224 128.845 138.224 106.84V56.1802C138.285 34.1751 125.166 21.0566 103.161 21.0566Z" fill="#FF895B"/>
<path fill-rule="evenodd" clip-rule="evenodd" d="M43.5508 48.5493C52.9552 48.5493 66.2414 49.3441 73.0309 56.1976C78.2166 61.4317 78.2124 71.7067 74.8293 77.6799C73.5184 74.7513 72.0784 72.287 70.5992 70.2033C66.8407 64.9089 62.9415 62.2404 60.7465 60.7383L60.7399 60.7338L60.7392 60.7333L60.7385 60.7328C60.6412 60.6661 60.5441 60.6003 60.4577 60.5416L60.3601 60.4752C60.2463 60.3978 60.1577 60.337 60.0831 60.2843C60.0182 60.2384 59.9779 60.2085 59.9541 60.1902C58.12 58.4178 55.1937 58.4369 53.3832 60.2475C51.5533 62.0773 51.5533 65.0469 53.3832 66.8768L53.3886 66.8821L53.394 66.8875C53.9501 67.4382 54.7528 67.9952 55.4469 68.4699L55.447 68.47L55.4655 68.4826C57.6924 70.0052 61.5598 72.6495 64.9593 78.8763C65.6868 80.2088 66.3985 81.7164 67.0686 83.4246C65.162 83.9916 63.0715 84.2924 60.9727 84.2924C56.6181 84.2924 52.2247 82.9986 49.3592 80.1046C42.5697 73.2474 41.7863 59.8291 41.7863 50.3312C41.7863 49.3475 42.5768 48.5493 43.5508 48.5493ZM89.4908 83.0833C91.0079 83.761 92.7078 84.237 94.4471 84.4631C98.0312 84.929 101.78 84.3367 104.447 82.2624C110.752 77.3448 112.807 66.3854 113.803 58.5682C113.907 57.7586 113.34 57.017 112.538 56.9128C104.798 55.9066 93.7795 55.1364 87.4719 60.0535C83.1187 63.4452 81.822 70.6786 83.2053 75.9356C86.656 72.0084 91.0608 68.5621 96.6521 65.9333L96.6621 65.9286C98.6683 64.9942 101.767 65.4661 103.016 68.1162C103.74 69.6503 103.681 71.7323 102.403 73.1853V73.5941L100.642 74.4217C95.9359 76.6333 92.2917 79.6217 89.4908 83.0833ZM84.537 79.1101C87.8712 74.9886 92.248 71.3901 97.9559 68.7065C98.7643 68.33 99.8618 68.6091 100.245 69.4241C100.628 70.2358 100.41 71.1384 99.602 71.5216C99.602 71.5216 99.339 71.645 99.339 71.6483C93.9808 74.1661 89.897 77.5882 86.8058 81.5215C86.0863 80.9792 85.4628 80.3777 84.9646 79.7268C84.8148 79.531 84.6723 79.3251 84.537 79.1101ZM72.677 80.4406C71.8959 81.1531 70.9626 81.7768 69.9206 82.3031C65.8202 71.8525 60.0549 67.9084 57.1766 65.9403C56.4266 65.4274 55.8715 65.0281 55.55 64.7098C54.9169 64.0767 54.9169 63.0474 55.55 62.4143C56.1831 61.7813 57.2124 61.7813 57.8455 62.4143C58.0328 62.599 58.3437 62.8102 58.7418 63.0805C58.8266 63.1382 58.9155 63.1984 59.0079 63.2617L59.0103 63.2634C62.0982 65.3767 68.2518 69.5879 72.677 80.4406Z" fill="white"/>
<path d="M100.577 69.602C100.192 68.7795 99.0881 68.4978 98.2749 68.8778C85.7512 74.7855 79.5988 85.0871 76.8032 95.6769C73.3449 73.1602 63.3422 66.2958 59.1002 63.383C58.5712 63.0193 58.1597 62.7538 57.9311 62.5278C57.2943 61.8889 56.2591 61.8889 55.6223 62.5278C54.9855 63.1667 54.9855 64.2054 55.6223 64.8443C55.9456 65.1655 56.504 65.5685 57.2584 66.0862C62.0393 69.3661 74.7393 78.0851 74.7393 112.833C74.7393 113.738 75.4709 114.472 76.3722 114.472C77.2735 114.472 78.005 113.738 78.005 112.837C78.005 98.7966 81.7639 80.287 99.666 71.8466C99.666 71.8433 99.9306 71.7187 99.9306 71.7187C100.744 71.332 100.962 70.4211 100.577 69.602Z" fill="white"/>
</svg>
