<svg width="164" height="164" viewBox="0 0 164 164" fill="none" xmlns="http://www.w3.org/2000/svg">
<g clip-path="url(#clip0_1_2997)">
<path d="M107.154 21.2446H56.4942C34.489 21.2446 21.3706 34.3631 21.3706 56.3682V106.968C21.3706 129.033 34.489 142.152 56.4942 142.152H107.094C129.099 142.152 142.217 129.033 142.217 107.028V56.3682C142.278 34.3631 129.159 21.2446 107.154 21.2446Z" fill="#FF895B"/>
<path d="M88.095 81.1423L102.859 96.3879C103.983 97.5913 105.908 97.5913 107.112 96.4679C108.315 95.3446 108.315 93.4187 107.192 92.2152L96.1992 80.8211L99.7299 77.5311L100.933 81.4631V81.5431C101.254 82.6664 102.377 83.3885 103.501 83.2284L109.359 82.7471C110.723 82.667 111.766 81.4631 111.685 80.0991C111.605 78.7351 110.401 77.6918 109.037 77.7725L105.186 78.0932L104.223 74.8839C103.983 74.1618 103.661 73.5199 103.261 72.958L101.094 69.9892C100.532 69.1866 99.5693 68.6252 98.6067 68.5452C97.5634 68.4652 96.6007 68.7859 95.8786 69.5079L88.3359 76.89C87.774 77.4519 87.3732 78.174 87.3732 78.9761C87.3732 79.2968 87.4533 79.6181 87.5339 79.9388C87.5333 80.4201 87.774 80.8215 88.0953 81.1427L88.095 81.1423Z" fill="white"/>
<path d="M111.486 64.1917C113.45 66.2996 113.333 69.5996 111.225 71.5631C109.117 73.5265 105.817 73.4096 103.854 71.3017C101.891 69.1944 102.007 65.8938 104.115 63.9309C106.223 61.9675 109.523 62.0844 111.486 64.1917" fill="white"/>
<path d="M120.592 108.023H114.333C111.605 108.023 108.877 106.9 106.951 104.894L80.1511 77.6119C79.2685 76.7293 78.2252 76.0872 77.1019 75.6059V56.91C77.1019 55.9473 76.7006 55.0646 75.9785 54.4227L64.3439 44.7941C63.1405 43.8313 61.3751 43.8313 60.2518 44.7941L48.6971 54.5028C47.975 55.0648 47.5737 55.9474 47.5737 56.9102V111.233C47.5737 112.998 49.0178 114.442 50.783 114.442C52.5483 114.442 53.9924 112.998 53.9924 111.233V106.579H70.6823V111.233C70.6823 112.998 72.1263 114.442 73.8916 114.442C75.6569 114.442 77.1009 112.998 77.1009 111.233L77.1015 83.5499L102.457 109.387C105.587 112.596 109.919 114.362 114.413 114.362H120.672C122.437 114.362 123.881 112.918 123.881 111.153C123.881 109.387 122.357 108.023 120.592 108.023L120.592 108.023ZM62.3378 56.4286C65.3871 56.4286 67.7939 58.9159 67.7939 61.8846C67.7939 64.9339 65.3865 67.3406 62.3378 67.3406C59.3691 67.3406 56.8818 64.9333 56.8818 61.8846C56.8818 58.8359 59.2891 56.4286 62.3378 56.4286ZM70.6831 100.24H53.9932V94.061H70.6831V100.24ZM70.6831 87.6422H53.9932V81.4636H70.6831V87.6422Z" fill="white"/>
</g>
<defs>
<clipPath id="clip0_1_2997">
<rect width="163.021" height="163.021" fill="white" transform="translate(0.283691 0.571777)"/>
</clipPath>
</defs>
</svg>
