<svg width="164" height="164" viewBox="0 0 164 164" fill="none" xmlns="http://www.w3.org/2000/svg">
<path d="M107.06 20.9961H56.4002C34.3951 20.9961 21.2767 34.1145 21.2767 56.1197V106.719C21.2767 128.785 34.3951 141.903 56.4002 141.903H107C129.005 141.903 142.123 128.785 142.123 106.78V56.1197C142.184 34.1145 129.066 20.9961 107.06 20.9961Z" fill="#FF895B"/>
<path d="M92.1854 83.3638C89.3888 78.9579 84.6261 76.3271 79.4445 76.3271C74.263 76.3271 69.5001 78.9579 66.7041 83.3638L59.9654 93.9802C58.8474 95.7414 58.3315 97.7765 58.4733 99.8638C58.6151 101.952 59.4016 103.896 60.7478 105.487C62.0949 107.078 63.8747 108.165 65.8952 108.631C67.9156 109.097 69.9866 108.898 71.8841 108.056L72.0112 107.999C76.7859 105.922 82.2419 105.941 87.0044 108.056C88.2329 108.601 89.5344 108.877 90.8478 108.877C91.5619 108.877 92.2802 108.795 92.9919 108.632C95.0123 108.166 96.7923 107.079 98.1398 105.488C99.4864 103.898 100.273 101.953 100.416 99.8648C100.558 97.7765 100.042 95.7419 98.9241 93.9797L92.1854 83.3638Z" fill="white"/>
<path d="M61.7805 83.3499C63.7852 82.5723 65.3081 80.9409 66.0687 78.7559C66.7927 76.6768 66.7335 74.3295 65.9013 72.1459C65.0687 69.9638 63.5543 68.1825 61.6368 67.1296C59.6226 66.0239 57.4098 65.8438 55.4084 66.6229C51.3819 68.1863 49.534 73.2114 51.2899 77.8269C52.6925 81.5006 55.9636 83.8197 59.2708 83.8197C60.1153 83.8197 60.9621 83.6683 61.7805 83.3499Z" fill="white"/>
<path d="M74.8556 75.0322C79.8893 75.0322 83.9844 70.3205 83.9844 64.5288C83.9844 58.7356 79.8893 54.0229 74.8556 54.0229C69.8225 54.0229 65.7278 58.7356 65.7278 64.5288C65.7278 70.3205 69.8225 75.0322 74.8556 75.0322Z" fill="white"/>
<path d="M90.6212 77.6128H90.6217C91.396 77.8723 92.1859 77.9963 92.9725 77.9963C96.6434 77.9963 100.221 75.2981 101.586 71.1513C102.372 68.7643 102.32 66.2402 101.44 64.0447C100.52 61.7463 98.8131 60.078 96.6349 59.3468C94.4561 58.6156 92.1001 58.9206 90 60.2049C87.994 61.4316 86.4568 63.4222 85.6715 65.8092C84.0143 70.8449 86.2349 76.14 90.6212 77.6128Z" fill="white"/>
<path d="M109.846 76.3869L109.844 76.3855C106.373 73.7959 101.182 74.9183 98.2709 78.8889C95.363 82.8614 95.8177 88.202 99.2838 90.7935C100.548 91.7393 102.041 92.1912 103.57 92.1912C106.234 92.1912 109.006 90.8179 110.859 88.2925C113.767 84.3199 113.312 78.9794 109.846 76.3869Z" fill="white"/>
</svg>
