<svg width="164" height="164" viewBox="0 0 164 164" fill="none" xmlns="http://www.w3.org/2000/svg">
<path d="M107.6 19.9529H56.9399C34.9348 19.9529 21.8163 33.0713 21.8163 55.0765V105.676C21.8163 127.742 34.9348 140.86 56.9399 140.86H107.54C129.545 140.86 142.663 127.742 142.663 105.737V55.0765C142.724 33.0713 129.605 19.9529 107.6 19.9529Z" fill="#FF895B"/>
<path d="M82.2399 46.0598C62.8344 46.0598 47.0211 61.9986 47.0211 81.5581C47.0211 101.118 62.8344 117.056 82.2399 117.056C101.645 117.056 117.459 101.118 117.459 81.5581C117.459 61.9986 101.645 46.0598 82.2399 46.0598ZM99.0745 73.3935L79.1054 93.521C78.6124 94.018 77.9432 94.302 77.2388 94.302C76.5345 94.302 75.8653 94.018 75.3722 93.521L65.4053 83.475C64.384 82.4456 64.384 80.7417 65.4053 79.7122C66.4267 78.6828 68.1172 78.6828 69.1385 79.7122L77.2388 87.8768L95.3413 69.6307C96.3626 68.6012 98.0531 68.6012 99.0745 69.6307C100.096 70.6601 100.096 72.3286 99.0745 73.3935Z" fill="white"/>
</svg>
