<svg width="164" height="164" viewBox="0 0 164 164" fill="none" xmlns="http://www.w3.org/2000/svg">
<path d="M106.871 21.0044H56.2104C34.2053 21.0044 21.0869 34.1228 21.0869 56.128V106.728C21.0869 128.793 34.2053 141.912 56.2104 141.912H106.81C128.815 141.912 141.934 128.793 141.934 106.788V56.128C141.994 34.1228 128.876 21.0044 106.871 21.0044Z" fill="#FF895B"/>
<path d="M58.2996 46.3699V73.5003C58.2996 85.7389 67.8132 95.779 79.8368 96.64V115.428H70.1558V118.082H92.865V115.428H83.184V96.6162C95.2076 95.7557 104.721 85.7162 104.721 73.4765V46.3701L58.2996 46.3699ZM73.3112 76.3698L68.9129 73.86L71.4227 69.4618L75.821 71.9716L73.3112 76.3698ZM86.9122 83.756L83.7092 81.9394L85.5259 78.7364L88.7289 80.553L86.9122 83.756ZM101.948 59.8995C99.9397 57.9155 97.9797 57.0549 96.0195 57.2461C93.8443 57.4612 92.5057 58.9432 91.4062 60.1383C90.3545 61.2857 89.6612 62.0267 88.6573 62.0506C87.6773 62.0745 86.9602 61.3574 85.8844 60.1861C84.6653 58.8715 83.1355 57.2222 80.6974 57.6047C78.5939 57.9154 77.2791 59.3257 76.2036 60.4252C75.1997 61.477 74.5782 62.0746 73.7894 62.0507C72.9766 62.0268 72.4029 61.4053 71.5425 60.4013C70.5624 59.2779 69.3911 57.9154 67.3593 57.6046C65.3514 57.3177 63.2718 58.1544 61.0725 60.2101V49.2146H101.923L101.948 59.8995Z" fill="white"/>
</svg>
