<svg width="164" height="164" viewBox="0 0 164 164" fill="none" xmlns="http://www.w3.org/2000/svg">
<path d="M106.871 20.8164H56.2104C34.2053 20.8164 21.0869 33.9348 21.0869 55.94V106.54C21.0869 128.605 34.2053 141.724 56.2104 141.724H106.81C128.815 141.724 141.934 128.605 141.934 106.6V55.94C141.994 33.9348 128.876 20.8164 106.871 20.8164Z" fill="#FF895B"/>
<path fill-rule="evenodd" clip-rule="evenodd" d="M74.4946 67.9891C74.4346 67.9267 74.3741 67.8647 74.313 67.803C67.6231 61.0469 56.7384 61.0468 50.0484 67.8029C43.3585 74.5591 43.3585 85.5518 50.0484 92.3079C54.618 96.9259 61.2357 98.408 67.3437 96.4082L71.3437 100.394C71.6361 100.69 72.0322 100.856 72.4464 100.856H75.2979V103.789C75.2979 104.238 75.4883 104.666 75.8203 104.966C76.1539 105.264 76.5972 105.413 77.0373 105.353L79.4074 105.075L79.7167 108.391C79.7868 109.145 80.3762 109.74 81.1226 109.811L84.4067 110.124L84.1325 112.517C84.0777 112.996 84.2422 113.473 84.5788 113.812L86.7844 116.041C87.0768 116.337 87.4729 116.503 87.8872 116.503H96.711C97.5732 116.503 98.2709 115.798 98.2709 114.928V106.016C98.2709 105.598 98.1063 105.198 97.8138 104.903L78.4912 85.3888C78.9001 84.1138 79.1567 82.8119 79.2662 81.5079C75.916 79.7768 73.6229 76.2563 73.6229 72.1948C73.6229 70.6987 73.934 69.276 74.4946 67.9891ZM61.0778 78.9417C59.253 80.7846 56.2859 80.7846 54.461 78.9417C52.6363 77.0988 52.6362 74.1023 54.461 72.2594C56.2859 70.4165 59.253 70.4165 61.0778 72.2594C62.9026 74.1023 62.9026 77.0988 61.0778 78.9417Z" fill="white"/>
<path fill-rule="evenodd" clip-rule="evenodd" d="M110.418 78.472C109.017 77.6527 107.222 78.1346 106.412 79.5522C103.461 84.7026 97.9686 87.9039 92.0851 87.9039C82.9665 87.9039 75.5452 80.41 75.5452 71.2022C75.5452 61.9925 82.9666 54.4986 92.0851 54.4986C99.5011 54.4986 105.787 59.4614 107.874 66.2726H106.295C105.531 66.2726 104.844 66.7187 104.52 67.4094L104.519 67.4115C104.195 68.1083 104.302 68.9291 104.789 69.519L109.658 75.4192C110.03 75.8691 110.58 76.1299 111.163 76.1299C111.745 76.1299 112.297 75.8667 112.667 75.4182L117.537 69.5177C118.024 68.9261 118.127 68.1059 117.804 67.4105C117.481 66.7165 116.791 66.2716 116.028 66.2716H113.948C111.716 56.1582 102.765 48.5723 92.0851 48.5723C79.7302 48.5723 69.679 58.7231 69.679 71.2002C69.679 83.6775 79.7292 93.8273 92.0851 93.8273C100.06 93.8273 107.493 89.4938 111.49 82.5195C112.3 81.1028 111.822 79.292 110.418 78.472Z" fill="white"/>
<path d="M90.4043 57.925C89.4491 57.925 88.6751 58.6981 88.6751 59.6521V70.132C87.8932 70.6794 87.3784 71.5819 87.3784 72.6068C87.3784 74.2736 88.7364 75.6299 90.4051 75.6299C90.8622 75.6299 91.293 75.5206 91.6817 75.3378L97.6967 78.8052C97.9699 78.9634 98.2658 79.0378 98.56 79.0378C99.1571 79.0378 99.7385 78.7282 100.059 78.1738C100.536 77.3491 100.253 76.2919 99.425 75.8153L93.4039 72.3427C93.3234 71.4297 92.8479 70.6322 92.1352 70.1337V59.6521C92.1335 58.6989 91.3586 57.925 90.4043 57.925ZM90.4043 73.901C89.689 73.901 89.1076 73.3195 89.1076 72.6068C89.1076 71.8932 89.6898 71.3117 90.4043 71.3117C91.1187 71.3117 91.701 71.8932 91.701 72.6068C91.701 73.3195 91.1187 73.901 90.4043 73.901Z" fill="white"/>
</svg>
