<svg width="164" height="164" viewBox="0 0 164 164" fill="none" xmlns="http://www.w3.org/2000/svg">
<path d="M107.78 21.0044H57.1202C35.1151 21.0044 21.9967 34.1228 21.9967 56.128V106.728C21.9967 128.793 35.1151 141.912 57.1202 141.912H107.72C129.725 141.912 142.844 128.793 142.844 106.788V56.128C142.904 34.1228 129.786 21.0044 107.78 21.0044Z" fill="#FF895B"/>
<path d="M115.768 85.766C115.264 80.408 113.788 74.6929 103.016 74.6929H60.195C49.4227 74.6929 47.9797 80.408 47.4427 85.766L45.5635 105.542C45.3285 108.01 46.1675 110.478 47.9125 112.329C49.6911 114.212 52.208 115.284 54.8927 115.284H61.2017C66.6382 115.284 67.6785 112.264 68.3497 110.283L69.0208 108.334C69.7927 106.094 69.994 105.542 73.0143 105.542H90.1963C93.2165 105.542 93.3172 105.866 94.1897 108.334L94.8609 110.283C95.5321 112.264 96.5724 115.284 102.009 115.284H108.318C110.969 115.284 113.519 114.212 115.298 112.329C117.043 110.478 117.882 108.01 117.647 105.542L115.768 85.766Z" fill="white"/>
<path d="M110.748 63.7687H107.51C107.477 63.7687 107.477 63.7687 107.445 63.7687L106.214 58.1194C105.049 52.6574 102.62 47.6323 92.9709 47.6323H84.034H79.177H70.2402C60.5909 47.6323 58.1624 52.6574 56.9967 58.1194L55.7663 63.7687C55.7339 63.7687 55.7339 63.7687 55.7015 63.7687H52.4635C51.136 63.7687 50.035 64.8299 50.035 66.1096C50.035 67.3892 51.136 68.4504 52.4635 68.4504H54.7625L53.4026 74.6928C55.1511 73.7252 57.5796 73.1322 60.9471 73.1322H102.264C105.631 73.1322 108.06 73.7252 109.809 74.6928L108.449 68.4504H110.748C112.075 68.4504 113.176 67.3892 113.176 66.1096C113.176 64.8299 112.075 63.7687 110.748 63.7687Z" fill="white"/>
<path d="M70.3301 92.7332H61.3099C60.0772 92.7332 59.0549 91.7109 59.0549 90.4782C59.0549 89.2454 60.0772 88.2231 61.3099 88.2231H70.3301C71.5628 88.2231 72.5851 89.2454 72.5851 90.4782C72.5851 91.7109 71.5628 92.7332 70.3301 92.7332Z" fill="#FF895B"/>
<path d="M101.901 92.7332H92.8806C91.6478 92.7332 90.6255 91.7109 90.6255 90.4782C90.6255 89.2454 91.6478 88.2231 92.8806 88.2231H101.901C103.133 88.2231 104.156 89.2454 104.156 90.4782C104.156 91.7109 103.133 92.7332 101.901 92.7332Z" fill="#FF895B"/>
</svg>
