<svg width="164" height="164" viewBox="0 0 164 164" fill="none" xmlns="http://www.w3.org/2000/svg">
<path d="M107.6 21.0566H56.94C34.9349 21.0566 21.8165 34.1751 21.8165 56.1802V106.78C21.8165 128.845 34.9349 141.964 56.94 141.964H107.54C129.545 141.964 142.663 128.845 142.663 106.84V56.1802C142.724 34.1751 129.605 21.0566 107.6 21.0566Z" fill="#FF895B"/>
<path d="M50.4914 54.0283C50.4914 51.2176 52.7477 48.939 55.5308 48.939H108.949C111.732 48.939 113.988 51.2176 113.988 54.0283V70.3142H50.4914V54.0283Z" fill="white"/>
<path d="M95.8464 114.083V97.7966H74.6807V114.083H95.8464Z" fill="white"/>
<path d="M71.6571 114.082V73.3677H50.4914V108.993C50.4914 111.804 52.7477 114.082 55.5308 114.082H71.6571Z" fill="white"/>
<path d="M113.989 73.6004L75.0791 73.3677L74.9513 94.0601L113.861 94.2929L113.989 73.6004Z" fill="white"/>
</svg>
