<svg width="164" height="164" viewBox="0 0 164 164" fill="none" xmlns="http://www.w3.org/2000/svg">
<path d="M107.687 21.8835H57.0269C35.0217 21.8835 21.9033 35.002 21.9033 57.0071V107.607C21.9033 129.672 35.0217 142.791 57.0269 142.791H107.627C129.632 142.791 142.75 129.672 142.75 107.667V57.0071C142.811 35.002 129.692 21.8835 107.687 21.8835Z" fill="#FF895B"/>
<path d="M113.411 67.3867H71.5992C69.5565 67.3867 66.1463 68.1611 66.1463 73.4164V81.4558H118.864V73.4164C118.864 68.1775 115.454 67.3867 113.411 67.3867Z" fill="white"/>
<path d="M54.779 83.2023H46.822V55.0972H41.5502V109.578H46.822V95.5086H117.118V109.561H122.39V83.2023H54.779Z" fill="white"/>
<path d="M55.603 81.7854C59.6701 81.7854 62.967 78.4884 62.967 74.4214C62.967 70.3543 59.6701 67.0574 55.603 67.0574C51.536 67.0574 48.239 70.3543 48.239 74.4214C48.239 78.4884 51.536 81.7854 55.603 81.7854Z" fill="white"/>
</svg>
