<svg width="164" height="164" viewBox="0 0 164 164" fill="none" xmlns="http://www.w3.org/2000/svg">
<path d="M107.499 19.9529H56.8393C34.8342 19.9529 21.7157 33.0713 21.7157 55.0765V105.676C21.7157 127.742 34.8342 140.86 56.8393 140.86H107.439C129.444 140.86 142.563 127.742 142.563 105.737V55.0765C142.623 33.0713 129.505 19.9529 107.499 19.9529Z" fill="#FF895B"/>
<path d="M116.685 56.9131C116.257 56.3148 115.574 55.9734 114.805 55.9734H53.3845L51.5903 48.5415C51.3341 47.4308 50.3944 46.7473 49.2837 46.7473H38.4351C37.154 46.7473 36.0432 47.7722 36.0432 49.1392C36.0432 50.5062 37.1539 51.5311 38.4351 51.5311H47.4049L60.304 104.922C60.5602 106.033 61.4999 106.716 62.6106 106.716H65.7712C64.4901 107.656 63.5503 109.193 63.5503 110.987C63.5503 113.978 65.9422 116.369 68.9322 116.369C71.9224 116.369 74.3142 113.977 74.3142 110.987C74.3142 109.193 73.3745 107.741 72.0933 106.716H93.7058C92.4247 107.656 91.4849 109.193 91.4849 110.987C91.4849 113.978 93.8769 116.369 96.8669 116.369C99.8571 116.369 102.249 113.977 102.249 110.987C102.249 109.193 101.309 107.741 100.028 106.716H101.565C102.846 106.716 103.957 105.691 103.957 104.324C103.957 103.043 102.846 101.932 101.565 101.932H64.4892L63.1223 96.38H106.177C107.287 96.38 108.227 95.6113 108.483 94.5857L117.111 58.9634C117.282 58.1947 117.112 57.4255 116.684 56.9131L116.685 56.9131ZM77.1327 79.7216L76.2782 72.6313H90.117L89.2625 79.7216H77.1327ZM88.6655 84.5059L87.811 91.5962L78.4998 91.5956L77.6453 84.5053L88.6655 84.5059ZM57.3998 72.6318H71.4947L72.3492 79.7221L59.1081 79.7215L57.3998 72.6318ZM75.6808 67.8475L74.8263 60.7572H91.4842L90.6297 67.8475H75.6808ZM70.0426 60.7577L70.8971 67.848L56.204 67.8474L54.4956 60.7571L70.0426 60.7577ZM60.219 84.5059H72.8618L73.7163 91.5962L61.9275 91.5956L60.219 84.5059ZM92.5952 91.5957L93.4497 84.5054H106.007L104.299 91.5957H92.5952ZM107.203 79.7216H94.0474L94.9019 72.6313H108.912L107.203 79.7216ZM110.022 67.8475H95.4142L96.2687 60.7572H111.731L110.022 67.8475Z" fill="white"/>
</svg>
