<svg width="164" height="164" viewBox="0 0 164 164" fill="none" xmlns="http://www.w3.org/2000/svg">
<path d="M107.424 21.1531H56.7642C34.7591 21.1531 21.6406 34.2715 21.6406 56.2766V106.876C21.6406 128.942 34.7591 142.06 56.7642 142.06H107.364C129.369 142.06 142.487 128.942 142.487 106.937V56.2766C142.548 34.2715 129.429 21.1531 107.424 21.1531Z" fill="#FF895B"/>
<path d="M112.031 69.2447C104.045 61.2581 93.4173 56.8354 82.0641 56.8354C70.7109 56.8354 60.0838 61.2579 52.0969 69.2447C50.2487 71.0929 50.2487 73.9972 52.0969 75.8454C53.021 76.7695 54.2094 77.2318 55.3973 77.2318C56.5852 77.2318 57.7735 76.7695 58.6976 75.8454C64.9019 69.5744 73.2191 66.142 82.0641 66.142C90.909 66.142 99.2259 69.5744 105.431 75.845C107.279 77.6932 110.183 77.6932 112.031 75.845C113.88 73.9968 113.88 71.0266 112.031 69.2443V69.2447Z" fill="white"/>
<path d="M64.5063 81.7199C62.6581 83.5681 62.6581 86.4724 64.5063 88.3206C65.4304 89.2447 66.6187 89.707 67.8066 89.707C68.9945 89.707 70.1829 89.2447 71.107 88.3206C77.1796 82.2479 87.0146 82.2479 93.0213 88.2547C94.8036 90.1029 97.7738 90.1029 99.622 88.2547C101.47 86.4065 101.47 83.5022 99.622 81.654C89.9189 72.0168 74.2093 72.0168 64.5063 81.7199Z" fill="white"/>
<path d="M89.3908 99.2117C89.3908 103.222 86.1402 106.472 82.1298 106.472C78.1199 106.472 74.8693 103.222 74.8693 99.2117C74.8693 95.2014 78.1199 91.9507 82.1298 91.9507C86.1401 91.9507 89.3908 95.2013 89.3908 99.2117Z" fill="white"/>
</svg>
