<svg width="164" height="164" viewBox="0 0 164 164" fill="none" xmlns="http://www.w3.org/2000/svg">
<path d="M107.519 20.2866H56.8588C34.8537 20.2866 21.7352 33.4051 21.7352 55.4102V106.01C21.7352 128.075 34.8537 141.194 56.8588 141.194H107.458C129.464 141.194 142.582 128.075 142.582 106.07V55.4102C142.643 33.4051 129.524 20.2866 107.519 20.2866Z" fill="#FF895B"/>
<path d="M91.8607 116.991C90.9861 116.991 90.1762 116.501 89.7551 115.75C89.334 114.966 89.334 114.052 89.7875 113.268L93.1888 107.555C93.869 106.412 95.3591 106.02 96.5252 106.706C97.6913 107.391 98.0477 108.893 97.3674 110.069L96.4928 111.538C105.433 109.416 112.138 101.319 112.138 91.6543C112.138 90.3157 113.24 89.2056 114.568 89.2056C115.896 89.2056 116.997 90.3157 116.997 91.6543C116.965 105.628 105.692 116.991 91.8607 116.991Z" fill="white"/>
<path d="M49.7499 74.5458C48.4218 74.5458 47.3205 73.4357 47.3205 72.097C47.3205 58.1556 58.5932 46.7935 72.4248 46.7935C73.2994 46.7935 74.1093 47.2832 74.5304 48.0341C74.9515 48.8177 74.9515 49.7319 74.498 50.5155L71.0967 56.2292C70.4165 57.372 68.9264 57.7638 67.7603 57.0455C66.6265 56.3598 66.2378 54.858 66.9505 53.6826L67.8251 52.2133C58.8523 54.3356 52.1794 62.4327 52.1794 72.097C52.1794 73.4357 51.078 74.5458 49.7499 74.5458Z" fill="white"/>
<path d="M96.3951 69.5176L84.2155 62.8897C82.9198 62.2041 81.3973 62.2041 80.1016 62.8897L67.8896 69.5176C67.015 70.0074 66.4643 70.9542 66.4643 71.999C66.4643 73.0765 67.015 74.0233 67.8896 74.513L80.0692 81.141C80.7171 81.5001 81.4297 81.6633 82.1424 81.6633C82.855 81.6633 83.5676 81.5001 84.2155 81.141L96.3951 74.513C97.2697 74.0233 97.8204 73.0765 97.8204 71.999C97.8204 70.9542 97.2697 70.0074 96.3951 69.5176Z" fill="white"/>
<path d="M78.0609 83.4265L66.7235 77.7128C65.8489 77.2884 64.8447 77.321 64.0025 77.8434C63.1927 78.3658 62.7068 79.2474 62.7068 80.2268V91.0339C62.7068 92.895 63.7434 94.5927 65.3954 95.409L76.7328 101.123C77.1215 101.319 77.5426 101.417 77.9961 101.417C78.5144 101.417 79.0003 101.286 79.4538 100.992C80.296 100.47 80.7819 99.5882 80.7819 98.6087V87.8016C80.7495 85.9406 79.7453 84.2754 78.0609 83.4265Z" fill="white"/>
<path d="M100.25 77.8434C99.4079 77.321 98.4038 77.2884 97.5292 77.7128L86.1917 83.4265C84.5397 84.2754 83.5031 85.9406 83.5031 87.8016V98.6087C83.5031 99.5882 83.989 100.47 84.8312 100.992C85.2847 101.286 85.7706 101.417 86.2889 101.417C86.71 101.417 87.1311 101.319 87.5522 101.123L98.8896 95.409C100.542 94.5601 101.578 92.895 101.578 91.0339V80.2268C101.578 79.2474 101.092 78.3658 100.25 77.8434Z" fill="white"/>
</svg>
