<svg width="164" height="164" viewBox="0 0 164 164" fill="none" xmlns="http://www.w3.org/2000/svg">
<path d="M107.33 20.8164H56.6699C34.6647 20.8164 21.5463 33.9348 21.5463 55.94V106.54C21.5463 128.605 34.6647 141.724 56.6699 141.724H107.27C129.275 141.724 142.393 128.605 142.393 106.6V55.94C142.454 33.9348 129.335 20.8164 107.33 20.8164Z" fill="#FF895B"/>
<path d="M47.8817 102.989L60.6333 115.74C59.3798 116.26 57.9999 116.397 56.6682 116.135C55.3372 115.873 54.1129 115.222 53.1502 114.265L49.3591 110.474C48.3999 109.512 47.7483 108.288 47.4853 106.955C47.2223 105.623 47.3601 104.243 47.8817 102.989ZM56.4833 85.5047V85.504C55.435 84.4579 54.0142 83.8706 52.5335 83.8706C51.052 83.8706 49.6312 84.4579 48.583 85.504L47.1439 86.9431V86.9438C46.0993 87.9935 45.5127 89.4143 45.5127 90.8951C45.5127 92.3765 46.0993 93.7966 47.1439 94.8471L68.7768 116.48C69.8258 117.525 71.2466 118.112 72.7273 118.112C74.2088 118.112 75.6297 117.525 76.6786 116.48L78.1184 115.04C79.1644 113.992 79.7525 112.572 79.7525 111.09C79.7525 109.61 79.1644 108.189 78.1184 107.141L56.4833 85.5047ZM114.581 52.8347L110.789 49.0428C109.827 48.0844 108.602 47.432 107.269 47.1697C105.937 46.9068 104.556 47.0441 103.302 47.5657L116.058 60.3193C116.579 59.0658 116.717 57.6851 116.454 56.3527C116.191 55.021 115.539 53.7967 114.581 52.8347ZM116.795 68.4608L95.1655 46.8316C94.1172 45.7841 92.6965 45.196 91.2143 45.196C89.7328 45.196 88.3114 45.7841 87.263 46.8316L85.8239 48.2707C84.7779 49.319 84.1898 50.7397 84.1898 52.2212C84.1898 53.7019 84.7779 55.1228 85.8239 56.171L107.457 77.8039C108.505 78.8499 109.926 79.4372 111.407 79.4372C112.888 79.4372 114.309 78.8499 115.357 77.8039L116.797 76.3641C117.841 75.3143 118.427 73.8935 118.427 72.4128C118.427 70.9314 117.841 69.5112 116.797 68.4608L116.795 68.4608ZM71.0265 85.8413C69.1469 87.7209 69.1469 90.7684 71.0265 92.648C72.9062 94.5276 75.9536 94.5276 77.8332 92.648L92.9661 77.5151C94.8457 75.6355 94.8457 72.588 92.9661 70.7084C91.0865 68.8288 88.0391 68.8288 86.1595 70.7084L71.0265 85.8413Z" fill="white"/>
</svg>
