<svg width="164" height="164" viewBox="0 0 164 164" fill="none" xmlns="http://www.w3.org/2000/svg">
<path d="M107.235 21.0044H56.5752C34.57 21.0044 21.4516 34.1228 21.4516 56.128V106.728C21.4516 128.793 34.57 141.912 56.5752 141.912H107.175C129.18 141.912 142.298 128.793 142.298 106.788V56.128C142.359 34.1228 129.24 21.0044 107.235 21.0044Z" fill="#FF895B"/>
<path d="M76.6074 86.6868H67.5769C66.3297 86.6868 65.3192 87.6973 65.3192 88.9444V113.817C65.3192 115.064 66.3297 116.075 67.5769 116.075H76.6074C77.8546 116.075 78.8651 115.064 78.8651 113.817V88.9444C78.8651 87.6973 77.8546 86.6868 76.6074 86.6868Z" fill="white"/>
<path d="M76.6074 86.6868H72.0922V116.075H76.6074C77.8546 116.075 78.8651 115.064 78.8651 113.817V88.9444C78.8651 87.6973 77.8546 86.6868 76.6074 86.6868Z" fill="white"/>
<path d="M114.234 116.075H49.516C48.2689 116.075 47.2584 115.064 47.2584 113.817C47.2584 112.57 48.2689 111.56 49.516 111.56H114.235C115.481 111.56 116.492 112.57 116.492 113.817C116.492 115.064 115.481 116.075 114.234 116.075Z" fill="white"/>
<path d="M97.5581 104.788L90.1533 112.224C89.7186 112.666 89.5007 113.242 89.4988 113.817H94.9369L100.689 107.994L106.523 113.817H111.98C111.978 113.242 111.757 112.666 111.315 112.224L103.925 104.789L111.315 97.3536C111.874 96.794 112.08 96.0196 111.935 95.3047H106.979L100.689 101.583L94.449 95.3047H89.5437C89.4006 96.0196 89.6033 96.794 90.1534 97.3536L97.5581 104.788Z" fill="white"/>
<path d="M111.98 113.817C111.978 113.242 111.757 112.666 111.315 112.224L103.925 104.789L111.315 97.3536C111.874 96.794 112.08 96.0196 111.935 95.3047H106.979L100.689 101.583V107.994L106.523 113.817H111.98Z" fill="white"/>
<path d="M114.234 98.0156H87.143C85.8959 98.0156 84.8854 97.0051 84.8854 95.7579C84.8854 94.5108 85.8959 93.5002 87.143 93.5002H114.235C115.482 93.5002 116.492 94.5108 116.492 95.7579C116.492 97.0051 115.482 98.0156 114.234 98.0156Z" fill="white"/>
<path d="M114.234 93.5007H100.689V98.0159H114.234C115.481 98.0159 116.492 97.0054 116.492 95.7583C116.492 94.5112 115.481 93.5007 114.234 93.5007Z" fill="white"/>
<path d="M114.234 111.56H72.0922V116.075H114.234C115.481 116.075 116.492 115.064 116.492 113.817C116.492 112.57 115.481 111.56 114.234 111.56Z" fill="white"/>
<path d="M87.8804 61.9671C87.5192 53.5688 80.5809 46.8411 72.0922 46.8411C63.6186 46.8411 56.6952 53.5386 56.3039 61.922C50.7503 64.5558 47.2584 70.3203 47.2584 76.1901C47.2584 84.9044 54.3472 91.9935 63.0618 91.9935C66.2976 91.9935 69.4283 90.9851 72.0923 89.1038C74.7563 90.9851 77.8868 91.9935 81.1228 91.9935C89.8372 91.9935 96.9262 84.9046 96.9262 76.1901C96.926 70.0795 93.3589 64.5558 87.8804 61.9671Z" fill="white"/>
<path d="M96.926 76.1901C96.926 84.9044 89.8371 91.9935 81.1226 91.9935C77.8867 91.9935 74.7561 90.9851 72.092 89.1038V46.8411C80.5807 46.8411 87.5191 53.5688 87.8803 61.9671C93.3589 64.5558 96.926 70.0795 96.926 76.1901Z" fill="white"/>
</svg>
