<svg width="164" height="164" viewBox="0 0 164 164" fill="none" xmlns="http://www.w3.org/2000/svg">
<path d="M106.871 20.1919H56.2104C34.2053 20.1919 21.0869 33.3103 21.0869 55.3155V105.915C21.0869 127.981 34.2053 141.099 56.2104 141.099H106.81C128.815 141.099 141.934 127.981 141.934 105.976V55.3155C141.994 33.3103 128.876 20.1919 106.871 20.1919Z" fill="#FF895B"/>
<path d="M114.41 68.256C110.405 50.6331 95.0329 42.699 81.5296 42.699C81.5296 42.699 81.5296 42.699 81.4915 42.699C68.0264 42.699 52.6158 50.595 48.6106 68.2179C44.1477 87.9006 56.2015 104.57 67.1109 115.06C71.1542 118.95 76.3419 120.896 81.5296 120.896C86.7173 120.896 91.905 118.95 95.9102 115.06C106.82 104.57 118.873 87.9387 114.41 68.256ZM81.5296 87.3666C74.8924 87.3666 69.514 81.9881 69.514 75.3509C69.514 68.7137 74.8924 63.3353 81.5296 63.3353C88.1668 63.3353 93.5452 68.7137 93.5452 75.3509C93.5452 81.9881 88.1668 87.3666 81.5296 87.3666Z" fill="white"/>
</svg>
