<svg width="164" height="164" viewBox="0 0 164 164" fill="none" xmlns="http://www.w3.org/2000/svg">
<path d="M109.637 21.0044H58.9772C36.9721 21.0044 23.8536 34.1228 23.8536 56.128V106.728C23.8536 128.793 36.9721 141.912 58.9772 141.912H109.577C131.582 141.912 144.7 128.793 144.7 106.788V56.128C144.761 34.1228 131.642 21.0044 109.637 21.0044Z" fill="#FF895B"/>
<path d="M107.733 75.1578C106.612 75.1578 105.49 75.251 104.462 75.5313L99.9768 63.8503H107.359C108.574 63.8503 109.508 62.9156 109.508 61.7012C109.508 60.4862 108.573 59.5521 107.359 59.5521H96.8928C96.1452 59.5521 95.4914 59.9256 95.1172 60.4868C94.7437 61.0474 94.6498 61.7951 94.9301 62.4496L97.3596 68.8037C92.0327 74.4108 82.3145 75.5319 78.857 75.8122L73.5301 64.2246L77.548 63.7572C78.2957 63.664 78.8563 63.1027 78.8563 62.3558V61.2346C78.8563 60.4869 78.2957 59.9264 77.548 59.8331L64.8392 58.4317C64.2786 58.3385 63.718 58.6188 63.4378 59.1794C63.1575 59.6467 63.1575 60.3005 63.531 60.7679L66.2406 64.3191C66.5209 64.6926 66.8951 64.8796 67.3618 64.8796H67.5489L69.0442 64.6926L71.2871 69.4582L66.708 76.3735C64.9323 75.5326 62.8765 75.1585 60.8206 75.1585C52.6909 75.1585 46.149 81.6996 46.149 89.83C46.149 97.9598 52.6902 104.502 60.8206 104.502C68.3897 104.502 74.6507 98.708 75.3983 91.3254H78.0148C78.6692 92.9139 80.0706 94.129 81.7523 94.5024V96.1841L80.4461 96.1835C79.6984 96.1835 79.0446 96.8379 79.0446 97.5849C79.0446 98.3326 79.6991 98.9864 80.4461 98.9864H85.3988C86.1465 98.9864 86.8002 98.3319 86.8002 97.5849C86.8002 96.8373 86.1458 96.1835 85.3988 96.1835H84.3708V94.5011C86.707 93.8466 88.4827 91.6975 88.4827 89.1743C88.4827 88.1463 88.2024 87.2115 87.735 86.4646L99.0425 73.3823L100.444 77.1199C96.0519 79.6431 93.0619 84.4088 93.0619 89.8287C93.0619 97.9585 99.6031 104.5 107.734 104.5C115.77 104.5 122.405 97.9592 122.405 89.8287C122.404 81.699 115.863 75.1578 107.733 75.1578L107.733 75.1578ZM73.251 74.0366L78.5772 85.7175C78.2969 86.091 78.0166 86.5584 77.7363 87.0258H74.9327C74.2782 83.7548 72.5965 80.8581 70.0733 78.7089L73.251 74.0366ZM67.7378 82.2595C69.046 83.5677 70.0739 85.1562 70.5413 86.9318H64.5607L67.7378 82.2595ZM60.6354 100.108C54.9351 100.108 50.2628 95.4356 50.2628 89.7353C50.2628 84.035 54.9351 79.3626 60.6354 79.3626C61.8504 79.3626 63.0649 79.5497 64.0928 80.017L58.8599 87.9597C58.3925 88.6142 58.3925 89.4551 58.7667 90.2027C59.1402 90.8571 59.8879 91.3238 60.6355 91.3238H70.8211C70.0741 96.2765 65.8684 100.108 60.6355 100.108L60.6354 100.108ZM82.8759 91.7911C81.3806 91.7911 80.1663 90.5761 80.1663 89.0815C80.1663 87.5862 81.3813 86.3718 82.8759 86.3718C84.3712 86.3718 85.5855 87.5868 85.5855 89.0815C85.5855 90.5761 84.3712 91.7911 82.8759 91.7911ZM84.3712 83.7546C83.9038 83.6614 83.4365 83.5676 82.9698 83.5676C82.7827 83.5676 82.5963 83.5676 82.4092 83.6608L80.7275 79.9232C82.8766 79.7361 85.9604 79.2688 89.2313 78.2415L84.3712 83.7546ZM107.733 100.108C102.033 100.108 97.3604 95.4356 97.3604 89.7353C97.3604 86.0908 99.2292 82.9138 102.033 81.1381L105.677 90.5761C106.051 91.417 106.798 91.9776 107.64 91.9776C107.92 91.9776 108.201 91.9776 108.388 91.7905C109.509 91.3231 110.069 90.1088 109.603 88.9869L106.051 79.5495C106.611 79.4563 107.172 79.3625 107.733 79.3625C113.433 79.3625 118.105 84.0348 118.105 89.7351C118.106 95.4354 113.433 100.108 107.733 100.108L107.733 100.108Z" fill="white"/>
</svg>
