<svg width="164" height="164" viewBox="0 0 164 164" fill="none" xmlns="http://www.w3.org/2000/svg">
<path d="M107.235 20.8164H56.5752C34.57 20.8164 21.4516 33.9348 21.4516 55.94V106.54C21.4516 128.605 34.57 141.724 56.5752 141.724H107.175C129.18 141.724 142.298 128.605 142.298 106.6V55.94C142.359 33.9348 129.24 20.8164 107.235 20.8164Z" fill="#FF895B"/>
<path d="M68.6455 52.2985H67.882C66.0606 52.2985 64.5398 51.0012 63.3913 49.5875C61.9907 47.8634 59.8518 46.7595 57.4593 46.7595H54.408C50.1986 46.7595 46.7747 50.1761 46.7747 54.3754V55.7599C46.7747 59.9593 50.199 63.3758 54.408 63.3758H68.6455C71.707 63.3758 74.1971 60.8909 74.1971 57.8368C74.1971 54.7833 71.707 52.2985 68.6455 52.2985Z" fill="white"/>
<path d="M115.072 52.2873C114.091 51.4274 113.144 50.4453 112.389 49.3815C111.263 47.7949 109.424 46.7595 107.35 46.7595H106.857C104.783 46.7595 102.944 47.7952 101.818 49.3821C101.063 50.4457 100.117 51.4274 99.136 52.287C97.9703 53.3087 97.2318 54.8166 97.2318 56.4961V56.6994C97.2318 59.7698 99.7009 62.2681 102.736 62.2681H111.472C114.507 62.2681 116.976 59.7698 116.976 56.6994V56.4961C116.976 54.8171 116.238 53.3091 115.072 52.2873Z" fill="white"/>
<path d="M99.6757 78.6856C101.027 79.2978 102.559 78.31 102.559 76.8268V76.5102C102.559 75.558 103.331 74.7861 104.283 74.7861C105.235 74.7861 106.007 74.0142 106.007 73.062V69.6668C106.007 67.416 104.182 65.5913 101.931 65.5913H98.0167C95.7658 65.5913 93.9412 67.416 93.9412 69.6668V76.3313C93.9412 78.0466 95.7131 79.189 97.2755 78.4809C97.8946 78.2003 98.6047 78.2003 99.2239 78.4808L99.6757 78.6856Z" fill="white"/>
<path d="M66.5703 85.7656C66.5703 86.8597 67.4572 87.7466 68.5513 87.7466H71.2186C73.4694 87.7466 75.2941 85.9219 75.2941 83.6711V74.6444C75.2941 72.6975 73.9171 71.0225 72.007 70.6459L68.0923 69.8739C65.5734 69.3772 63.2283 71.3051 63.2283 73.8724V80.5329C63.2283 81.7743 63.8573 82.9312 64.8993 83.6061L65.6662 84.1029C66.23 84.468 66.5703 85.0939 66.5703 85.7656Z" fill="white"/>
<path d="M106.3 112.501H102.187V84.4648L97.8618 82.6359L93.5367 84.4648V112.501H89.4234V62.2683H79.6884V112.501H75.575V92.1196H66.5537V112.501H62.4408V87.1424L56.0644 83.0614L49.6886 87.1424V112.501H46.7747V116.548H116.976V112.501H113.971V79.2302H106.3V112.501Z" fill="white"/>
</svg>
