<svg width="164" height="164" viewBox="0 0 164 164" fill="none" xmlns="http://www.w3.org/2000/svg">
<path d="M107.348 20.2866H56.6879C34.6828 20.2866 21.5643 33.4051 21.5643 55.4102V106.01C21.5643 128.075 34.6828 141.194 56.6879 141.194H107.288C129.293 141.194 142.411 128.075 142.411 106.07V55.4102C142.472 33.4051 129.353 20.2866 107.348 20.2866Z" fill="#FF895B"/>
<path d="M96.0031 47.0264H67.9731C55.7978 47.0264 48.5394 54.3423 48.5394 66.6143V94.8667C48.5394 98.5416 49.175 101.744 50.4126 104.442C53.2891 110.847 59.4437 114.455 67.9731 114.455H96.0031C108.178 114.455 115.437 107.139 115.437 94.8667V87.1462V66.6143C115.437 54.3423 108.178 47.0264 96.0031 47.0264ZM109.985 82.4262C107.376 80.1674 103.161 80.1674 100.552 82.4262L86.6375 94.4621C84.0285 96.721 79.8139 96.721 77.2049 94.4621L76.0677 93.5182C73.6928 91.4279 69.9131 91.2256 67.2372 93.0462L54.7274 101.508C53.9916 99.6204 53.5567 97.429 53.5567 94.8667V66.6143C53.5567 57.1069 58.5406 52.0835 67.9731 52.0835H96.0031C105.436 52.0835 110.419 57.1069 110.419 66.6143V82.7971L109.985 82.4262Z" fill="white"/>
</svg>
