<svg width="164" height="164" viewBox="0 0 164 164" fill="none" xmlns="http://www.w3.org/2000/svg">
<path d="M109.325 21.0044H58.6649C36.6598 21.0044 23.5414 34.1228 23.5414 56.128V106.728C23.5414 128.793 36.6598 141.912 58.6649 141.912H109.265C131.27 141.912 144.388 128.793 144.388 106.788V56.128C144.449 34.1228 131.33 21.0044 109.325 21.0044Z" fill="#FF895B"/>
<path d="M88.7969 68.4911C88.5014 65.3452 87.6344 61.9895 81.3094 61.9895H56.1672C49.8423 61.9895 48.995 65.3452 48.6797 68.4911L47.5763 80.1025C47.4384 81.5515 47.931 83.0006 48.9556 84.0873C49.9999 85.1932 51.4777 85.8224 53.054 85.8224H56.7583C59.9504 85.8224 60.5612 84.0492 60.9553 82.8862L61.3494 81.7422C61.8025 80.4266 61.9208 80.1025 63.6941 80.1025H73.7825C75.5559 80.1025 75.615 80.2932 76.1273 81.7422L76.5214 82.8862C76.9155 84.0492 77.5263 85.8224 80.7183 85.8224H84.4227C85.9793 85.8224 87.4768 85.1932 88.5211 84.0873C89.5457 83.0006 90.0383 81.5515 89.9004 80.1025L88.7969 68.4911Z" fill="white"/>
<path d="M119.25 99.484C118.954 96.3381 118.087 92.9824 111.762 92.9824H86.6202C80.2953 92.9824 79.448 96.3381 79.1327 99.484L78.0293 111.095C77.8914 112.544 78.384 113.993 79.4086 115.08C80.4529 116.186 81.9307 116.815 83.507 116.815H87.2114C90.4034 116.815 91.0142 115.042 91.4083 113.879L91.8024 112.735C92.2556 111.42 92.3738 111.095 94.1471 111.095H104.236C106.009 111.095 106.068 111.286 106.58 112.735L106.974 113.879C107.368 115.042 107.979 116.815 111.171 116.815H114.876C116.432 116.815 117.93 116.186 118.974 115.08C119.999 113.993 120.491 112.544 120.353 111.095L119.25 99.484Z" fill="white"/>
<path d="M85.8493 55.5753H83.9481C83.9291 55.5753 83.9291 55.5753 83.9101 55.5753L83.1876 52.2583C82.5032 49.0513 81.0773 46.1008 75.4117 46.1008H70.1644H67.3126H62.0653C56.3997 46.1008 54.9738 49.0513 54.2894 52.2583L53.567 55.5753C53.5479 55.5753 53.5479 55.5753 53.5289 55.5753H51.6277C50.8482 55.5753 50.2018 56.1984 50.2018 56.9498C50.2018 57.7011 50.8482 58.3242 51.6277 58.3242H52.9776L52.1791 61.9894C53.2057 61.4213 54.6316 61.0731 56.6089 61.0731H80.8682C82.8454 61.0731 84.2713 61.4213 85.298 61.9894L84.4995 58.3242H85.8493C86.6288 58.3242 87.2752 57.7011 87.2752 56.9498C87.2752 56.1984 86.6288 55.5753 85.8493 55.5753Z" fill="white"/>
<path d="M113.965 86.655L114.035 86.9758H114.363H114.363H114.363H114.363H114.364H114.364H114.364H114.364H114.364H114.364H114.364H114.364H114.364H114.365H114.365H114.365H114.365H114.365H114.365H114.365H114.365H114.365H114.365H114.366H114.366H114.366H114.366H114.366H114.366H114.366H114.366H114.366H114.366H114.367H114.367H114.367H114.367H114.367H114.367H114.367H114.367H114.367H114.367H114.368H114.368H114.368H114.368H114.368H114.368H114.368H114.368H114.368H114.368H114.368H114.369H114.369H114.369H114.369H114.369H114.369H114.369H114.369H114.369H114.369H114.369H114.37H114.37H114.37H114.37H114.37H114.37H114.37H114.37H114.37H114.37H114.37H114.37H114.371H114.371H114.371H114.371H114.371H114.371H114.371H114.371H114.371H114.371H114.371H114.371H114.371H114.372H114.372H114.372H114.372H114.372H114.372H114.372H114.372H114.372H114.372H114.372H114.372H114.373H114.373H114.373H114.373H114.373H114.373H114.373H114.373H114.373H114.373H114.373H114.373H114.373H114.373H114.374H114.374H114.374H114.374H114.374H114.374H114.374H114.374H114.374H114.374H114.374H114.374H114.374H114.374H114.375H114.375H114.375H114.375H114.375H114.375H114.375H114.375H114.375H114.375H114.375H114.375H114.375H114.375H114.375H114.376H114.376H114.376H114.376H114.376H114.376H114.376H114.376H114.376H114.376H114.376H114.376H114.376H114.376H114.376H114.377H114.377H114.377H114.377H114.377H114.377H114.377H114.377H114.377H114.377H114.377H114.377H114.377H114.377H114.377H114.377H114.378H114.378H114.378H114.378H114.378H114.378H114.378H114.378H114.378H114.378H114.378H114.378H114.378H114.378H114.378H114.378H114.378H114.379H114.379H114.379H114.379H114.379H114.379H114.379H114.379H114.379H114.379H114.379H114.379H114.379H114.379H114.379H114.379H114.379H114.38H114.38H114.38H114.38H114.38H114.38H114.38H114.38H114.38H114.38H114.38H114.38H114.38H114.38H114.38H114.38H114.38H114.38H114.381H114.381H114.381H114.381H114.381H114.381H114.381H114.381H114.381H114.381H114.381H114.381H114.381H114.381H114.381H114.381H114.381H114.382H114.382H114.382H114.382H114.382H114.382H114.382H114.382H114.382H114.382H114.382H114.382H114.382H114.382H114.382H114.382H114.382H114.382H114.383H114.383H114.383H114.383H114.383H114.383H114.383H114.383H114.383H114.383H114.383H114.383H114.383H114.383H114.383H114.383H114.383H114.383H114.384H114.384H114.384H114.384H114.384H114.384H114.384H114.384H114.384H114.384H114.384H114.384H114.384H114.384H114.384H114.384H114.384H114.384H114.385H114.385H114.385H114.385H114.385H114.385H114.385H114.385H114.385H114.385H114.385H114.385H114.385H114.385H114.385H114.385H114.385H114.386H114.386H114.386H114.386H114.386H114.386H114.386H114.386H114.386H114.386H114.386H114.386H114.386H114.386H114.386H114.386H114.386H114.387H114.387H114.387H114.387H114.387H114.387H114.387H114.387H114.387H114.387H114.387H114.387H114.387H114.387H114.387H114.387H114.388H114.388H114.388H114.388H114.388H114.388H114.388H114.388H114.388H114.388H114.388H114.388H114.388H114.388H114.388H114.388H114.389H114.389H114.389H114.389H114.389H114.389H114.389H114.389H114.389H114.389H114.389H114.389H114.389H114.389H114.389H114.39H114.39H114.39H114.39H114.39H114.39H114.39H114.39H114.39H114.39H114.39H114.39H114.39H114.39H114.391H114.391H114.391H114.391H114.391H114.391H114.391H114.391H114.391H114.391H114.391H114.391H114.391H114.392H114.392H114.392H114.392H114.392H114.392H114.392H114.392H114.392H114.392H114.392H114.392H114.392H114.393H114.393H114.393H114.393H114.393H114.393H114.393H114.393H114.393H114.393H114.393H114.393H114.393H114.394H114.394H114.394H114.394H114.394H114.394H114.394H114.394H114.394H114.394H114.394H114.394H114.395H114.395H114.395H114.395H114.395H114.395H114.395H114.395H114.395H114.395H114.395H114.396H114.396H114.396H114.396H114.396H114.396H114.396H114.396H114.396H114.396H114.396H114.397H114.397H114.397H114.397H114.397H114.397H114.397H114.397H114.397H114.397H114.397H114.398H114.398H114.398H114.398H114.398H114.398H114.398H114.398H114.398H114.398H114.399H114.399H114.399H114.399H114.399H114.399H114.399H114.399H114.399H114.4H114.4H114.4H114.4H114.4H114.4H114.4H114.4H114.4H114.4H114.401H114.401H114.401H114.401H114.401H114.401H116.302C116.871 86.9758 117.321 87.4304 117.321 87.9427C117.321 88.455 116.871 88.9096 116.302 88.9096H114.952H114.447L114.554 89.4039L115.178 92.2672C114.173 91.8775 112.908 91.6585 111.321 91.6585H87.0619C85.4753 91.6585 84.2102 91.8775 83.205 92.2672L83.8288 89.4039L83.9365 88.9096H83.4306H82.0808C81.5121 88.9096 81.0624 88.455 81.0624 87.9427C81.0624 87.4304 81.5121 86.9758 82.0808 86.9758H83.982H83.9821H83.9822H83.9823H83.9824H83.9825H83.9826H83.9827H83.9828H83.9829H83.9831H83.9832H83.9833H83.9834H83.9835H83.9836H83.9837H83.9838H83.9839H83.984H83.9841H83.9842H83.9843H83.9844H83.9845H83.9846H83.9847H83.9848H83.9849H83.985H83.9851H83.9852H83.9853H83.9854H83.9855H83.9856H83.9857H83.9858H83.9859H83.986H83.9861H83.9862H83.9863H83.9864H83.9865H83.9866H83.9866H83.9867H83.9868H83.9869H83.987H83.9871H83.9872H83.9873H83.9874H83.9875H83.9876H83.9877H83.9877H83.9878H83.9879H83.988H83.9881H83.9882H83.9883H83.9884H83.9884H83.9885H83.9886H83.9887H83.9888H83.9889H83.989H83.989H83.9891H83.9892H83.9893H83.9894H83.9895H83.9895H83.9896H83.9897H83.9898H83.9899H83.9899H83.99H83.9901H83.9902H83.9903H83.9903H83.9904H83.9905H83.9906H83.9907H83.9907H83.9908H83.9909H83.991H83.9911H83.9911H83.9912H83.9913H83.9914H83.9914H83.9915H83.9916H83.9917H83.9917H83.9918H83.9919H83.992H83.992H83.9921H83.9922H83.9922H83.9923H83.9924H83.9925H83.9925H83.9926H83.9927H83.9928H83.9928H83.9929H83.993H83.993H83.9931H83.9932H83.9932H83.9933H83.9934H83.9935H83.9935H83.9936H83.9937H83.9937H83.9938H83.9939H83.9939H83.994H83.9941H83.9941H83.9942H83.9943H83.9943H83.9944H83.9945H83.9945H83.9946H83.9947H83.9947H83.9948H83.9949H83.9949H83.995H83.9951H83.9951H83.9952H83.9952H83.9953H83.9954H83.9954H83.9955H83.9956H83.9956H83.9957H83.9958H83.9958H83.9959H83.9959H83.996H83.9961H83.9961H83.9962H83.9962H83.9963H83.9964H83.9964H83.9965H83.9966H83.9966H83.9967H83.9967H83.9968H83.9969H83.9969H83.997H83.997H83.9971H83.9972H83.9972H83.9973H83.9973H83.9974H83.9974H83.9975H83.9976H83.9976H83.9977H83.9977H83.9978H83.9979H83.9979H83.998H83.998H83.9981H83.9982H83.9982H83.9983H83.9983H83.9984H83.9984H83.9985H83.9986H83.9986H83.9987H83.9987H83.9988H83.9988H83.9989H83.999H83.999H83.9991H83.9991H83.9992H83.9992H83.9993H83.9993H83.9994H83.9995H83.9995H83.9996H83.9996H83.9997H83.9997H83.9998H83.9999H83.9999H84H84H84.0001H84.0001H84.0002H84.0002H84.0003H84.0004H84.0004H84.0005H84.0005H84.0006H84.0006H84.0007H84.0007H84.0008H84.0009H84.0009H84.001H84.001H84.0011H84.0011H84.0012H84.0012H84.0013H84.0014H84.0014H84.0015H84.0015H84.0016H84.0016H84.0017H84.0018H84.0018H84.0019H84.0019H84.002H84.002H84.0021H84.0021H84.0022H84.0023H84.0023H84.0024H84.0024H84.0025H84.0025H84.0026H84.0026H84.0027H84.0028H84.0028H84.0029H84.0029H84.003H84.003H84.0031H84.0032H84.0032H84.0033H84.0033H84.0034H84.0034H84.0035H84.0036H84.0036H84.0037H84.0037H84.0038H84.0038H84.0039H84.004H84.004H84.0041H84.0041H84.0042H84.0043H84.0043H84.0044H84.0044H84.0045H84.0046H84.0046H84.0047H84.0047H84.0048H84.0048H84.0049H84.005H84.005H84.0051H84.0051H84.0052H84.0053H84.0053H84.0054H84.0054H84.0055H84.0056H84.0056H84.0057H84.0058H84.0058H84.0059H84.0059H84.006H84.0061H84.0061H84.0062H84.0063H84.0063H84.0064H84.0064H84.0065H84.0066H84.0066H84.0067H84.0068H84.0068H84.0069H84.007H84.007H84.0071H84.0071H84.0072H84.0073H84.0073H84.0074H84.0075H84.0075H84.0076H84.0077H84.0077H84.0078H84.0079H84.0079H84.008H84.0081H84.0081H84.0082H84.0083H84.0083H84.0084H84.0085H84.0086H84.0086H84.0087H84.0088H84.0088H84.0089H84.009H84.009H84.0091H84.0092H84.0093H84.0093H84.0094H84.0095H84.0095H84.0096H84.0097H84.0098H84.0098H84.0099H84.01H84.0101H84.0101H84.0102H84.0103H84.0104H84.0104H84.0105H84.0106H84.0107H84.0107H84.0108H84.0109H84.011H84.011H84.0111H84.0112H84.0113H84.0114H84.0114H84.0115H84.0116H84.0117H84.0118H84.0118H84.0119H84.012H84.0121H84.0122H84.0122H84.0123H84.0124H84.0125H84.0126H84.0126H84.0127H84.0128H84.0129H84.013H84.0131H84.0132H84.0132H84.0133H84.0134H84.0135H84.0136H84.0137H84.0138H84.0138H84.0139H84.014H84.0141H84.0142H84.0143H84.0144H84.0145H84.0146H84.0146H84.0147H84.0148H84.0149H84.015H84.0151H84.0152H84.0153H84.0154H84.0155H84.0156H84.0157H84.0158H84.0159H84.016H84.016H84.0161H84.0162H84.0163H84.0164H84.0165H84.0166H84.0167H84.0168H84.0169H84.017H84.0171H84.0172H84.0173H84.0174H84.0175H84.0176H84.0177H84.0178H84.0179H84.018H84.0182H84.0183H84.0184H84.0185H84.0186H84.0187H84.0188H84.0189H84.019H84.0191H84.0192H84.0193H84.0194H84.0195H84.0197H84.0198H84.0199H84.02H84.3483L84.4182 86.655L85.1407 83.338L85.141 83.3363C85.4786 81.7546 85.9855 80.3123 87.0492 79.2595C88.1013 78.2181 89.7578 77.5013 92.5183 77.5013H97.7656H100.617H105.865C108.625 77.5013 110.282 78.2181 111.334 79.2595C112.398 80.3123 112.905 81.7546 113.242 83.3363L113.242 83.338L113.965 86.655Z" fill="white" stroke="#FF895B" stroke-width="0.815105"/>
<path d="M62.1183 72.5817H56.8221C56.0983 72.5817 55.498 71.9815 55.498 71.2576C55.498 70.5338 56.0983 69.9336 56.8221 69.9336H62.1183C62.8421 69.9336 63.4423 70.5338 63.4423 71.2576C63.4423 71.9815 62.8421 72.5817 62.1183 72.5817Z" fill="#FF895B"/>
<path d="M92.5713 103.575H87.2751C86.5513 103.575 85.9511 102.975 85.9511 102.251C85.9511 101.527 86.5513 100.927 87.2751 100.927H92.5713C93.2951 100.927 93.8954 101.527 93.8954 102.251C93.8954 102.975 93.2951 103.575 92.5713 103.575Z" fill="#FF895B"/>
<path d="M80.6548 72.5817H75.3586C74.6348 72.5817 74.0345 71.9815 74.0345 71.2576C74.0345 70.5338 74.6348 69.9336 75.3586 69.9336H80.6548C81.3786 69.9336 81.9788 70.5338 81.9788 71.2576C81.9788 71.9815 81.3786 72.5817 80.6548 72.5817Z" fill="#FF895B"/>
<path d="M111.108 103.575H105.812C105.088 103.575 104.488 102.975 104.488 102.251C104.488 101.527 105.088 100.927 105.812 100.927H111.108C111.832 100.927 112.432 101.527 112.432 102.251C112.432 102.975 111.832 103.575 111.108 103.575Z" fill="#FF895B"/>
</svg>
