<svg width="164" height="164" viewBox="0 0 164 164" fill="none" xmlns="http://www.w3.org/2000/svg">
<path d="M107.33 21.0566H56.6699C34.6647 21.0566 21.5463 34.1751 21.5463 56.1802V106.78C21.5463 128.845 34.6647 141.964 56.6699 141.964H107.27C129.275 141.964 142.393 128.845 142.393 106.84V56.1802C142.454 34.1751 129.335 21.0566 107.33 21.0566Z" fill="#FF895B"/>
<path fill-rule="evenodd" clip-rule="evenodd" d="M62.5577 39.9349C62.5577 38.793 63.4744 37.8672 64.6051 37.8672C65.736 37.8672 66.6525 38.793 66.6525 39.9349V62.373H88.2675C87.5665 63.784 86.9386 65.1715 86.4121 66.5083H66.6525V99.6217H99.4413V93.7062C100.758 94.0671 102.128 94.2903 103.536 94.36V99.6217H123.601C124.731 99.6217 125.648 100.547 125.648 101.689C125.648 102.831 124.731 103.757 123.601 103.757H103.536V124.02C103.536 125.162 102.62 126.088 101.489 126.088C100.358 126.088 99.4413 125.162 99.4413 124.02V103.757H66.6525V124.02C66.6525 125.162 65.736 126.088 64.6051 126.088C63.4744 126.088 62.5577 125.162 62.5577 124.02V103.757H40.3396C39.2089 103.757 38.2922 102.831 38.2922 101.689C38.2922 100.547 39.2089 99.6217 40.3396 99.6217H62.5577V66.5083H40.3396C39.2089 66.5083 38.2922 65.5826 38.2922 64.4407C38.2922 63.2986 39.2089 62.373 40.3396 62.373H62.5577V39.9349ZM116.629 66.5083H103.536V88.8363C102.111 88.7361 100.734 88.4136 99.4413 87.8988V66.5083H92.3544C92.469 66.2566 92.5888 65.9997 92.7134 65.7379C93.2356 64.6405 93.816 63.5138 94.4389 62.373H99.4413V54.1424C100.853 52.0053 102.259 49.9908 103.536 48.2178V62.373H114.544C115.167 63.5138 115.747 64.6405 116.27 65.7379C116.394 65.9997 116.514 66.2566 116.629 66.5083ZM122.571 66.5083H123.601C124.731 66.5083 125.648 65.5826 125.648 64.4407C125.648 63.2986 124.731 62.373 123.601 62.373H120.716C121.417 63.784 122.044 65.1715 122.571 66.5083ZM103.415 39.2325C103.13 38.4363 102.375 37.8672 101.489 37.8672C100.358 37.8672 99.4413 38.793 99.4413 39.9349V44.5309C100.008 43.7486 100.547 43.0169 101.047 42.346C102.004 41.0611 102.819 39.9992 103.415 39.2325Z" fill="white"/>
<path fill-rule="evenodd" clip-rule="evenodd" d="M103.051 88.7936V66.8148C103.051 65.2921 101.828 64.0579 100.321 64.0579H93.5455C93.2547 64.6241 92.9766 65.1847 92.7133 65.7381C90.9213 69.5037 90.1597 72.225 90.1597 73.7628C90.1597 81.7374 95.9384 88.0365 103.051 88.7936ZM103.051 94.33C92.7928 93.5611 84.6999 84.6467 84.6999 73.7628C84.6999 71.0888 85.7911 67.6915 87.4611 64.0579H66.9558C65.4481 64.0579 64.2259 65.2921 64.2259 66.8148V100.51C64.2259 102.033 65.4481 103.267 66.9558 103.267H100.321C101.828 103.267 103.051 102.033 103.051 100.51V94.33Z" fill="white"/>
<path fill-rule="evenodd" clip-rule="evenodd" d="M101.046 42.3462C101.046 42.3473 101.045 42.3484 101.044 42.3495C101.045 42.3484 101.046 42.3473 101.046 42.3462ZM118.823 73.7628C118.823 82.2695 112.247 88.8698 104.491 88.8698C96.7355 88.8698 90.1596 82.2695 90.1596 73.7628C90.1596 72.2249 90.9213 69.5037 92.7133 65.7379C94.4184 62.1549 96.7441 58.2565 99.1487 54.5874C101.019 51.7325 102.897 49.079 104.491 46.9032C106.086 49.079 107.963 51.7325 109.834 54.5874C112.239 58.2565 114.565 62.1549 116.27 65.7379C118.062 69.5037 118.823 72.2249 118.823 73.7628Z" fill="white"/>
</svg>
