<svg width="164" height="164" viewBox="0 0 164 164" fill="none" xmlns="http://www.w3.org/2000/svg">
<path d="M107.424 20.2866H56.7642C34.7591 20.2866 21.6406 33.4051 21.6406 55.4102V106.01C21.6406 128.075 34.7591 141.194 56.7642 141.194H107.364C129.369 141.194 142.487 128.075 142.487 106.07V55.4102C142.548 33.4051 129.429 20.2866 107.424 20.2866Z" fill="#FF895B"/>
<path d="M62.2913 72.2272L59.7033 109.344C59.5668 111.296 60.3358 113.232 61.8211 114.656C63.3074 116.082 65.4022 116.899 67.5735 116.899C69.7439 116.899 71.8387 116.082 73.3241 114.658C74.8113 113.233 75.5858 111.297 75.4503 109.344L72.9129 72.2272C76.5963 70.498 79.1595 67.0338 79.1595 63.0424V48.5446C79.1595 47.6281 78.3334 46.8843 77.3155 46.8843C76.2976 46.8843 75.4715 47.6281 75.4715 48.5446V63.0424C75.4715 65.972 73.4311 68.4874 70.5977 69.5458C70.4262 69.5798 70.2455 69.6321 70.098 69.7044C69.3097 69.9451 68.4587 70.0821 67.5818 70.0821C66.705 70.0821 65.8595 69.9451 65.0703 69.7044C64.9228 69.6321 64.7817 69.5798 64.612 69.5466C61.7778 68.4882 59.7973 65.9728 59.7973 63.0424V48.5446C59.7973 47.6281 58.9712 46.8843 57.9533 46.8843C56.9354 46.8843 56.1093 47.6281 56.1093 48.5446V63.0424C56.1093 67.0338 58.6107 70.498 62.2913 72.2272Z" fill="white"/>
<path d="M62.563 48.5446V60.1443C62.563 61.0608 63.3891 61.8046 64.407 61.8046C65.4249 61.8046 66.251 61.0608 66.251 60.1443V48.5446C66.251 47.6281 65.4249 46.8843 64.407 46.8843C63.3891 46.8843 62.563 47.6281 62.563 48.5446Z" fill="white"/>
<path d="M69.0169 48.5446V60.1443C69.0169 61.0608 69.8431 61.8046 70.861 61.8046C71.8789 61.8046 72.705 61.0608 72.705 60.1443V48.5446C72.705 47.6281 71.8789 46.8843 70.861 46.8843C69.8431 46.8843 69.0169 47.6281 69.0169 48.5446Z" fill="white"/>
<path d="M90.4171 59.9658L88.2652 83.2035C88.2218 83.6659 88.397 84.2287 88.7455 84.5708C89.094 84.9128 89.5873 85.2125 90.1027 85.2125H93.2836L91.3161 109.435C91.3142 109.471 91.1455 109.402 91.1455 109.44V109.787C91.1455 113.709 95.0299 116.899 99.5994 116.899C101.958 116.899 104.297 116.033 105.869 114.522C107.356 113.093 108.143 111.25 108.004 109.329L106.07 84.9983C107.07 84.9784 107.742 84.2462 107.742 83.3413V48.5446C107.742 47.6281 107.07 46.8843 106.052 46.8843C97.8762 46.8843 91.0939 52.6306 90.4171 59.9658ZM103.262 112.251C102.384 113.095 101.11 113.579 99.7663 113.579C97.2298 113.579 95.1673 111.983 95.1673 109.892L96.9809 85.2125H102.55L104.365 109.651C104.436 110.643 104.044 111.499 103.262 112.251Z" fill="white"/>
</svg>
