<svg width="164" height="164" viewBox="0 0 164 164" fill="none" xmlns="http://www.w3.org/2000/svg">
<path d="M107.235 21.6284H56.5752C34.57 21.6284 21.4516 34.7469 21.4516 56.752V107.352C21.4516 129.417 34.57 142.536 56.5752 142.536H107.175C129.18 142.536 142.298 129.417 142.298 107.412V56.752C142.359 34.7469 129.24 21.6284 107.235 21.6284Z" fill="#FF895B"/>
<path d="M88.9718 93.3518H74.7764V106.137H88.9718V93.3518Z" fill="white"/>
<path d="M97.6515 105.367H66.0879C64.2198 105.367 62.7054 106.881 62.7054 108.749C62.7054 110.618 64.2198 112.132 66.0879 112.132H97.6515C99.5196 112.132 101.034 110.618 101.034 108.749C101.034 106.881 99.5196 105.367 97.6515 105.367Z" fill="white"/>
<path d="M111.689 96.2037H52.0617C49.6313 96.2037 47.6437 94.2162 47.6437 91.7857V56.4502C47.6437 54.0219 49.6313 52.0322 52.0617 52.0322H111.691C114.119 52.0344 116.107 54.0219 116.107 56.4502V91.7857C116.107 94.2162 114.119 96.2037 111.689 96.2037Z" fill="white"/>
</svg>
