<svg width="164" height="164" viewBox="0 0 164 164" fill="none" xmlns="http://www.w3.org/2000/svg">
<path d="M107.789 21.2446H57.1293C35.1242 21.2446 22.0057 34.3631 22.0057 56.3682V106.968C22.0057 129.033 35.1242 142.152 57.1293 142.152H107.729C129.734 142.152 142.853 129.033 142.853 107.028V56.3682C142.913 34.3631 129.795 21.2446 107.789 21.2446Z" fill="#FF895B"/>
<path d="M79.017 69.6492H60.2502V84.5815H79.017V69.6492Z" fill="white"/>
<path d="M60.5599 62.7567H79.0172V44.3564C69.6094 45.8296 62.1387 53.2959 60.5599 62.7567Z" fill="white"/>
<path d="M85.8417 44.3564V62.7569H104.299C102.72 53.2959 95.2494 45.8296 85.8417 44.3564Z" fill="white"/>
<path d="M104.608 69.6492H85.8417V84.5815H104.608V69.6492Z" fill="white"/>
<path d="M121.1 91.4727H116.551H111.433H108.02H104.608H102.902H89.2536H85.8414H82.4294H79.0172H75.605H61.9564H60.2503H56.8382H53.4262H48.3078H43.7584C41.8741 91.4727 40.3462 93.0155 40.3462 94.9186C40.3462 96.8216 41.8741 98.3646 43.7584 98.3646H44.8958V115.594C44.8958 117.497 46.4237 119.04 48.3079 119.04H61.9566H75.6051H89.2538H102.902H116.551C118.436 119.04 119.963 117.497 119.963 115.594V98.3646H121.101C122.985 98.3646 124.513 96.8218 124.513 94.9186C124.513 93.0155 122.985 91.4727 121.1 91.4727ZM58.5444 100.949V104.395V112.148H51.72V98.3646H53.426H56.8382H58.5442V100.949H58.5444ZM72.193 100.949V104.395V112.148H65.3687V104.395V100.949V98.3644H72.193V100.949ZM85.8416 100.949V104.395V112.148H79.0172V104.395V100.949V98.3644H82.4294H85.8416V100.949ZM99.4902 100.949V104.395V112.148H92.6658V104.395V100.949V98.3644H99.4902V100.949ZM113.139 112.148H106.314V104.395V100.949V98.3644H108.02H111.433H113.139V112.148H113.139Z" fill="white"/>
</svg>
