<svg width="164" height="164" viewBox="0 0 164 164" fill="none" xmlns="http://www.w3.org/2000/svg">
<path d="M106.965 21.0566H56.3051C34.3 21.0566 21.1816 34.1751 21.1816 56.1802V106.78C21.1816 128.845 34.3 141.964 56.3051 141.964H106.905C128.91 141.964 142.028 128.845 142.028 106.84V56.1802C142.089 34.1751 128.97 21.0566 106.965 21.0566Z" fill="#FF895B"/>
<path fill-rule="evenodd" clip-rule="evenodd" d="M59.6577 90.3964C56.8319 87.5426 52.0003 89.5638 52.0003 93.5995V106.878C52.0003 109.38 54.0086 111.408 56.4859 111.408H69.6344C73.6306 111.408 75.632 106.529 72.8062 103.675L59.6577 90.3964ZM91.3294 103.675C88.5036 106.529 90.5049 111.408 94.5012 111.408H106.724C109.202 111.408 111.21 109.38 111.21 106.878V94.534C111.21 90.4981 106.378 88.477 103.553 91.3307L91.3294 103.675ZM103.553 72.624C106.378 75.4779 111.21 73.4567 111.21 69.4209V56.1423C111.21 53.6405 109.202 51.6123 106.724 51.6123H93.576C89.5798 51.6123 87.5784 56.4917 90.4043 59.3455L103.553 72.624ZM73.7314 59.3455C76.5571 56.4917 74.5558 51.6123 70.5596 51.6123H56.4859C54.0086 51.6123 52.0003 53.6405 52.0003 56.1423V70.3553C52.0003 74.3911 56.8319 76.4122 59.6577 73.5585L73.7314 59.3455ZM85.2396 103.219C83.4879 104.988 80.6478 104.988 78.896 103.219L61.0349 85.1806C59.2832 83.4115 59.2832 80.5433 61.0349 78.7742L78.896 60.7363C80.6478 58.9672 83.4879 58.9672 85.2396 60.7363L103.101 78.7742C104.852 80.5433 104.852 83.4115 103.101 85.1806L85.2396 103.219Z" fill="white"/>
<path d="M59.1319 83.2587C58.4312 82.5512 58.4312 81.4039 59.1319 80.6962L80.7992 58.8144C81.4998 58.1068 82.6359 58.1068 83.3366 58.8144L105.004 80.6962C105.705 81.4039 105.705 82.5512 105.004 83.2587L83.3366 105.141C82.6359 105.848 81.4998 105.848 80.7992 105.141L59.1319 83.2587Z" fill="white"/>
</svg>
